<svg width="24" height="24" viewBox="0 0 24 24" fill="none" xmlns="http://www.w3.org/2000/svg">
<g clip-path="url(#clip0_1809_1134)">
<path fill-rule="evenodd" clip-rule="evenodd" d="M2.83333 19.1667C3.47767 19.1667 4 19.689 4 20.3333C4 20.9777 3.47767 21.5 2.83333 21.5C2.189 21.5 1.66667 20.9777 1.66667 20.3333C1.66667 19.689 2.189 19.1667 2.83333 19.1667ZM0 20.3333C0 21.8981 1.26853 23.1667 2.83333 23.1667C4.04615 23.1667 5.08099 22.4046 5.48518 21.3333H8.66683V19.3333H5.48512C5.08089 18.262 4.04609 17.5 2.83333 17.5C1.26853 17.5 0 18.7685 0 20.3333ZM20.0003 20.3333C20.0003 19.689 20.5227 19.1667 21.167 19.1667C21.8113 19.1667 22.3337 19.689 22.3337 20.3333C22.3337 20.9777 21.8113 21.5 21.167 21.5C20.5227 21.5 20.0003 20.9777 20.0003 20.3333ZM21.167 23.1667C22.7318 23.1667 24.0003 21.8981 24.0003 20.3333C24.0003 18.7685 22.7318 17.5 21.167 17.5C19.9542 17.5 18.9194 18.262 18.5152 19.3333H15.3337V21.3333H18.5151C18.9193 22.4046 19.9542 23.1667 21.167 23.1667ZM12.0003 22.0001C12.9208 22.0001 13.667 21.2539 13.667 20.3334C13.667 19.4129 12.9208 18.6667 12.0003 18.6667C11.0799 18.6667 10.3337 19.4129 10.3337 20.3334C10.3337 21.2539 11.0799 22.0001 12.0003 22.0001Z" fill="#0D0D0D"/>
<path fill-rule="evenodd" clip-rule="evenodd" d="M16.6668 8.47727C16.6668 10.1705 15.4936 12.0155 13.9015 13.6483C13.2272 14.3398 12.547 14.9226 12.0002 15.3555C11.4533 14.9226 10.7731 14.3398 10.0988 13.6483C8.50676 12.0155 7.3335 10.1705 7.3335 8.47727C7.3335 7.30873 7.81073 6.17598 8.67981 5.33159C9.55084 4.4853 10.7442 4 12.0002 4C13.2561 4 14.4495 4.4853 15.3205 5.33159C16.1896 6.17598 16.6668 7.30873 16.6668 8.47727ZM18.6668 8.47727C18.6668 13.5152 12.0002 17.8333 12.0002 17.8333C12.0002 17.8333 5.3335 13.5152 5.3335 8.47727C5.3335 6.75939 6.03587 5.11187 7.28612 3.89715C8.53636 2.68242 10.2321 2 12.0002 2C13.7683 2 15.464 2.68242 16.7142 3.89715C17.9645 5.11187 18.6668 6.75939 18.6668 8.47727ZM11.3334 9.49995C11.3334 9.13176 11.6319 8.83328 12.0001 8.83328C12.3683 8.83328 12.6668 9.13176 12.6668 9.49995C12.6668 9.86814 12.3683 10.1666 12.0001 10.1666C11.6319 10.1666 11.3334 9.86814 11.3334 9.49995ZM12.0001 6.83328C10.5273 6.83328 9.33344 8.02719 9.33344 9.49995C9.33344 10.9727 10.5273 12.1666 12.0001 12.1666C13.4729 12.1666 14.6668 10.9727 14.6668 9.49995C14.6668 8.02719 13.4729 6.83328 12.0001 6.83328Z" fill="#0D0D0D"/>
</g>
<defs>
<clipPath id="clip0_1809_1134">
<rect width="24" height="24" fill="white"/>
</clipPath>
</defs>
</svg>
