<svg width="24" height="24" viewBox="0 0 24 24" fill="none" xmlns="http://www.w3.org/2000/svg">
<path d="M16.7286 1.09411C16.8709 1.17212 16.9811 1.29347 17.041 1.43832C17.101 1.58317 17.1072 1.74297 17.0587 1.89161L14.4392 9.93811H19.2725C19.4145 9.93805 19.5534 9.97732 19.6722 10.0511C19.7909 10.1248 19.8841 10.2298 19.9404 10.3531C19.9967 10.4763 20.0136 10.6125 19.989 10.7448C19.9644 10.877 19.8993 10.9995 19.8019 11.0972L8.16596 22.7847C8.05337 22.8979 7.90355 22.9717 7.74092 22.9941C7.57828 23.0165 7.41243 22.9861 7.27038 22.908C7.12834 22.8298 7.01848 22.7085 6.95872 22.5638C6.89895 22.419 6.8928 22.2594 6.94127 22.111L9.56082 14.0631H4.72754C4.5855 14.0632 4.44655 14.0239 4.32785 13.9501C4.20915 13.8764 4.11589 13.7714 4.05958 13.6481C4.00328 13.5249 3.98639 13.3887 4.011 13.2565C4.03562 13.1242 4.10066 13.0017 4.1981 12.904L15.834 1.21648C15.9465 1.10346 16.0961 1.02971 16.2585 1.00725C16.4209 0.984779 16.5866 1.01491 16.7286 1.09273V1.09411Z" fill="#0D0D0D"/>
</svg>
