<svg width="100" height="100" viewBox="0 0 100 100" fill="none" xmlns="http://www.w3.org/2000/svg">
<g clip-path="url(#clip0_36_2)">
<path d="M70.3188 0.424953C70.9305 0.779568 71.4038 1.33114 71.6615 1.98956C71.9192 2.64799 71.946 3.37434 71.7375 4.04995L60.4813 40.625H81.25C81.8604 40.6247 82.4574 40.8032 82.9675 41.1384C83.4776 41.4736 83.8783 41.9508 84.1202 42.5112C84.3622 43.0715 84.4348 43.6904 84.329 44.2915C84.2232 44.8926 83.9437 45.4496 83.525 45.8937L33.525 99.0187C33.0412 99.5332 32.3974 99.8686 31.6986 99.9703C30.9998 100.072 30.2871 99.934 29.6767 99.5788C29.0663 99.2236 28.5943 98.6721 28.3375 98.0143C28.0807 97.3564 28.0542 96.631 28.2625 95.9562L39.5188 59.375H18.75C18.1397 59.3752 17.5426 59.1967 17.0326 58.8615C16.5225 58.5263 16.1218 58.0491 15.8798 57.4888C15.6379 56.9284 15.5653 56.3095 15.6711 55.7084C15.7768 55.1073 16.0563 54.5503 16.475 54.1062L66.475 0.981203C66.9582 0.467448 67.601 0.132257 68.2989 0.0301317C68.9967 -0.0719937 69.7086 0.0649525 70.3188 0.418703V0.424953Z" stroke-width="4" stroke="#1E1E1E" fill="#DBEB00"/>
</g>
<defs>
<clipPath id="clip0_36_2">
<rect width="100" height="100" fill="#1E1E1E"/>
</clipPath>
</defs>
</svg>
