<svg width="24" height="24" viewBox="0 0 24 24" fill="none" xmlns="http://www.w3.org/2000/svg">
<g clip-path="url(#clip0_1809_1255)">
<path fill-rule="evenodd" clip-rule="evenodd" d="M4.31598 12.7977C3.67346 12.4181 3.6582 11.4938 4.28784 11.0931L5.07281 10.5936L3.99906 8.90629L3.21409 9.40581C1.59653 10.4352 1.39772 12.6163 2.58447 13.9371C1.36762 15.29 1.61734 17.5261 3.29853 18.5196L10.4963 22.7728C11.4199 23.3186 12.5647 23.3296 13.4986 22.8017L21.0249 18.5477C22.7508 17.5722 23.0176 15.3017 21.7897 13.9363C22.988 12.6024 22.7722 10.3861 21.1085 9.37346L20.3237 8.89575L19.2838 10.6041L20.0686 11.0819C20.7209 11.4789 20.7055 12.4309 20.0408 12.8066L12.5145 17.0606C12.2032 17.2365 11.8216 17.2329 11.5137 17.0509L4.31598 12.7977ZM20.074 15.0852L13.4986 18.8017C12.5647 19.3296 11.4199 19.3186 10.4963 18.7728L4.2789 15.0989C3.65836 15.5026 3.67652 16.4199 4.31598 16.7977L11.5137 21.0509C11.8216 21.2329 12.2032 21.2365 12.5145 21.0606L20.0408 16.8066C20.7037 16.4319 20.7208 15.4841 20.074 15.0852Z" fill="#0D0D0D"/>
<path fill-rule="evenodd" clip-rule="evenodd" d="M3.40513 9.83278C1.44005 8.67159 1.44005 5.8284 3.40513 4.66722L10.496 0.477155C11.4196 -0.0686241 12.5644 -0.0796452 13.4984 0.448248L20.9116 4.63831C22.9433 5.7867 22.9433 8.7133 20.9116 9.86169L13.4984 14.0518C12.5644 14.5796 11.4196 14.5686 10.496 14.0228L3.40513 9.83278ZM4.42259 6.38907C3.76756 6.77614 3.76756 7.72386 4.42259 8.11092L11.5135 12.301C11.8214 12.4829 12.2029 12.4866 12.5143 12.3106L19.9274 8.12056C20.6047 7.73777 20.6047 6.76223 19.9274 6.37944L12.5143 2.18937C12.2029 2.01341 11.8213 2.01708 11.5135 2.19901L4.42259 6.38907Z" fill="#0D0D0D"/>
</g>
<defs>
<clipPath id="clip0_1809_1255">
<rect width="24" height="24" fill="white"/>
</clipPath>
</defs>
</svg>
