<svg width="24" height="24" viewBox="0 0 24 24" fill="none" xmlns="http://www.w3.org/2000/svg">
<path fill-rule="evenodd" clip-rule="evenodd" d="M7.26066 2.70768C8.15251 2.17823 9.25458 2.147 10.175 2.6251L14.7469 4.99998C15.0537 5.15935 15.4211 5.14894 15.7184 4.97246L17.4686 3.93346C19.4683 2.74629 22 4.18752 22 6.51313V15.4614C22 16.5202 21.4419 17.5006 20.5314 18.0411L16.7393 20.2922C15.8475 20.8217 14.7454 20.8529 13.825 20.3748L9.25305 17.9999C8.94625 17.8406 8.5789 17.851 8.28161 18.0275L6.53143 19.0665C4.53165 20.2536 2 18.8124 2 16.4868V7.53853C2 6.47973 2.55812 5.49934 3.46857 4.95885L7.26066 2.70768ZM9.25305 4.39994C8.94625 4.24057 8.5789 4.25098 8.28161 4.42746L4.48952 6.67864C4.18604 6.8588 4 7.1856 4 7.53853V16.4868C4 17.262 4.84388 17.7424 5.51048 17.3467L7.26066 16.3077C8.15251 15.7782 9.25458 15.747 10.175 16.2251L14.7469 18.6C15.0537 18.7593 15.4211 18.7489 15.7184 18.5725L19.5105 16.3213C19.814 16.1411 20 15.8143 20 15.4614V6.51313C20 5.73793 19.1561 5.25752 18.4895 5.65324L16.7393 6.69224C15.8475 7.22169 14.7454 7.25292 13.825 6.77482L9.25305 4.39994Z" fill="#0D0D0D"/>
<path fill-rule="evenodd" clip-rule="evenodd" d="M9.8635 3.99999C9.8635 3.52302 9.47684 3.13635 8.99987 3.13635C8.52289 3.13635 8.13623 3.52302 8.13623 3.99999V16.9545C8.13623 17.4315 8.52289 17.8182 8.99987 17.8182C9.47684 17.8182 9.8635 17.4315 9.8635 16.9545V3.99999ZM15.8635 5.99999C15.8635 5.52302 15.4768 5.13635 14.9999 5.13635C14.5229 5.13635 14.1362 5.52302 14.1362 5.99999V18.9545C14.1362 19.4315 14.5229 19.8182 14.9999 19.8182C15.4768 19.8182 15.8635 19.4315 15.8635 18.9545V5.99999Z" fill="#0D0D0D"/>
</svg>
