<svg width="24" height="24" viewBox="0 0 24 24" fill="none" xmlns="http://www.w3.org/2000/svg">
<path fill-rule="evenodd" clip-rule="evenodd" d="M12 18C15.3137 18 18 15.3137 18 12C18 8.68629 15.3137 6 12 6C8.68629 6 6 8.68629 6 12C6 15.3137 8.68629 18 12 18ZM12 20C16.4183 20 20 16.4183 20 12C20 7.58172 16.4183 4 12 4C7.58172 4 4 7.58172 4 12C4 16.4183 7.58172 20 12 20Z" fill="#0D0D0D"/>
<path fill-rule="evenodd" clip-rule="evenodd" d="M13 3C13 2.44772 12.5523 2 12 2C11.4477 2 11 2.44772 11 3V5C11 5.55228 11.4477 6 12 6C12.5523 6 13 5.55228 13 5V3ZM13 19C13 18.4477 12.5523 18 12 18C11.4477 18 11 18.4477 11 19V21C11 21.5523 11.4477 22 12 22C12.5523 22 13 21.5523 13 21V19ZM6 12C6 12.5523 5.55228 13 5 13H3C2.44772 13 2 12.5523 2 12C2 11.4477 2.44772 11 3 11H5C5.55228 11 6 11.4477 6 12ZM21 13C21.5523 13 22 12.5523 22 12C22 11.4477 21.5523 11 21 11H19C18.4477 11 18 11.4477 18 12C18 12.5523 18.4477 13 19 13H21Z" fill="#0D0D0D"/>
</svg>
