<svg width="24" height="24" viewBox="0 0 24 24" fill="none" xmlns="http://www.w3.org/2000/svg">
<path d="M5.3 21.5C4.8 21.5 4.375 21.325 4.025 20.975C3.675 20.625 3.5 20.2 3.5 19.7V6.3C3.5 5.8 3.675 5.375 4.025 5.025C4.375 4.675 4.8 4.5 5.3 4.5H6.7V2.375H8.225V4.5H15.8V2.375H17.3V4.5H18.7C19.2 4.5 19.625 4.675 19.975 5.025C20.325 5.375 20.5 5.8 20.5 6.3V19.7C20.5 20.2 20.325 20.625 19.975 20.975C19.625 21.325 19.2 21.5 18.7 21.5H5.3ZM5.3 20H18.7C18.7667 20 18.8333 19.9667 18.9 19.9C18.9667 19.8333 19 19.7667 19 19.7V10.3H5V19.7C5 19.7667 5.03333 19.8333 5.1 19.9C5.16667 19.9667 5.23333 20 5.3 20ZM5 8.8H19V6.3C19 6.23333 18.9667 6.16667 18.9 6.1C18.8333 6.03333 18.7667 6 18.7 6H5.3C5.23333 6 5.16667 6.03333 5.1 6.1C5.03333 6.16667 5 6.23333 5 6.3V8.8ZM12 14.075C11.75 14.075 11.5417 13.9873 11.375 13.812C11.2083 13.6373 11.125 13.4333 11.125 13.2C11.125 12.95 11.2083 12.7373 11.375 12.562C11.5417 12.3873 11.75 12.3 12 12.3C12.25 12.3 12.4583 12.3873 12.625 12.562C12.7917 12.7373 12.875 12.95 12.875 13.2C12.875 13.4333 12.7917 13.6373 12.625 13.812C12.4583 13.9873 12.25 14.075 12 14.075ZM8 14.075C7.75 14.075 7.54167 13.9873 7.375 13.812C7.20833 13.6373 7.125 13.4333 7.125 13.2C7.125 12.95 7.20833 12.7373 7.375 12.562C7.54167 12.3873 7.75 12.3 8 12.3C8.25 12.3 8.45833 12.3873 8.625 12.562C8.79167 12.7373 8.875 12.95 8.875 13.2C8.875 13.4333 8.79167 13.6373 8.625 13.812C8.45833 13.9873 8.25 14.075 8 14.075ZM16 14.075C15.75 14.075 15.5417 13.9873 15.375 13.812C15.2083 13.6373 15.125 13.4333 15.125 13.2C15.125 12.95 15.2083 12.7373 15.375 12.562C15.5417 12.3873 15.75 12.3 16 12.3C16.25 12.3 16.4583 12.3873 16.625 12.562C16.7917 12.7373 16.875 12.95 16.875 13.2C16.875 13.4333 16.7917 13.6373 16.625 13.812C16.4583 13.9873 16.25 14.075 16 14.075ZM12 18C11.75 18 11.5417 17.9127 11.375 17.738C11.2083 17.5627 11.125 17.3583 11.125 17.125C11.125 16.875 11.2083 16.6627 11.375 16.488C11.5417 16.3127 11.75 16.225 12 16.225C12.25 16.225 12.4583 16.3127 12.625 16.488C12.7917 16.6627 12.875 16.875 12.875 17.125C12.875 17.3583 12.7917 17.5627 12.625 17.738C12.4583 17.9127 12.25 18 12 18ZM8 18C7.75 18 7.54167 17.9127 7.375 17.738C7.20833 17.5627 7.125 17.3583 7.125 17.125C7.125 16.875 7.20833 16.6627 7.375 16.488C7.54167 16.3127 7.75 16.225 8 16.225C8.25 16.225 8.45833 16.3127 8.625 16.488C8.79167 16.6627 8.875 16.875 8.875 17.125C8.875 17.3583 8.79167 17.5627 8.625 17.738C8.45833 17.9127 8.25 18 8 18ZM16 18C15.75 18 15.5417 17.9127 15.375 17.738C15.2083 17.5627 15.125 17.3583 15.125 17.125C15.125 16.875 15.2083 16.6627 15.375 16.488C15.5417 16.3127 15.75 16.225 16 16.225C16.25 16.225 16.4583 16.3127 16.625 16.488C16.7917 16.6627 16.875 16.875 16.875 17.125C16.875 17.3583 16.7917 17.5627 16.625 17.738C16.4583 17.9127 16.25 18 16 18Z" fill="#41CD52"/>
</svg>
