<svg width="256" height="256" viewBox="0 0 256 256" fill="none" xmlns="http://www.w3.org/2000/svg">
<circle cx="128" cy="128" r="3.5" transform="rotate(-90 128 128)" fill="#41CD52" stroke="#41CD52"/>
<path d="M131.586 24.4062V26.1406C131.586 27.0729 131.503 27.8594 131.336 28.5C131.169 29.1406 130.93 29.6562 130.617 30.0469C130.305 30.4375 129.927 30.7214 129.484 30.8984C129.047 31.0703 128.552 31.1562 128 31.1562C127.562 31.1562 127.159 31.1016 126.789 30.9922C126.419 30.8828 126.086 30.7083 125.789 30.4688C125.497 30.224 125.247 29.9062 125.039 29.5156C124.831 29.125 124.672 28.651 124.562 28.0938C124.453 27.5365 124.398 26.8854 124.398 26.1406V24.4062C124.398 23.474 124.482 22.6927 124.648 22.0625C124.82 21.4323 125.062 20.9271 125.375 20.5469C125.688 20.1615 126.062 19.8854 126.5 19.7188C126.943 19.5521 127.438 19.4688 127.984 19.4688C128.427 19.4688 128.833 19.5234 129.203 19.6328C129.578 19.737 129.911 19.9062 130.203 20.1406C130.495 20.3698 130.742 20.6771 130.945 21.0625C131.154 21.4427 131.312 21.9089 131.422 22.4609C131.531 23.013 131.586 23.6615 131.586 24.4062ZM130.133 26.375V24.1641C130.133 23.6536 130.102 23.2057 130.039 22.8203C129.982 22.4297 129.896 22.0964 129.781 21.8203C129.667 21.5443 129.521 21.3203 129.344 21.1484C129.172 20.9766 128.971 20.8516 128.742 20.7734C128.518 20.6901 128.266 20.6484 127.984 20.6484C127.641 20.6484 127.336 20.7135 127.07 20.8438C126.805 20.9688 126.581 21.1693 126.398 21.4453C126.221 21.7214 126.086 22.0833 125.992 22.5312C125.898 22.9792 125.852 23.5234 125.852 24.1641V26.375C125.852 26.8854 125.88 27.3359 125.938 27.7266C126 28.1172 126.091 28.4557 126.211 28.7422C126.331 29.0234 126.477 29.2552 126.648 29.4375C126.82 29.6198 127.018 29.7552 127.242 29.8438C127.471 29.9271 127.724 29.9688 128 29.9688C128.354 29.9688 128.664 29.901 128.93 29.7656C129.195 29.6302 129.417 29.4193 129.594 29.1328C129.776 28.8411 129.911 28.4688 130 28.0156C130.089 27.5573 130.133 27.0104 130.133 26.375Z" fill="#381E72"/>
<path d="M71.5234 39.5859L70.3672 39.2891L70.9375 33.625H76.7734V34.9609H72.1641L71.8203 38.0547C72.0286 37.9349 72.2917 37.8229 72.6094 37.7188C72.9323 37.6146 73.3021 37.5625 73.7188 37.5625C74.2448 37.5625 74.7161 37.6536 75.1328 37.8359C75.5495 38.013 75.9036 38.2682 76.1953 38.6016C76.4922 38.9349 76.7188 39.3359 76.875 39.8047C77.0312 40.2734 77.1094 40.7969 77.1094 41.375C77.1094 41.9219 77.0339 42.4245 76.8828 42.8828C76.737 43.3411 76.5156 43.7422 76.2188 44.0859C75.9219 44.4245 75.5469 44.6875 75.0938 44.875C74.6458 45.0625 74.1172 45.1562 73.5078 45.1562C73.0495 45.1562 72.6146 45.0938 72.2031 44.9688C71.7969 44.8385 71.4323 44.6432 71.1094 44.3828C70.7917 44.1172 70.5312 43.7891 70.3281 43.3984C70.1302 43.0026 70.0052 42.5391 69.9531 42.0078H71.3281C71.3906 42.4349 71.5156 42.7943 71.7031 43.0859C71.8906 43.3776 72.1354 43.599 72.4375 43.75C72.7448 43.8958 73.1016 43.9688 73.5078 43.9688C73.8516 43.9688 74.1562 43.9089 74.4219 43.7891C74.6875 43.6693 74.9115 43.4974 75.0938 43.2734C75.276 43.0495 75.4141 42.7786 75.5078 42.4609C75.6068 42.1432 75.6562 41.7865 75.6562 41.3906C75.6562 41.0312 75.6068 40.6979 75.5078 40.3906C75.4089 40.0833 75.2604 39.8151 75.0625 39.5859C74.8698 39.3568 74.6328 39.1797 74.3516 39.0547C74.0703 38.9245 73.7474 38.8594 73.3828 38.8594C72.8984 38.8594 72.5312 38.9245 72.2812 39.0547C72.0365 39.1849 71.7839 39.362 71.5234 39.5859ZM81.0234 39.5859L79.8672 39.2891L80.4375 33.625H86.2734V34.9609H81.6641L81.3203 38.0547C81.5286 37.9349 81.7917 37.8229 82.1094 37.7188C82.4323 37.6146 82.8021 37.5625 83.2188 37.5625C83.7448 37.5625 84.2161 37.6536 84.6328 37.8359C85.0495 38.013 85.4036 38.2682 85.6953 38.6016C85.9922 38.9349 86.2188 39.3359 86.375 39.8047C86.5312 40.2734 86.6094 40.7969 86.6094 41.375C86.6094 41.9219 86.5339 42.4245 86.3828 42.8828C86.237 43.3411 86.0156 43.7422 85.7188 44.0859C85.4219 44.4245 85.0469 44.6875 84.5938 44.875C84.1458 45.0625 83.6172 45.1562 83.0078 45.1562C82.5495 45.1562 82.1146 45.0938 81.7031 44.9688C81.2969 44.8385 80.9323 44.6432 80.6094 44.3828C80.2917 44.1172 80.0312 43.7891 79.8281 43.3984C79.6302 43.0026 79.5052 42.5391 79.4531 42.0078H80.8281C80.8906 42.4349 81.0156 42.7943 81.2031 43.0859C81.3906 43.3776 81.6354 43.599 81.9375 43.75C82.2448 43.8958 82.6016 43.9688 83.0078 43.9688C83.3516 43.9688 83.6562 43.9089 83.9219 43.7891C84.1875 43.6693 84.4115 43.4974 84.5938 43.2734C84.776 43.0495 84.9141 42.7786 85.0078 42.4609C85.1068 42.1432 85.1562 41.7865 85.1562 41.3906C85.1562 41.0312 85.1068 40.6979 85.0078 40.3906C84.9089 40.0833 84.7604 39.8151 84.5625 39.5859C84.3698 39.3568 84.1328 39.1797 83.8516 39.0547C83.5703 38.9245 83.2474 38.8594 82.8828 38.8594C82.3984 38.8594 82.0312 38.9245 81.7812 39.0547C81.5365 39.1849 81.2839 39.362 81.0234 39.5859Z" fill="#381E72"/>
<path d="M33.5234 77.5859L32.3672 77.2891L32.9375 71.625H38.7734V72.9609H34.1641L33.8203 76.0547C34.0286 75.9349 34.2917 75.8229 34.6094 75.7188C34.9323 75.6146 35.3021 75.5625 35.7188 75.5625C36.2448 75.5625 36.7161 75.6536 37.1328 75.8359C37.5495 76.013 37.9036 76.2682 38.1953 76.6016C38.4922 76.9349 38.7188 77.3359 38.875 77.8047C39.0312 78.2734 39.1094 78.7969 39.1094 79.375C39.1094 79.9219 39.0339 80.4245 38.8828 80.8828C38.737 81.3411 38.5156 81.7422 38.2188 82.0859C37.9219 82.4245 37.5469 82.6875 37.0938 82.875C36.6458 83.0625 36.1172 83.1562 35.5078 83.1562C35.0495 83.1562 34.6146 83.0938 34.2031 82.9688C33.7969 82.8385 33.4323 82.6432 33.1094 82.3828C32.7917 82.1172 32.5312 81.7891 32.3281 81.3984C32.1302 81.0026 32.0052 80.5391 31.9531 80.0078H33.3281C33.3906 80.4349 33.5156 80.7943 33.7031 81.0859C33.8906 81.3776 34.1354 81.599 34.4375 81.75C34.7448 81.8958 35.1016 81.9688 35.5078 81.9688C35.8516 81.9688 36.1562 81.9089 36.4219 81.7891C36.6875 81.6693 36.9115 81.4974 37.0938 81.2734C37.276 81.0495 37.4141 80.7786 37.5078 80.4609C37.6068 80.1432 37.6562 79.7865 37.6562 79.3906C37.6562 79.0312 37.6068 78.6979 37.5078 78.3906C37.4089 78.0833 37.2604 77.8151 37.0625 77.5859C36.8698 77.3568 36.6328 77.1797 36.3516 77.0547C36.0703 76.9245 35.7474 76.8594 35.3828 76.8594C34.8984 76.8594 34.5312 76.9245 34.2812 77.0547C34.0365 77.1849 33.7839 77.362 33.5234 77.5859ZM48.3359 76.4062V78.1406C48.3359 79.0729 48.2526 79.8594 48.0859 80.5C47.9193 81.1406 47.6797 81.6562 47.3672 82.0469C47.0547 82.4375 46.6771 82.7214 46.2344 82.8984C45.7969 83.0703 45.3021 83.1562 44.75 83.1562C44.3125 83.1562 43.9089 83.1016 43.5391 82.9922C43.1693 82.8828 42.8359 82.7083 42.5391 82.4688C42.2474 82.224 41.9974 81.9062 41.7891 81.5156C41.5807 81.125 41.4219 80.651 41.3125 80.0938C41.2031 79.5365 41.1484 78.8854 41.1484 78.1406V76.4062C41.1484 75.474 41.2318 74.6927 41.3984 74.0625C41.5703 73.4323 41.8125 72.9271 42.125 72.5469C42.4375 72.1615 42.8125 71.8854 43.25 71.7188C43.6927 71.5521 44.1875 71.4688 44.7344 71.4688C45.1771 71.4688 45.5833 71.5234 45.9531 71.6328C46.3281 71.737 46.6615 71.9062 46.9531 72.1406C47.2448 72.3698 47.4922 72.6771 47.6953 73.0625C47.9036 73.4427 48.0625 73.9089 48.1719 74.4609C48.2812 75.013 48.3359 75.6615 48.3359 76.4062ZM46.8828 78.375V76.1641C46.8828 75.6536 46.8516 75.2057 46.7891 74.8203C46.7318 74.4297 46.6458 74.0964 46.5312 73.8203C46.4167 73.5443 46.2708 73.3203 46.0938 73.1484C45.9219 72.9766 45.7214 72.8516 45.4922 72.7734C45.2682 72.6901 45.0156 72.6484 44.7344 72.6484C44.3906 72.6484 44.0859 72.7135 43.8203 72.8438C43.5547 72.9688 43.3307 73.1693 43.1484 73.4453C42.9714 73.7214 42.8359 74.0833 42.7422 74.5312C42.6484 74.9792 42.6016 75.5234 42.6016 76.1641V78.375C42.6016 78.8854 42.6302 79.3359 42.6875 79.7266C42.75 80.1172 42.8411 80.4557 42.9609 80.7422C43.0807 81.0234 43.2266 81.2552 43.3984 81.4375C43.5703 81.6198 43.7682 81.7552 43.9922 81.8438C44.2214 81.9271 44.474 81.9688 44.75 81.9688C45.1042 81.9688 45.4141 81.901 45.6797 81.7656C45.9453 81.6302 46.1667 81.4193 46.3438 81.1328C46.526 80.8411 46.6615 80.4688 46.75 80.0156C46.8385 79.5573 46.8828 79.0104 46.8828 78.375Z" fill="#381E72"/>
<path d="M25.3828 129.172V130.359H17.1641V129.508L22.2578 121.625H23.4375L22.1719 123.906L18.8047 129.172H25.3828ZM23.7969 121.625V133H22.3516V121.625H23.7969ZM29.0234 127.586L27.8672 127.289L28.4375 121.625H34.2734V122.961H29.6641L29.3203 126.055C29.5286 125.935 29.7917 125.823 30.1094 125.719C30.4323 125.615 30.8021 125.562 31.2188 125.562C31.7448 125.562 32.2161 125.654 32.6328 125.836C33.0495 126.013 33.4036 126.268 33.6953 126.602C33.9922 126.935 34.2188 127.336 34.375 127.805C34.5312 128.273 34.6094 128.797 34.6094 129.375C34.6094 129.922 34.5339 130.424 34.3828 130.883C34.237 131.341 34.0156 131.742 33.7188 132.086C33.4219 132.424 33.0469 132.688 32.5938 132.875C32.1458 133.062 31.6172 133.156 31.0078 133.156C30.5495 133.156 30.1146 133.094 29.7031 132.969C29.2969 132.839 28.9323 132.643 28.6094 132.383C28.2917 132.117 28.0312 131.789 27.8281 131.398C27.6302 131.003 27.5052 130.539 27.4531 130.008H28.8281C28.8906 130.435 29.0156 130.794 29.2031 131.086C29.3906 131.378 29.6354 131.599 29.9375 131.75C30.2448 131.896 30.6016 131.969 31.0078 131.969C31.3516 131.969 31.6562 131.909 31.9219 131.789C32.1875 131.669 32.4115 131.497 32.5938 131.273C32.776 131.049 32.9141 130.779 33.0078 130.461C33.1068 130.143 33.1562 129.786 33.1562 129.391C33.1562 129.031 33.1068 128.698 33.0078 128.391C32.9089 128.083 32.7604 127.815 32.5625 127.586C32.3698 127.357 32.1328 127.18 31.8516 127.055C31.5703 126.924 31.2474 126.859 30.8828 126.859C30.3984 126.859 30.0312 126.924 29.7812 127.055C29.5365 127.185 29.2839 127.362 29.0234 127.586Z" fill="#381E72"/>
<path d="M39.3828 179.172V180.359H31.1641V179.508L36.2578 171.625H37.4375L36.1719 173.906L32.8047 179.172H39.3828ZM37.7969 171.625V183H36.3516V171.625H37.7969ZM48.3359 176.406V178.141C48.3359 179.073 48.2526 179.859 48.0859 180.5C47.9193 181.141 47.6797 181.656 47.3672 182.047C47.0547 182.438 46.6771 182.721 46.2344 182.898C45.7969 183.07 45.3021 183.156 44.75 183.156C44.3125 183.156 43.9089 183.102 43.5391 182.992C43.1693 182.883 42.8359 182.708 42.5391 182.469C42.2474 182.224 41.9974 181.906 41.7891 181.516C41.5807 181.125 41.4219 180.651 41.3125 180.094C41.2031 179.536 41.1484 178.885 41.1484 178.141V176.406C41.1484 175.474 41.2318 174.693 41.3984 174.062C41.5703 173.432 41.8125 172.927 42.125 172.547C42.4375 172.161 42.8125 171.885 43.25 171.719C43.6927 171.552 44.1875 171.469 44.7344 171.469C45.1771 171.469 45.5833 171.523 45.9531 171.633C46.3281 171.737 46.6615 171.906 46.9531 172.141C47.2448 172.37 47.4922 172.677 47.6953 173.062C47.9036 173.443 48.0625 173.909 48.1719 174.461C48.2812 175.013 48.3359 175.661 48.3359 176.406ZM46.8828 178.375V176.164C46.8828 175.654 46.8516 175.206 46.7891 174.82C46.7318 174.43 46.6458 174.096 46.5312 173.82C46.4167 173.544 46.2708 173.32 46.0938 173.148C45.9219 172.977 45.7214 172.852 45.4922 172.773C45.2682 172.69 45.0156 172.648 44.7344 172.648C44.3906 172.648 44.0859 172.714 43.8203 172.844C43.5547 172.969 43.3307 173.169 43.1484 173.445C42.9714 173.721 42.8359 174.083 42.7422 174.531C42.6484 174.979 42.6016 175.523 42.6016 176.164V178.375C42.6016 178.885 42.6302 179.336 42.6875 179.727C42.75 180.117 42.8411 180.456 42.9609 180.742C43.0807 181.023 43.2266 181.255 43.3984 181.438C43.5703 181.62 43.7682 181.755 43.9922 181.844C44.2214 181.927 44.474 181.969 44.75 181.969C45.1042 181.969 45.4141 181.901 45.6797 181.766C45.9453 181.63 46.1667 181.419 46.3438 181.133C46.526 180.841 46.6615 180.469 46.75 180.016C46.8385 179.557 46.8828 179.01 46.8828 178.375Z" fill="#381E72"/>
<g clip-path="url(#clip0_3_147)">
<path d="M71.8047 214.602H72.8359C73.3411 214.602 73.7578 214.518 74.0859 214.352C74.4193 214.18 74.6667 213.948 74.8281 213.656C74.9948 213.359 75.0781 213.026 75.0781 212.656C75.0781 212.219 75.0052 211.852 74.8594 211.555C74.7135 211.258 74.4948 211.034 74.2031 210.883C73.9115 210.732 73.5417 210.656 73.0938 210.656C72.6875 210.656 72.3281 210.737 72.0156 210.898C71.7083 211.055 71.4661 211.279 71.2891 211.57C71.1172 211.862 71.0312 212.206 71.0312 212.602H69.5859C69.5859 212.023 69.7318 211.497 70.0234 211.023C70.3151 210.549 70.724 210.172 71.25 209.891C71.7812 209.609 72.3958 209.469 73.0938 209.469C73.7812 209.469 74.3828 209.591 74.8984 209.836C75.4141 210.076 75.8151 210.435 76.1016 210.914C76.388 211.388 76.5312 211.979 76.5312 212.688C76.5312 212.974 76.4635 213.281 76.3281 213.609C76.1979 213.932 75.9922 214.234 75.7109 214.516C75.4349 214.797 75.0755 215.029 74.6328 215.211C74.1901 215.388 73.6589 215.477 73.0391 215.477H71.8047V214.602ZM71.8047 215.789V214.922H73.0391C73.763 214.922 74.362 215.008 74.8359 215.18C75.3099 215.352 75.6823 215.581 75.9531 215.867C76.2292 216.154 76.4219 216.469 76.5312 216.813C76.6458 217.151 76.7031 217.49 76.7031 217.828C76.7031 218.359 76.612 218.831 76.4297 219.242C76.2526 219.654 76 220.003 75.6719 220.289C75.349 220.576 74.9688 220.792 74.5312 220.938C74.0938 221.083 73.6172 221.156 73.1016 221.156C72.6068 221.156 72.1406 221.086 71.7031 220.945C71.2708 220.805 70.888 220.602 70.5547 220.336C70.2214 220.065 69.9609 219.734 69.7734 219.344C69.5859 218.948 69.4922 218.497 69.4922 217.992H70.9375C70.9375 218.388 71.0234 218.734 71.1953 219.031C71.3724 219.328 71.6224 219.56 71.9453 219.727C72.2734 219.888 72.6589 219.969 73.1016 219.969C73.5443 219.969 73.9245 219.893 74.2422 219.742C74.5651 219.586 74.8125 219.352 74.9844 219.039C75.1615 218.727 75.25 218.333 75.25 217.859C75.25 217.385 75.151 216.997 74.9531 216.695C74.7552 216.388 74.474 216.161 74.1094 216.016C73.75 215.865 73.3255 215.789 72.8359 215.789H71.8047ZM81.0234 215.586L79.8672 215.289L80.4375 209.625H86.2734V210.961H81.6641L81.3203 214.055C81.5286 213.935 81.7917 213.823 82.1094 213.719C82.4323 213.615 82.8021 213.563 83.2188 213.563C83.7448 213.563 84.2161 213.654 84.6328 213.836C85.0495 214.013 85.4036 214.268 85.6953 214.602C85.9922 214.935 86.2188 215.336 86.375 215.805C86.5312 216.273 86.6094 216.797 86.6094 217.375C86.6094 217.922 86.5339 218.424 86.3828 218.883C86.237 219.341 86.0156 219.742 85.7188 220.086C85.4219 220.424 85.0469 220.688 84.5938 220.875C84.1458 221.063 83.6172 221.156 83.0078 221.156C82.5495 221.156 82.1146 221.094 81.7031 220.969C81.2969 220.839 80.9323 220.643 80.6094 220.383C80.2917 220.117 80.0312 219.789 79.8281 219.398C79.6302 219.003 79.5052 218.539 79.4531 218.008H80.8281C80.8906 218.435 81.0156 218.794 81.2031 219.086C81.3906 219.378 81.6354 219.599 81.9375 219.75C82.2448 219.896 82.6016 219.969 83.0078 219.969C83.3516 219.969 83.6562 219.909 83.9219 219.789C84.1875 219.669 84.4115 219.497 84.5938 219.273C84.776 219.049 84.9141 218.779 85.0078 218.461C85.1068 218.143 85.1562 217.786 85.1562 217.391C85.1562 217.031 85.1068 216.698 85.0078 216.391C84.9089 216.083 84.7604 215.815 84.5625 215.586C84.3698 215.357 84.1328 215.18 83.8516 215.055C83.5703 214.924 83.2474 214.859 82.8828 214.859C82.3984 214.859 82.0312 214.924 81.7812 215.055C81.5365 215.185 81.2839 215.362 81.0234 215.586Z" fill="#381E72"/>
</g>
<path d="M121.805 228.602H122.836C123.341 228.602 123.758 228.518 124.086 228.352C124.419 228.18 124.667 227.948 124.828 227.656C124.995 227.359 125.078 227.026 125.078 226.656C125.078 226.219 125.005 225.852 124.859 225.555C124.714 225.258 124.495 225.034 124.203 224.883C123.911 224.732 123.542 224.656 123.094 224.656C122.688 224.656 122.328 224.737 122.016 224.898C121.708 225.055 121.466 225.279 121.289 225.57C121.117 225.862 121.031 226.206 121.031 226.602H119.586C119.586 226.023 119.732 225.497 120.023 225.023C120.315 224.549 120.724 224.172 121.25 223.891C121.781 223.609 122.396 223.469 123.094 223.469C123.781 223.469 124.383 223.591 124.898 223.836C125.414 224.076 125.815 224.435 126.102 224.914C126.388 225.388 126.531 225.979 126.531 226.688C126.531 226.974 126.464 227.281 126.328 227.609C126.198 227.932 125.992 228.234 125.711 228.516C125.435 228.797 125.076 229.029 124.633 229.211C124.19 229.388 123.659 229.477 123.039 229.477H121.805V228.602ZM121.805 229.789V228.922H123.039C123.763 228.922 124.362 229.008 124.836 229.18C125.31 229.352 125.682 229.581 125.953 229.867C126.229 230.154 126.422 230.469 126.531 230.812C126.646 231.151 126.703 231.49 126.703 231.828C126.703 232.359 126.612 232.831 126.43 233.242C126.253 233.654 126 234.003 125.672 234.289C125.349 234.576 124.969 234.792 124.531 234.938C124.094 235.083 123.617 235.156 123.102 235.156C122.607 235.156 122.141 235.086 121.703 234.945C121.271 234.805 120.888 234.602 120.555 234.336C120.221 234.065 119.961 233.734 119.773 233.344C119.586 232.948 119.492 232.497 119.492 231.992H120.938C120.938 232.388 121.023 232.734 121.195 233.031C121.372 233.328 121.622 233.56 121.945 233.727C122.273 233.888 122.659 233.969 123.102 233.969C123.544 233.969 123.924 233.893 124.242 233.742C124.565 233.586 124.812 233.352 124.984 233.039C125.161 232.727 125.25 232.333 125.25 231.859C125.25 231.385 125.151 230.997 124.953 230.695C124.755 230.388 124.474 230.161 124.109 230.016C123.75 229.865 123.326 229.789 122.836 229.789H121.805ZM136.336 228.406V230.141C136.336 231.073 136.253 231.859 136.086 232.5C135.919 233.141 135.68 233.656 135.367 234.047C135.055 234.438 134.677 234.721 134.234 234.898C133.797 235.07 133.302 235.156 132.75 235.156C132.312 235.156 131.909 235.102 131.539 234.992C131.169 234.883 130.836 234.708 130.539 234.469C130.247 234.224 129.997 233.906 129.789 233.516C129.581 233.125 129.422 232.651 129.312 232.094C129.203 231.536 129.148 230.885 129.148 230.141V228.406C129.148 227.474 129.232 226.693 129.398 226.062C129.57 225.432 129.812 224.927 130.125 224.547C130.438 224.161 130.812 223.885 131.25 223.719C131.693 223.552 132.188 223.469 132.734 223.469C133.177 223.469 133.583 223.523 133.953 223.633C134.328 223.737 134.661 223.906 134.953 224.141C135.245 224.37 135.492 224.677 135.695 225.062C135.904 225.443 136.062 225.909 136.172 226.461C136.281 227.013 136.336 227.661 136.336 228.406ZM134.883 230.375V228.164C134.883 227.654 134.852 227.206 134.789 226.82C134.732 226.43 134.646 226.096 134.531 225.82C134.417 225.544 134.271 225.32 134.094 225.148C133.922 224.977 133.721 224.852 133.492 224.773C133.268 224.69 133.016 224.648 132.734 224.648C132.391 224.648 132.086 224.714 131.82 224.844C131.555 224.969 131.331 225.169 131.148 225.445C130.971 225.721 130.836 226.083 130.742 226.531C130.648 226.979 130.602 227.523 130.602 228.164V230.375C130.602 230.885 130.63 231.336 130.688 231.727C130.75 232.117 130.841 232.456 130.961 232.742C131.081 233.023 131.227 233.255 131.398 233.438C131.57 233.62 131.768 233.755 131.992 233.844C132.221 233.927 132.474 233.969 132.75 233.969C133.104 233.969 133.414 233.901 133.68 233.766C133.945 233.63 134.167 233.419 134.344 233.133C134.526 232.841 134.661 232.469 134.75 232.016C134.839 231.557 134.883 231.01 134.883 230.375Z" fill="#381E72"/>
<path d="M177.148 219.812V221H169.703V219.961L173.43 215.812C173.888 215.302 174.242 214.87 174.492 214.516C174.747 214.156 174.924 213.836 175.023 213.555C175.128 213.268 175.18 212.977 175.18 212.68C175.18 212.305 175.102 211.966 174.945 211.664C174.794 211.357 174.57 211.112 174.273 210.93C173.977 210.747 173.617 210.656 173.195 210.656C172.69 210.656 172.268 210.755 171.93 210.953C171.596 211.146 171.346 211.417 171.18 211.766C171.013 212.115 170.93 212.516 170.93 212.969H169.484C169.484 212.328 169.625 211.742 169.906 211.211C170.188 210.68 170.604 210.258 171.156 209.945C171.708 209.628 172.388 209.469 173.195 209.469C173.914 209.469 174.529 209.596 175.039 209.852C175.549 210.102 175.94 210.456 176.211 210.914C176.487 211.367 176.625 211.898 176.625 212.508C176.625 212.841 176.568 213.18 176.453 213.523C176.344 213.862 176.19 214.201 175.992 214.539C175.799 214.878 175.573 215.211 175.312 215.539C175.057 215.867 174.784 216.19 174.492 216.508L171.445 219.812H177.148ZM181.023 215.586L179.867 215.289L180.438 209.625H186.273V210.961H181.664L181.32 214.055C181.529 213.935 181.792 213.823 182.109 213.719C182.432 213.615 182.802 213.562 183.219 213.562C183.745 213.562 184.216 213.654 184.633 213.836C185.049 214.013 185.404 214.268 185.695 214.602C185.992 214.935 186.219 215.336 186.375 215.805C186.531 216.273 186.609 216.797 186.609 217.375C186.609 217.922 186.534 218.424 186.383 218.883C186.237 219.341 186.016 219.742 185.719 220.086C185.422 220.424 185.047 220.688 184.594 220.875C184.146 221.062 183.617 221.156 183.008 221.156C182.549 221.156 182.115 221.094 181.703 220.969C181.297 220.839 180.932 220.643 180.609 220.383C180.292 220.117 180.031 219.789 179.828 219.398C179.63 219.003 179.505 218.539 179.453 218.008H180.828C180.891 218.435 181.016 218.794 181.203 219.086C181.391 219.378 181.635 219.599 181.938 219.75C182.245 219.896 182.602 219.969 183.008 219.969C183.352 219.969 183.656 219.909 183.922 219.789C184.188 219.669 184.411 219.497 184.594 219.273C184.776 219.049 184.914 218.779 185.008 218.461C185.107 218.143 185.156 217.786 185.156 217.391C185.156 217.031 185.107 216.698 185.008 216.391C184.909 216.083 184.76 215.815 184.562 215.586C184.37 215.357 184.133 215.18 183.852 215.055C183.57 214.924 183.247 214.859 182.883 214.859C182.398 214.859 182.031 214.924 181.781 215.055C181.536 215.185 181.284 215.362 181.023 215.586Z" fill="#381E72"/>
<path d="M215.148 181.812V183H207.703V181.961L211.43 177.812C211.888 177.302 212.242 176.87 212.492 176.516C212.747 176.156 212.924 175.836 213.023 175.555C213.128 175.268 213.18 174.977 213.18 174.68C213.18 174.305 213.102 173.966 212.945 173.664C212.794 173.357 212.57 173.112 212.273 172.93C211.977 172.747 211.617 172.656 211.195 172.656C210.69 172.656 210.268 172.755 209.93 172.953C209.596 173.146 209.346 173.417 209.18 173.766C209.013 174.115 208.93 174.516 208.93 174.969H207.484C207.484 174.328 207.625 173.742 207.906 173.211C208.188 172.68 208.604 172.258 209.156 171.945C209.708 171.628 210.388 171.469 211.195 171.469C211.914 171.469 212.529 171.596 213.039 171.852C213.549 172.102 213.94 172.456 214.211 172.914C214.487 173.367 214.625 173.898 214.625 174.508C214.625 174.841 214.568 175.18 214.453 175.523C214.344 175.862 214.19 176.201 213.992 176.539C213.799 176.878 213.573 177.211 213.312 177.539C213.057 177.867 212.784 178.19 212.492 178.508L209.445 181.812H215.148ZM224.336 176.406V178.141C224.336 179.073 224.253 179.859 224.086 180.5C223.919 181.141 223.68 181.656 223.367 182.047C223.055 182.438 222.677 182.721 222.234 182.898C221.797 183.07 221.302 183.156 220.75 183.156C220.312 183.156 219.909 183.102 219.539 182.992C219.169 182.883 218.836 182.708 218.539 182.469C218.247 182.224 217.997 181.906 217.789 181.516C217.581 181.125 217.422 180.651 217.312 180.094C217.203 179.536 217.148 178.885 217.148 178.141V176.406C217.148 175.474 217.232 174.693 217.398 174.062C217.57 173.432 217.812 172.927 218.125 172.547C218.438 172.161 218.812 171.885 219.25 171.719C219.693 171.552 220.188 171.469 220.734 171.469C221.177 171.469 221.583 171.523 221.953 171.633C222.328 171.737 222.661 171.906 222.953 172.141C223.245 172.37 223.492 172.677 223.695 173.062C223.904 173.443 224.062 173.909 224.172 174.461C224.281 175.013 224.336 175.661 224.336 176.406ZM222.883 178.375V176.164C222.883 175.654 222.852 175.206 222.789 174.82C222.732 174.43 222.646 174.096 222.531 173.82C222.417 173.544 222.271 173.32 222.094 173.148C221.922 172.977 221.721 172.852 221.492 172.773C221.268 172.69 221.016 172.648 220.734 172.648C220.391 172.648 220.086 172.714 219.82 172.844C219.555 172.969 219.331 173.169 219.148 173.445C218.971 173.721 218.836 174.083 218.742 174.531C218.648 174.979 218.602 175.523 218.602 176.164V178.375C218.602 178.885 218.63 179.336 218.688 179.727C218.75 180.117 218.841 180.456 218.961 180.742C219.081 181.023 219.227 181.255 219.398 181.438C219.57 181.62 219.768 181.755 219.992 181.844C220.221 181.927 220.474 181.969 220.75 181.969C221.104 181.969 221.414 181.901 221.68 181.766C221.945 181.63 222.167 181.419 222.344 181.133C222.526 180.841 222.661 180.469 222.75 180.016C222.839 179.557 222.883 179.01 222.883 178.375Z" fill="#381E72"/>
<path d="M226.445 121.562V133H225V123.367L222.086 124.43V123.125L226.219 121.562H226.445ZM233.023 127.586L231.867 127.289L232.438 121.625H238.273V122.961H233.664L233.32 126.055C233.529 125.935 233.792 125.823 234.109 125.719C234.432 125.615 234.802 125.562 235.219 125.562C235.745 125.562 236.216 125.654 236.633 125.836C237.049 126.013 237.404 126.268 237.695 126.602C237.992 126.935 238.219 127.336 238.375 127.805C238.531 128.273 238.609 128.797 238.609 129.375C238.609 129.922 238.534 130.424 238.383 130.883C238.237 131.341 238.016 131.742 237.719 132.086C237.422 132.424 237.047 132.688 236.594 132.875C236.146 133.062 235.617 133.156 235.008 133.156C234.549 133.156 234.115 133.094 233.703 132.969C233.297 132.839 232.932 132.643 232.609 132.383C232.292 132.117 232.031 131.789 231.828 131.398C231.63 131.003 231.505 130.539 231.453 130.008H232.828C232.891 130.435 233.016 130.794 233.203 131.086C233.391 131.378 233.635 131.599 233.938 131.75C234.245 131.896 234.602 131.969 235.008 131.969C235.352 131.969 235.656 131.909 235.922 131.789C236.188 131.669 236.411 131.497 236.594 131.273C236.776 131.049 236.914 130.779 237.008 130.461C237.107 130.143 237.156 129.786 237.156 129.391C237.156 129.031 237.107 128.698 237.008 128.391C236.909 128.083 236.76 127.815 236.562 127.586C236.37 127.357 236.133 127.18 235.852 127.055C235.57 126.924 235.247 126.859 234.883 126.859C234.398 126.859 234.031 126.924 233.781 127.055C233.536 127.185 233.284 127.362 233.023 127.586Z" fill="#381E72"/>
<path d="M212.445 71.5625V83H211V73.3672L208.086 74.4297V73.125L212.219 71.5625H212.445ZM224.336 76.4062V78.1406C224.336 79.0729 224.253 79.8594 224.086 80.5C223.919 81.1406 223.68 81.6562 223.367 82.0469C223.055 82.4375 222.677 82.7214 222.234 82.8984C221.797 83.0703 221.302 83.1562 220.75 83.1562C220.312 83.1562 219.909 83.1016 219.539 82.9922C219.169 82.8828 218.836 82.7083 218.539 82.4688C218.247 82.224 217.997 81.9062 217.789 81.5156C217.581 81.125 217.422 80.651 217.312 80.0938C217.203 79.5365 217.148 78.8854 217.148 78.1406V76.4062C217.148 75.474 217.232 74.6927 217.398 74.0625C217.57 73.4323 217.812 72.9271 218.125 72.5469C218.438 72.1615 218.812 71.8854 219.25 71.7188C219.693 71.5521 220.188 71.4688 220.734 71.4688C221.177 71.4688 221.583 71.5234 221.953 71.6328C222.328 71.737 222.661 71.9062 222.953 72.1406C223.245 72.3698 223.492 72.6771 223.695 73.0625C223.904 73.4427 224.062 73.9089 224.172 74.4609C224.281 75.013 224.336 75.6615 224.336 76.4062ZM222.883 78.375V76.1641C222.883 75.6536 222.852 75.2057 222.789 74.8203C222.732 74.4297 222.646 74.0964 222.531 73.8203C222.417 73.5443 222.271 73.3203 222.094 73.1484C221.922 72.9766 221.721 72.8516 221.492 72.7734C221.268 72.6901 221.016 72.6484 220.734 72.6484C220.391 72.6484 220.086 72.7135 219.82 72.8438C219.555 72.9688 219.331 73.1693 219.148 73.4453C218.971 73.7214 218.836 74.0833 218.742 74.5312C218.648 74.9792 218.602 75.5234 218.602 76.1641V78.375C218.602 78.8854 218.63 79.3359 218.688 79.7266C218.75 80.1172 218.841 80.4557 218.961 80.7422C219.081 81.0234 219.227 81.2552 219.398 81.4375C219.57 81.6198 219.768 81.7552 219.992 81.8438C220.221 81.9271 220.474 81.9688 220.75 81.9688C221.104 81.9688 221.414 81.901 221.68 81.7656C221.945 81.6302 222.167 81.4193 222.344 81.1328C222.526 80.8411 222.661 80.4688 222.75 80.0156C222.839 79.5573 222.883 79.0104 222.883 78.375Z" fill="#381E72"/>
<path d="M176.273 39.5859L175.117 39.2891L175.688 33.625H181.523V34.9609H176.914L176.57 38.0547C176.779 37.9349 177.042 37.8229 177.359 37.7188C177.682 37.6146 178.052 37.5625 178.469 37.5625C178.995 37.5625 179.466 37.6536 179.883 37.8359C180.299 38.013 180.654 38.2682 180.945 38.6016C181.242 38.9349 181.469 39.3359 181.625 39.8047C181.781 40.2734 181.859 40.7969 181.859 41.375C181.859 41.9219 181.784 42.4245 181.633 42.8828C181.487 43.3411 181.266 43.7422 180.969 44.0859C180.672 44.4245 180.297 44.6875 179.844 44.875C179.396 45.0625 178.867 45.1562 178.258 45.1562C177.799 45.1562 177.365 45.0938 176.953 44.9688C176.547 44.8385 176.182 44.6432 175.859 44.3828C175.542 44.1172 175.281 43.7891 175.078 43.3984C174.88 43.0026 174.755 42.5391 174.703 42.0078H176.078C176.141 42.4349 176.266 42.7943 176.453 43.0859C176.641 43.3776 176.885 43.599 177.188 43.75C177.495 43.8958 177.852 43.9688 178.258 43.9688C178.602 43.9688 178.906 43.9089 179.172 43.7891C179.438 43.6693 179.661 43.4974 179.844 43.2734C180.026 43.0495 180.164 42.7786 180.258 42.4609C180.357 42.1432 180.406 41.7865 180.406 41.3906C180.406 41.0312 180.357 40.6979 180.258 40.3906C180.159 40.0833 180.01 39.8151 179.812 39.5859C179.62 39.3568 179.383 39.1797 179.102 39.0547C178.82 38.9245 178.497 38.8594 178.133 38.8594C177.648 38.8594 177.281 38.9245 177.031 39.0547C176.786 39.1849 176.534 39.362 176.273 39.5859Z" fill="#381E72"/>
<rect x="0.5" y="0.5" width="255" height="255" rx="127.5" stroke="#41CD52"/>
<defs>
<clipPath id="clip0_3_147">
<rect x="54" y="192" width="48" height="48" rx="24" fill="white"/>
</clipPath>
</defs>
</svg>
