<svg width="38" height="28" viewBox="0 0 38 28" fill="none" xmlns="http://www.w3.org/2000/svg">
<g clip-path="url(#clip0_570_663)">
<rect x="5.98047" y="3.48547" width="26.9757" height="22.0268" fill="white"/>
<path d="M13.9078 7.24292C12.4318 7.24292 11.4138 7.73528 10.8539 8.73297C10.3068 9.73066 10.0269 11.3114 10.0269 13.5011C10.0269 15.6779 10.2941 17.2457 10.8285 18.1786C11.3629 19.1115 12.3936 19.5909 13.9078 19.5909C15.422 19.5909 16.4399 19.1245 16.9744 18.2045C17.4961 17.2846 17.7633 15.7168 17.7633 13.527C17.7633 11.3244 17.4961 9.73066 16.9489 8.73297C16.4018 7.73528 15.3838 7.24292 13.9078 7.24292Z" fill="#41CD52"/>
<path d="M33.7451 0H32.4472H5.17882L0 5.27348V22.9079V24.3461V28H3.58828H4.88616H32.1545L37.3333 22.7265V5.09209V3.65386V0H33.7451ZM19.8882 24.1388L17.4579 25.292L15.3583 21.7807C15.0529 21.8714 14.5821 21.9232 13.9205 21.9232C11.4647 21.9232 9.74688 21.2494 8.77982 19.9019C7.81277 18.5544 7.32924 16.4165 7.32924 13.5141C7.32924 10.5988 7.82549 8.43498 8.80527 7.02267C9.78505 5.61037 11.4901 4.89773 13.9205 4.89773C16.3508 4.89773 18.0559 5.59741 19.023 7.00972C20.0027 8.40907 20.4863 10.5729 20.4863 13.5012C20.4863 15.4317 20.2827 16.9866 19.8882 18.1657C19.481 19.3577 18.8321 20.2647 17.9159 20.8866L19.8882 24.1388ZM27.2556 21.6252C25.9196 21.6252 25.0034 21.3142 24.5072 20.6923C24.0109 20.0703 23.7564 18.8913 23.7564 17.155V11.5576H21.9496V9.32901H23.7564V5.83063H26.314V9.32901H29.5715V11.5706H26.314V16.87C26.314 17.8547 26.3904 18.5025 26.5303 18.8135C26.6703 19.1374 27.0393 19.2929 27.6119 19.2929L29.546 19.2152L29.6605 21.3142C28.6171 21.5215 27.8155 21.6252 27.2556 21.6252Z" fill="#41CD52"/>
</g>
<defs>
<clipPath id="clip0_570_663">
<rect width="37.3333" height="28" fill="white"/>
</clipPath>
</defs>
</svg>
