<svg width="24" height="24" viewBox="0 0 24 24" fill="none" xmlns="http://www.w3.org/2000/svg">
<path d="M8.66663 19C8.29626 19 7.94904 18.925 7.62496 18.775C7.30089 18.625 7.037 18.4167 6.8333 18.15L2.97121 13.2358C2.4012 12.5105 2.4012 11.4895 2.97121 10.7642L6.8333 5.85C7.037 5.58333 7.30089 5.375 7.62496 5.225C7.94904 5.075 8.29626 5 8.66663 5H19.7777C20.3889 5 20.912 5.19583 21.3472 5.5875C21.7824 5.97917 22 6.45 22 7V17C22 17.55 21.7824 18.0208 21.3472 18.4125C20.912 18.8042 20.3889 19 19.7777 19H8.66663ZM8.66663 17H19.7777V7H8.66663L4.72218 12L8.66663 17Z" fill="#0D0D0D"/>
<path fill-rule="evenodd" clip-rule="evenodd" d="M21 6.1524H8L3 12L8 18H21V6.1524ZM13.1 15.3L15 13.4L16.9 15.3C17.2866 15.6866 17.9134 15.6866 18.3 15.3C18.6866 14.9134 18.6866 14.2866 18.3 13.9L16.4 12L18.3 10.1C18.6866 9.7134 18.6866 9.0866 18.3 8.7C17.9134 8.3134 17.2866 8.3134 16.9 8.7L15 10.6L13.1 8.7C12.7134 8.3134 12.0866 8.3134 11.7 8.7C11.3134 9.0866 11.3134 9.7134 11.7 10.1L13.6 12L11.7 13.9C11.3134 14.2866 11.3134 14.9134 11.7 15.3C12.0866 15.6866 12.7134 15.6866 13.1 15.3Z" fill="#0D0D0D"/>
</svg>
