<svg width="49" height="36" viewBox="0 0 49 36" fill="none" xmlns="http://www.w3.org/2000/svg">
<path d="M6.79721 0L0 6.78019V36H42.2028L49 29.2198V0L6.79721 0Z" fill="white"/>
<path d="M18.2373 28.187C15.014 28.187 12.7594 27.3207 11.4902 25.5882C10.2209 23.8556 9.5863 21.1069 9.5863 17.3753C9.5863 13.627 10.2376 10.845 11.5236 9.02916C12.8095 7.21334 15.0641 6.29709 18.2373 6.29709C21.4271 6.29709 23.665 7.19668 24.9343 9.0125C26.2202 10.8117 26.8549 13.5937 26.8549 17.3586C26.8549 19.8408 26.5877 21.8399 26.0699 23.3559C25.5355 24.8885 24.6838 26.0546 23.4813 26.8542L26.0866 31.0356L22.8968 32.5183L20.1412 28.0037C19.7404 28.137 19.1057 28.187 18.2373 28.187ZM14.2124 23.3725C14.9138 24.572 16.2666 25.1883 18.254 25.1883C20.2414 25.1883 21.5774 24.5886 22.2789 23.4058C22.9636 22.2231 23.3143 20.2073 23.3143 17.392C23.3143 14.5599 22.9636 12.5109 22.2455 11.2281C21.5273 9.9454 20.208 9.31236 18.254 9.31236C16.3167 9.31236 14.9806 9.9454 14.2458 11.2281C13.5277 12.5109 13.1603 14.5433 13.1603 17.3586C13.1603 20.1573 13.511 22.1731 14.2124 23.3725Z" fill="black"/>
<path d="M38.8125 14.8598H34.5372V21.6733C34.5372 22.9394 34.6374 23.7723 34.8211 24.1888C35.0048 24.6053 35.4891 24.8052 36.2406 24.8052L38.7791 24.7052L38.9295 27.404C37.5433 27.6705 36.4911 27.8038 35.7563 27.8038C34.0027 27.8038 32.8003 27.404 32.1489 26.6043C31.4976 25.8047 31.1636 24.2887 31.1636 22.0564V14.8764H28.8088V11.9944H31.1803V7.51318H34.5372V11.9944H38.8125V14.8598Z" fill="black"/>
</svg>
