<svg width="18" height="18" viewBox="0 0 18 18" fill="none" xmlns="http://www.w3.org/2000/svg">
<path d="M8.5 13.5H9.5V9.5H13.5V8.5H9.5V4.5H8.5V8.5H4.5V9.5H8.5V13.5ZM9 18C7.75 18 6.57933 17.7627 5.488 17.288C4.396 16.8127 3.446 16.1707 2.638 15.362C1.82933 14.554 1.18733 13.604 0.712 12.512C0.237333 11.4207 0 10.25 0 9C0 7.75 0.237333 6.579 0.712 5.487C1.18733 4.39567 1.82933 3.44567 2.638 2.637C3.446 1.829 4.396 1.18733 5.488 0.712C6.57933 0.237333 7.75 0 9 0C10.25 0 11.421 0.237333 12.513 0.712C13.6043 1.18733 14.5543 1.829 15.363 2.637C16.171 3.44567 16.8127 4.39567 17.288 5.487C17.7627 6.579 18 7.75 18 9C18 10.25 17.7627 11.4207 17.288 12.512C16.8127 13.604 16.171 14.554 15.363 15.362C14.5543 16.1707 13.6043 16.8127 12.513 17.288C11.421 17.7627 10.25 18 9 18ZM9 17C11.2333 17 13.125 16.225 14.675 14.675C16.225 13.125 17 11.2333 17 9C17 6.76667 16.225 4.875 14.675 3.325C13.125 1.775 11.2333 1 9 1C6.76667 1 4.875 1.775 3.325 3.325C1.775 4.875 1 6.76667 1 9C1 11.2333 1.775 13.125 3.325 14.675C4.875 16.225 6.76667 17 9 17Z" fill="#09102B"/>
</svg>
