<svg width="150" height="40" viewBox="0 0 150 40" fill="none" xmlns="http://www.w3.org/2000/svg">
<g filter="url(#filter0_d_378_942)">
<path d="M10 0H150V30L140 40H0V10L10 0Z" fill="#41CD52"/>
</g>
<path d="M64.4977 26H56.8777V12.16H58.4177V24.62H64.4977V26ZM65.6504 20.98C65.6504 19.1533 65.9771 17.8333 66.6304 17.02C67.2837 16.2067 68.3837 15.8 69.9304 15.8C71.4904 15.8 72.5904 16.2067 73.2304 17.02C73.8837 17.8333 74.2104 19.1533 74.2104 20.98C74.2104 22.8067 73.9037 24.1333 73.2904 24.96C72.6771 25.7867 71.5571 26.2 69.9304 26.2C68.3037 26.2 67.1837 25.7867 66.5704 24.96C65.9571 24.1333 65.6504 22.8067 65.6504 20.98ZM67.1904 20.96C67.1904 22.4133 67.3637 23.4333 67.7104 24.02C68.0704 24.6067 68.8104 24.9 69.9304 24.9C71.0637 24.9 71.8037 24.6133 72.1504 24.04C72.4971 23.4533 72.6704 22.4267 72.6704 20.96C72.6704 19.4933 72.4771 18.4867 72.0904 17.94C71.7037 17.38 70.9837 17.1 69.9304 17.1C68.8904 17.1 68.1704 17.38 67.7704 17.94C67.3837 18.4867 67.1904 19.4933 67.1904 20.96ZM83.7168 19.02V24.14C83.7568 24.6333 84.1435 24.9267 84.8768 25.02L84.8168 26.2C83.7635 26.2 82.9701 25.9333 82.4368 25.4C81.2368 25.9333 80.0368 26.2 78.8368 26.2C77.9168 26.2 77.2168 25.94 76.7368 25.42C76.2568 24.9 76.0168 24.1533 76.0168 23.18C76.0168 22.2067 76.2635 21.4933 76.7568 21.04C77.2501 20.5733 78.0235 20.2867 79.0768 20.18L82.2168 19.88V19.02C82.2168 18.34 82.0701 17.8533 81.7768 17.56C81.4835 17.2667 81.0835 17.12 80.5768 17.12C79.5101 17.12 78.4035 17.1867 77.2568 17.32L76.6368 17.38L76.5768 16.24C78.0435 15.9467 79.3435 15.8 80.4768 15.8C81.6101 15.8 82.4301 16.06 82.9368 16.58C83.4568 17.1 83.7168 17.9133 83.7168 19.02ZM77.5568 23.1C77.5568 24.3267 78.0635 24.94 79.0768 24.94C79.9835 24.94 80.8768 24.7867 81.7568 24.48L82.2168 24.32V21.02L79.2568 21.3C78.6568 21.3533 78.2235 21.5267 77.9568 21.82C77.6901 22.1133 77.5568 22.54 77.5568 23.1ZM94.3563 11.64V26H92.8763V25.32C91.8497 25.9067 90.8363 26.2 89.8363 26.2C89.303 26.2 88.8363 26.1333 88.4363 26C88.0363 25.8667 87.663 25.6267 87.3163 25.28C86.5963 24.56 86.2363 23.2333 86.2363 21.3C86.2363 19.3533 86.5563 17.9533 87.1963 17.1C87.8497 16.2333 88.923 15.8 90.4163 15.8C91.1897 15.8 92.0097 15.8867 92.8763 16.06V11.64H94.3563ZM88.4763 24.2C88.6897 24.4533 88.9163 24.6267 89.1563 24.72C89.3963 24.8133 89.703 24.86 90.0763 24.86C90.463 24.86 90.8897 24.8 91.3563 24.68C91.8363 24.5467 92.2097 24.42 92.4763 24.3L92.8763 24.12V17.34C92.023 17.18 91.2297 17.1 90.4963 17.1C89.483 17.1 88.7763 17.4267 88.3763 18.08C87.9763 18.72 87.7763 19.72 87.7763 21.08C87.7763 22.6267 88.0097 23.6667 88.4763 24.2Z" fill="white"/>
<defs>
<filter id="filter0_d_378_942" x="-10" y="-2" width="170" height="60" filterUnits="userSpaceOnUse" color-interpolation-filters="sRGB">
<feFlood flood-opacity="0" result="BackgroundImageFix"/>
<feColorMatrix in="SourceAlpha" type="matrix" values="0 0 0 0 0 0 0 0 0 0 0 0 0 0 0 0 0 0 127 0" result="hardAlpha"/>
<feOffset dy="8"/>
<feGaussianBlur stdDeviation="5"/>
<feComposite in2="hardAlpha" operator="out"/>
<feColorMatrix type="matrix" values="0 0 0 0 0.254902 0 0 0 0 0.803922 0 0 0 0 0.321569 0 0 0 0.2 0"/>
<feBlend mode="normal" in2="BackgroundImageFix" result="effect1_dropShadow_378_942"/>
<feBlend mode="normal" in="SourceGraphic" in2="effect1_dropShadow_378_942" result="shape"/>
</filter>
</defs>
</svg>
