<svg width="24" height="24" viewBox="0 0 24 24" fill="none" xmlns="http://www.w3.org/2000/svg">
<path d="M6.125 8L4.625 5C4.15833 5 3.771 5.15433 3.463 5.463C3.15433 5.771 3 6.15833 3 6.625V17.375C3 17.8417 3.15433 18.2293 3.463 18.538C3.771 18.846 4.15833 19 4.625 19H15C15 18.6575 15.0344 18.3231 15.1 18H4.625C4.44167 18 4.29167 17.9417 4.175 17.825C4.05833 17.7083 4 17.5583 4 17.375V9H20V14C20.3425 14 20.6769 14.0344 21 14.1V6.625C21 6.15833 20.846 5.771 20.538 5.463C20.2293 5.15433 19.8417 5 19.375 5H17.625L19.125 8H16.125L14.625 5H12.625L14.125 8H11.125L9.625 5H7.625L9.125 8H6.125Z" fill="#41CD52"/>
<path d="M23 19L18 16V22L23 19Z" fill="#41CD52"/>
</svg>
