<svg width="24" height="24" viewBox="0 0 24 24" fill="none" xmlns="http://www.w3.org/2000/svg">
<path d="M4.888 18.9252C5.47933 19.5085 6.18333 19.8002 7 19.8002C7.83333 19.8002 8.54167 19.5085 9.125 18.9252C9.70833 18.3419 10 17.6335 10 16.8002V6.7252H19V14.6252C18.75 14.3585 18.45 14.1542 18.1 14.0122C17.75 13.8709 17.3833 13.8002 17 13.8002C16.1833 13.8002 15.4793 14.0962 14.888 14.6882C14.296 15.2795 14 15.9835 14 16.8002C14 17.6335 14.296 18.3419 14.888 18.9252C15.4793 19.5085 16.1833 19.8002 17 19.8002C17.8333 19.8002 18.5416 19.5085 19.125 18.9252C19.7083 18.3419 20 17.6335 20 16.8002V4.2002H9V14.6252C8.75 14.3585 8.45 14.1542 8.1 14.0122C7.75 13.8709 7.38333 13.8002 7 13.8002C6.18333 13.8002 5.47933 14.0962 4.888 14.6882C4.296 15.2795 4 15.9835 4 16.8002C4 17.6335 4.296 18.3419 4.888 18.9252Z" fill="white"/>
</svg>
