<svg width="24" height="24" viewBox="0 0 24 24" fill="none" xmlns="http://www.w3.org/2000/svg">
<path fill-rule="evenodd" clip-rule="evenodd" d="M7 19.8002C6.18333 19.8002 5.47933 19.5085 4.888 18.9252C4.296 18.3419 4 17.6335 4 16.8002C4 15.9835 4.296 15.2795 4.888 14.6882C5.47933 14.0962 6.18333 13.8002 7 13.8002C7.38333 13.8002 7.75 13.8709 8.1 14.0122C8.45 14.1542 8.75 14.3585 9 14.6252V4.2002H20V14C19.6575 14 19.3231 14.0344 19 14.1V6.7252H10V16.8002C10 17.6335 9.70833 18.3419 9.125 18.9252C8.54167 19.5085 7.83333 19.8002 7 19.8002ZM18.5148 14.2243C18.3853 14.1426 18.2471 14.0719 18.1 14.0122C17.75 13.8709 17.3833 13.8002 17 13.8002C16.1833 13.8002 15.4793 14.0962 14.888 14.6882C14.296 15.2795 14 15.9835 14 16.8002C14 17.6335 14.296 18.3419 14.888 18.9252C14.9249 18.9616 14.9623 18.9969 15.0001 19.0311C15 19.0207 15 19.0104 15 19C15 16.7557 16.4786 14.8568 18.5148 14.2243Z" fill="#41CD52"/>
<path d="M23 19L18 16V22L23 19Z" fill="#41CD52"/>
</svg>
