<svg width="18" height="18" viewBox="0 0 18 18" fill="none" xmlns="http://www.w3.org/2000/svg">
<path d="M7.125 18L6.775 15.1C6.45833 15.0167 6.11267 14.871 5.738 14.663C5.36267 14.4543 5.05 14.2333 4.8 14L2.125 15.125L0.25 11.875L2.575 10.125C2.54167 9.95833 2.51267 9.779 2.488 9.587C2.46267 9.39567 2.45 9.20833 2.45 9.025C2.45 8.85833 2.46267 8.679 2.488 8.487C2.51267 8.29567 2.54167 8.09167 2.575 7.875L0.25 6.125L2.125 2.925L4.775 4.025C5.075 3.775 5.396 3.55 5.738 3.35C6.07933 3.15 6.41667 3 6.75 2.9L7.125 0H10.875L11.225 2.9C11.6083 3.05 11.946 3.20833 12.238 3.375C12.5293 3.54167 12.8333 3.75833 13.15 4.025L15.875 2.925L17.75 6.125L15.35 7.925C15.4167 8.125 15.45 8.31267 15.45 8.488V9C15.45 9.15 15.446 9.31267 15.438 9.488C15.4293 9.66267 15.4 9.875 15.35 10.125L17.7 11.875L15.825 15.125L13.15 13.975C12.8333 14.2417 12.521 14.4667 12.213 14.65C11.9043 14.8333 11.575 14.9833 11.225 15.1L10.875 18H7.125ZM8.975 11.5C9.675 11.5 10.2667 11.2583 10.75 10.775C11.2333 10.2917 11.475 9.7 11.475 9C11.475 8.3 11.2333 7.70833 10.75 7.225C10.2667 6.74167 9.675 6.5 8.975 6.5C8.275 6.5 7.68333 6.74167 7.2 7.225C6.71667 7.70833 6.475 8.3 6.475 9C6.475 9.7 6.71667 10.2917 7.2 10.775C7.68333 11.2583 8.275 11.5 8.975 11.5ZM8.975 10.5C8.55833 10.5 8.20433 10.354 7.913 10.062C7.621 9.77067 7.475 9.41667 7.475 9C7.475 8.58333 7.621 8.22933 7.913 7.938C8.20433 7.646 8.55833 7.5 8.975 7.5C9.39167 7.5 9.746 7.646 10.038 7.938C10.3293 8.22933 10.475 8.58333 10.475 9C10.475 9.41667 10.3293 9.77067 10.038 10.062C9.746 10.354 9.39167 10.5 8.975 10.5ZM8 17H9.95L10.325 14.3C10.825 14.1667 11.2793 13.9833 11.688 13.75C12.096 13.5167 12.5083 13.1917 12.925 12.775L15.4 13.85L16.4 12.15L14.225 10.5C14.3083 10.2167 14.3627 9.954 14.388 9.712C14.4127 9.47067 14.425 9.23333 14.425 9C14.425 8.75 14.4127 8.51233 14.388 8.287C14.3627 8.06233 14.3083 7.80833 14.225 7.525L16.45 5.85L15.45 4.15L12.9 5.225C12.6 4.89167 12.2043 4.579 11.713 4.287C11.221 3.99567 10.75 3.8 10.3 3.7L10 1H8L7.7 3.7C7.2 3.8 6.73733 3.97067 6.312 4.212C5.88733 4.454 5.46667 4.78333 5.05 5.2L2.55 4.15L1.55 5.85L3.725 7.475C3.64167 7.69167 3.58333 7.93333 3.55 8.2C3.51667 8.46667 3.5 8.74167 3.5 9.025C3.5 9.275 3.51667 9.525 3.55 9.775C3.58333 10.025 3.63333 10.2667 3.7 10.5L1.55 12.15L2.55 13.85L5.025 12.8C5.425 13.2 5.83333 13.5167 6.25 13.75C6.66667 13.9833 7.14167 14.1667 7.675 14.3L8 17Z" fill="white"/>
</svg>
