<svg width="21" height="19" viewBox="0 0 21 19" fill="none" xmlns="http://www.w3.org/2000/svg">
<path d="M0 18.2499L10.1346 0.75L20.2691 18.2499H0ZM2.58455 16.7499H17.6846L10.1346 3.74992L2.58455 16.7499ZM10.1346 15.5576C10.3634 15.5576 10.5552 15.4802 10.71 15.3254C10.8648 15.1706 10.9422 14.9788 10.9422 14.7499C10.9422 14.5211 10.8648 14.3293 10.71 14.1745C10.5552 14.0197 10.3634 13.9423 10.1346 13.9423C9.9057 13.9423 9.71387 14.0197 9.55908 14.1745C9.40427 14.3293 9.32688 14.5211 9.32688 14.7499C9.32688 14.9788 9.40427 15.1706 9.55908 15.3254C9.71387 15.4802 9.9057 15.5576 10.1346 15.5576ZM9.38458 12.9423H10.8845V7.94225H9.38458V12.9423Z" fill="white"/>
</svg>
