<svg width="16" height="16" viewBox="0 0 16 16" fill="none" xmlns="http://www.w3.org/2000/svg">
<path d="M11.8067 8.47336L8.47338 11.8067C8.40997 11.8674 8.33521 11.915 8.25338 11.9467C8.09107 12.0134 7.90902 12.0134 7.74671 11.9467C7.66487 11.915 7.59011 11.8674 7.52671 11.8067L4.19338 8.47336C4.13122 8.4112 4.08191 8.33741 4.04827 8.25619C4.01463 8.17498 3.99731 8.08793 3.99731 8.00003C3.99731 7.82249 4.06784 7.65223 4.19338 7.52669C4.31891 7.40116 4.48917 7.33063 4.66671 7.33063C4.84424 7.33063 5.01451 7.40116 5.14004 7.52669L7.33338 9.7267V4.6667C7.33338 4.48988 7.40361 4.32031 7.52864 4.19529C7.65366 4.07027 7.82323 4.00003 8.00004 4.00003C8.17685 4.00003 8.34642 4.07027 8.47145 4.19529C8.59647 4.32031 8.66671 4.48988 8.66671 4.6667V9.7267L10.86 7.52669C10.922 7.46421 10.9958 7.41461 11.077 7.38077C11.1582 7.34692 11.2454 7.3295 11.3334 7.3295C11.4214 7.3295 11.5085 7.34692 11.5898 7.38077C11.671 7.41461 11.7447 7.46421 11.8067 7.52669C11.8692 7.58867 11.9188 7.6624 11.9526 7.74364C11.9865 7.82488 12.0039 7.91202 12.0039 8.00003C12.0039 8.08804 11.9865 8.17517 11.9526 8.25641C11.9188 8.33765 11.8692 8.41139 11.8067 8.47336Z" fill="#FA8A8A"/>
</svg>

