<svg width="16" height="16" viewBox="0 0 16 16" fill="none" xmlns="http://www.w3.org/2000/svg">
<path d="M11.8067 7.52664L8.47338 4.1933C8.40997 4.13261 8.33521 4.08503 8.25338 4.0533C8.09107 3.98663 7.90902 3.98663 7.74671 4.0533C7.66487 4.08503 7.59011 4.13261 7.52671 4.1933L4.19338 7.52664C4.13122 7.5888 4.08191 7.66259 4.04827 7.74381C4.01463 7.82502 3.99731 7.91207 3.99731 7.99997C3.99731 8.17751 4.06784 8.34777 4.19338 8.47331C4.31891 8.59884 4.48917 8.66937 4.66671 8.66937C4.84424 8.66937 5.01451 8.59884 5.14004 8.47331L7.33338 6.2733V11.3333C7.33338 11.5101 7.40361 11.6797 7.52864 11.8047C7.65366 11.9297 7.82323 12 8.00004 12C8.17685 12 8.34642 11.9297 8.47145 11.8047C8.59647 11.6797 8.66671 11.5101 8.66671 11.3333V6.2733L10.86 8.47331C10.922 8.53579 10.9958 8.58539 11.077 8.61923C11.1582 8.65308 11.2454 8.6705 11.3334 8.6705C11.4214 8.6705 11.5085 8.65308 11.5898 8.61923C11.671 8.58539 11.7447 8.53579 11.8067 8.47331C11.8692 8.41133 11.9188 8.3376 11.9526 8.25636C11.9865 8.17512 12.0039 8.08798 12.0039 7.99997C12.0039 7.91196 11.9865 7.82483 11.9526 7.74359C11.9188 7.66235 11.8692 7.58861 11.8067 7.52664Z" fill="#5ECCA3"/>
</svg>

