<svg width="24" height="24" viewBox="0 0 24 24" fill="none" xmlns="http://www.w3.org/2000/svg">
<path d="M20.8233 8.33091L19.9721 8.85579L20.8233 8.33091ZM18.9681 11.3276L19.9636 11.2327L18.9681 11.3276ZM20.8232 15.6691L19.972 15.1442L20.8232 15.6691ZM18.4118 17.7829L17.9363 18.6626L18.4118 17.7829ZM19.7385 17.4281L20.5897 17.9529L19.7385 17.4281ZM16.3686 17.4698L16.9932 18.2508L16.3686 17.4698ZM17.5737 17.3298L18.0492 16.4501L17.5737 17.3298ZM14.8065 18.4147L14.4052 17.4988L14.8065 18.4147ZM9.16983 18.4043L9.57454 17.4898L9.16983 18.4043ZM5.56044 17.7829L5.08491 16.9032L5.56044 17.7829ZM3.52472 14.2645L4.00025 15.1442L3.52472 14.2645ZM3.14907 15.6691L2.29789 16.194L3.14907 15.6691ZM5.03073 12.6603L4.03508 12.7534L5.03073 12.6603ZM4.48732 13.7442L4.01179 12.8645L4.48732 13.7442ZM5.03073 11.3398L4.03508 11.2466L5.03073 11.3398ZM3.14902 8.33092L2.29784 7.80604L3.14902 8.33092ZM9.16983 5.59573L8.76513 4.68128L9.16983 5.59573ZM6.41518 17.3208L5.93965 16.4411L6.41518 17.3208ZM7.62183 17.4622L8.24775 16.6823L7.62183 17.4622ZM19.7386 6.57194L20.5898 6.04706L19.7386 6.57194ZM10.85 4H13.1223V2H10.85V4ZM10.85 4.60808V4H8.85003V4.60808H10.85ZM8.24773 7.31774C8.65101 6.99408 9.09658 6.7217 9.57454 6.51017L8.76513 4.68128C8.12679 4.96379 7.53275 5.32709 6.99589 5.75797L8.24773 7.31774ZM5.08486 7.09682L5.93963 7.55888L6.89069 5.79948L6.03592 5.33742L5.08486 7.09682ZM4.0002 8.8558L5.08486 7.09682L3.3825 6.04707L2.29784 7.80604L4.0002 8.8558ZM4.96285 9.37617L4.0002 8.8558L3.04914 10.6152L4.01179 11.1356L4.96285 9.37617ZM6 12C6 11.8085 6.00894 11.6193 6.02638 11.4329L4.03508 11.2466C4.01185 11.4949 4 11.7462 4 12H6ZM6.02638 12.5671C6.00894 12.3807 6 12.1915 6 12H4C4 12.2538 4.01185 12.5051 4.03508 12.7534L6.02638 12.5671ZM4.00025 15.1442L4.96285 14.6239L4.01179 12.8645L3.04919 13.3848L4.00025 15.1442ZM5.08491 16.9032L4.00025 15.1442L2.29789 16.194L3.38255 17.9529L5.08491 16.9032ZM5.93965 16.4411L5.08491 16.9032L6.03597 18.6626L6.89071 18.2005L5.93965 16.4411ZM9.57454 17.4898C9.09659 17.2783 8.65102 17.0059 8.24775 16.6823L6.99591 18.242C7.53277 18.6729 8.1268 19.0362 8.76513 19.3187L9.57454 17.4898ZM10.85 20V19.3919H8.85003V20H10.85ZM13.1223 20H10.85V22H13.1223V20ZM13.1223 19.404V20H15.1223V19.404H13.1223ZM15.744 16.6889C15.3372 17.0142 14.8876 17.2874 14.4052 17.4988L15.2078 19.3306C15.8521 19.0484 16.4516 18.6839 16.9932 18.2508L15.744 16.6889ZM18.8874 16.9032L18.0492 16.4501L17.0982 18.2095L17.9363 18.6626L18.8874 16.9032ZM19.972 15.1442L18.8874 16.9032L20.5897 17.9529L21.6744 16.194L19.972 15.1442ZM19.0358 14.6381L19.972 15.1442L20.9231 13.3848L19.9868 12.8787L19.0358 14.6381ZM18 12C18 12.1951 17.9907 12.3878 17.9726 12.5776L19.9636 12.7673C19.9877 12.5145 20 12.2586 20 12H18ZM17.9726 11.4224C17.9907 11.6123 18 11.8049 18 12H20C20 11.7414 19.9877 11.4855 19.9636 11.2327L17.9726 11.4224ZM19.9721 8.85579L19.0358 9.36192L19.9868 11.1213L20.9231 10.6152L19.9721 8.85579ZM18.8874 7.09681L19.9721 8.85579L21.6744 7.80604L20.5898 6.04706L18.8874 7.09681ZM18.0492 7.54989L18.8874 7.09681L17.9364 5.33741L17.0982 5.79049L18.0492 7.54989ZM14.4052 6.50124C14.8876 6.71259 15.3372 6.98582 15.7441 7.31116L16.9932 5.74921C16.4516 5.31609 15.8521 4.95163 15.2078 4.66935L14.4052 6.50124ZM13.1223 4V4.596H15.1223V4H13.1223ZM15.2078 4.66935C15.1691 4.65242 15.1435 4.62838 15.1307 4.61031C15.1196 4.59463 15.1223 4.59054 15.1223 4.596H13.1223C13.1223 5.48675 13.6987 6.19173 14.4052 6.50124L15.2078 4.66935ZM20.9231 10.6152C21.9342 10.0686 22.2777 8.78435 21.6744 7.80604L19.9721 8.85579V8.85579L20.9231 10.6152ZM19.9636 11.2327C19.9596 11.1904 19.9683 11.156 19.9781 11.1358C19.9866 11.1183 19.9916 11.1187 19.9868 11.1213L19.0358 9.36192C18.2434 9.79023 17.8986 10.6459 17.9726 11.4224L19.9636 11.2327ZM19.9868 12.8787C19.9916 12.8813 19.9866 12.8817 19.9781 12.8642C19.9683 12.844 19.9596 12.8096 19.9636 12.7673L17.9726 12.5776C17.8986 13.3541 18.2434 14.2098 19.0358 14.6381L19.9868 12.8787ZM21.6744 16.194C22.2776 15.2157 21.9342 13.9314 20.9231 13.3848L19.972 15.1442L19.972 15.1442L21.6744 16.194ZM17.9363 18.6626C18.869 19.1668 20.0332 18.8555 20.5897 17.9529L18.8874 16.9032H18.8874L17.9363 18.6626ZM16.9932 18.2508C17.0261 18.2245 17.0594 18.213 17.0815 18.2102C17.1006 18.2078 17.1029 18.2121 17.0982 18.2095L18.0492 16.4501C17.2575 16.0222 16.3532 16.2017 15.744 16.6889L16.9932 18.2508ZM15.1223 19.404C15.1223 19.4095 15.1196 19.4054 15.1307 19.3897C15.1435 19.3716 15.1691 19.3476 15.2078 19.3306L14.4052 17.4988C13.6987 17.8083 13.1223 18.5133 13.1223 19.404H15.1223ZM13.1223 22C14.2268 22 15.1223 21.1046 15.1223 20H13.1223V22ZM8.85003 20C8.85003 21.1046 9.74545 22 10.85 22V20H10.85H8.85003ZM8.76513 19.3187C8.80355 19.3357 8.82899 19.3597 8.84168 19.3777C8.85269 19.3933 8.85003 19.3974 8.85003 19.3919H10.85C10.85 18.5044 10.2775 17.8009 9.57454 17.4898L8.76513 19.3187ZM3.38255 17.9529C3.93908 18.8554 5.10322 19.1668 6.03597 18.6626L5.08491 16.9032L3.38255 17.9529ZM3.04919 13.3848C2.0381 13.9314 1.69462 15.2156 2.29789 16.194L4.00025 15.1442H4.00025L3.04919 13.3848ZM4.03508 12.7534C4.03902 12.7956 4.03028 12.8299 4.02047 12.85C4.01197 12.8675 4.00703 12.867 4.01179 12.8645L4.96285 14.6239C5.75386 14.1963 6.09893 13.3426 6.02638 12.5671L4.03508 12.7534ZM4.01179 11.1356C4.00702 11.133 4.01197 11.1326 4.02047 11.15C4.03027 11.1701 4.03902 11.2045 4.03508 11.2466L6.02638 11.4329C6.09893 10.6574 5.75385 9.80375 4.96285 9.37617L4.01179 11.1356ZM2.29784 7.80604C1.69457 8.78435 2.03805 10.0686 3.04914 10.6152L4.0002 8.8558L2.29784 7.80604ZM6.03592 5.33742C5.10317 4.83322 3.93903 5.14456 3.3825 6.04707L5.08486 7.09682L5.08486 7.09682L6.03592 5.33742ZM6.99589 5.75797C6.96294 5.78441 6.92954 5.79594 6.9074 5.79879C6.88822 5.80126 6.88592 5.7969 6.89069 5.79948L5.93963 7.55888C6.73266 7.98755 7.63844 7.80676 8.24773 7.31774L6.99589 5.75797ZM8.85003 4.60808C8.85003 4.60263 8.85269 4.60669 8.84168 4.62231C8.82899 4.64029 8.80355 4.66427 8.76513 4.68128L9.57454 6.51017C10.2775 6.19908 10.85 5.49562 10.85 4.60808H8.85003ZM17.0982 5.79049C17.1029 5.78792 17.1007 5.79226 17.0815 5.78982C17.0594 5.787 17.0261 5.77554 16.9932 5.74921L15.7441 7.31116C16.3533 7.79836 17.2575 7.97786 18.0492 7.54989L17.0982 5.79049ZM13.1223 4L13.1223 4H15.1223C15.1223 2.89543 14.2268 2 13.1223 2V4ZM6.89071 18.2005C6.88595 18.2031 6.88824 18.1988 6.90742 18.2012C6.92956 18.2041 6.96297 18.2156 6.99591 18.242L8.24775 16.6823C7.63845 16.1933 6.73268 16.0125 5.93965 16.4411L6.89071 18.2005ZM20.5898 6.04706C20.0332 5.14455 18.8691 4.8332 17.9364 5.33741L18.8874 7.09681L20.5898 6.04706ZM10.85 2C9.74546 2 8.85003 2.89543 8.85003 4H10.85V4V2Z" fill="#F2F2F2"/>
<circle cx="12" cy="12" r="3" stroke="#F2F2F2" stroke-width="2"/>
</svg>

