<svg width="24" height="24" viewBox="0 0 24 24" fill="none" xmlns="http://www.w3.org/2000/svg">
<path d="M15 16.675L16.7 17.7C16.7833 17.7333 16.8583 17.7292 16.925 17.6875C16.9917 17.6458 17.0167 17.5833 17 17.5L16.55 15.55L18.05 14.25C18.1167 14.2 18.1333 14.1375 18.1 14.0625C18.0667 13.9875 18.0083 13.9417 17.925 13.925L15.95 13.75L15.175 11.9C15.15 11.8167 15.0938 11.775 15.0063 11.775C14.9188 11.775 14.8583 11.8167 14.825 11.9L14.05 13.75L12.075 13.925C11.9917 13.9417 11.9333 13.9875 11.9 14.0625C11.8667 14.1375 11.8833 14.2 11.95 14.25L13.45 15.55L13 17.5C12.9833 17.5833 13.0083 17.6458 13.075 17.6875C13.1417 17.7292 13.2167 17.7333 13.3 17.7L15 16.675ZM3.5 16C3.0875 16 2.73438 15.8531 2.44063 15.5594C2.14688 15.2656 2 14.9125 2 14.5V3.5C2 3.0875 2.14688 2.73438 2.44063 2.44063C2.73438 2.14688 3.0875 2 3.5 2H14.5C14.9125 2 15.2656 2.14688 15.5594 2.44063C15.8531 2.73438 16 3.0875 16 3.5V5.75C16 5.9625 15.9277 6.14063 15.7831 6.28438C15.6385 6.42813 15.4594 6.5 15.2456 6.5C15.0319 6.5 14.8542 6.42813 14.7125 6.28438C14.5708 6.14063 14.5 5.9625 14.5 5.75V3.5H3.5V14.5H5.75C5.9625 14.5 6.14063 14.5723 6.28438 14.7169C6.42813 14.8615 6.5 15.0406 6.5 15.2544C6.5 15.4681 6.42813 15.6458 6.28438 15.7875C6.14063 15.9292 5.9625 16 5.75 16H3.5ZM9.5 22C9.0875 22 8.73438 21.8531 8.44063 21.5594C8.14688 21.2656 8 20.9125 8 20.5V9.5C8 9.0875 8.14688 8.73438 8.44063 8.44063C8.73438 8.14688 9.0875 8 9.5 8H20.5C20.9125 8 21.2656 8.14688 21.5594 8.44063C21.8531 8.73438 22 9.0875 22 9.5V20.5C22 20.9125 21.8531 21.2656 21.5594 21.5594C21.2656 21.8531 20.9125 22 20.5 22H9.5ZM9.5 20.5H20.5V9.5H9.5V20.5Z" fill="#F2F2F2"/>
</svg>

