<svg width="24" height="24" viewBox="0 0 24 24" fill="none" xmlns="http://www.w3.org/2000/svg">
<path d="M8.07501 18.875L12 16.525L15.925 18.9L14.875 14.45L18.325 11.45L13.775 11.05L12 6.85005L10.225 11.025L5.67501 11.425L9.12501 14.425L8.07501 18.875ZM12 18.275L7.35001 21.075C7.21667 21.1584 7.07501 21.1959 6.92501 21.1875C6.77501 21.1792 6.64167 21.1334 6.52501 21.05C6.40834 20.9667 6.32084 20.8584 6.26251 20.725C6.20417 20.5917 6.19167 20.4417 6.22501 20.275L7.45001 14.975L3.35001 11.4C3.21667 11.2834 3.13751 11.1542 3.11251 11.0125C3.08751 10.8709 3.09167 10.7334 3.12501 10.6C3.15834 10.4667 3.23334 10.3542 3.35001 10.2625C3.46667 10.1709 3.60834 10.1167 3.77501 10.1L9.20001 9.62505L11.3 4.62505C11.3667 4.47505 11.4667 4.36255 11.6 4.28755C11.7333 4.21255 11.8667 4.17505 12 4.17505C12.1333 4.17505 12.2667 4.21255 12.4 4.28755C12.5333 4.36255 12.6333 4.47505 12.7 4.62505L14.8 9.62505L20.225 10.1C20.3917 10.1167 20.5333 10.1709 20.65 10.2625C20.7667 10.3542 20.8417 10.4667 20.875 10.6C20.9083 10.7334 20.9125 10.8709 20.8875 11.0125C20.8625 11.1542 20.7833 11.2834 20.65 11.4L16.55 14.975L17.775 20.275C17.8083 20.4417 17.7958 20.5917 17.7375 20.725C17.6792 20.8584 17.5917 20.9667 17.475 21.05C17.3583 21.1334 17.225 21.1792 17.075 21.1875C16.925 21.1959 16.7833 21.1584 16.65 21.075L12 18.275Z" fill="#F2F2F2"/>
</svg>

