<svg width="15" height="15" viewBox="0 0 15 15" fill="none" xmlns="http://www.w3.org/2000/svg">
<path d="M8.01562 7.3125V4.64062C8.01562 4.50521 7.97135 4.39323 7.88281 4.30469C7.79427 4.21615 7.68229 4.17188 7.54688 4.17188C7.41146 4.17188 7.29948 4.21615 7.21094 4.30469C7.1224 4.39323 7.07812 4.50521 7.07812 4.64062V7.5C7.07812 7.5625 7.08854 7.61979 7.10938 7.67188C7.13021 7.72396 7.16146 7.77604 7.20312 7.82812L9.45312 10.1562C9.54688 10.2604 9.66406 10.3099 9.80469 10.3047C9.94531 10.2995 10.0625 10.25 10.1562 10.1562C10.25 10.0625 10.2969 9.94792 10.2969 9.8125C10.2969 9.67708 10.25 9.5625 10.1562 9.46875L8.01562 7.3125ZM7.5 13.75C6.64583 13.75 5.83854 13.5859 5.07812 13.2578C4.31771 12.9297 3.65365 12.4818 3.08594 11.9141C2.51823 11.3464 2.07031 10.6823 1.74219 9.92188C1.41406 9.16146 1.25 8.35417 1.25 7.5C1.25 6.64583 1.41406 5.83854 1.74219 5.07812C2.07031 4.31771 2.51823 3.65365 3.08594 3.08594C3.65365 2.51823 4.31771 2.07031 5.07812 1.74219C5.83854 1.41406 6.64583 1.25 7.5 1.25C8.35417 1.25 9.16146 1.41406 9.92188 1.74219C10.6823 2.07031 11.3464 2.51823 11.9141 3.08594C12.4818 3.65365 12.9297 4.31771 13.2578 5.07812C13.5859 5.83854 13.75 6.64583 13.75 7.5C13.75 8.35417 13.5859 9.16146 13.2578 9.92188C12.9297 10.6823 12.4818 11.3464 11.9141 11.9141C11.3464 12.4818 10.6823 12.9297 9.92188 13.2578C9.16146 13.5859 8.35417 13.75 7.5 13.75ZM7.5 12.8125C8.95833 12.8125 10.2083 12.2917 11.25 11.25C12.2917 10.2083 12.8125 8.95833 12.8125 7.5C12.8125 6.04167 12.2917 4.79167 11.25 3.75C10.2083 2.70833 8.95833 2.1875 7.5 2.1875C6.04167 2.1875 4.79167 2.70833 3.75 3.75C2.70833 4.79167 2.1875 6.04167 2.1875 7.5C2.1875 8.95833 2.70833 10.2083 3.75 11.25C4.79167 12.2917 6.04167 12.8125 7.5 12.8125Z" fill="#279646"/>
</svg>

