<svg width="24" height="24" viewBox="0 0 24 24" fill="none" xmlns="http://www.w3.org/2000/svg">
<path d="M4.625 5L6.125 8H9.125L7.625 5H9.625L11.125 8H14.125L12.625 5H14.625L16.125 8H19.125L17.625 5H19.375C19.8417 5 20.2293 5.15433 20.538 5.463C20.846 5.771 21 6.15833 21 6.625V17.375C21 17.8417 20.846 18.2293 20.538 18.538C20.2293 18.846 19.8417 19 19.375 19H4.625C4.15833 19 3.771 18.846 3.463 18.538C3.15433 18.2293 3 17.8417 3 17.375V6.625C3 6.15833 3.15433 5.771 3.463 5.463C3.771 5.15433 4.15833 5 4.625 5ZM4 9V17.375C4 17.5583 4.05833 17.7083 4.175 17.825C4.29167 17.9417 4.44167 18 4.625 18H19.375C19.5583 18 19.7083 17.9417 19.825 17.825C19.9417 17.7083 20 17.5583 20 17.375V9H4ZM4 9V18V17.375V9Z" fill="white"/>
</svg>
