<svg width="24" height="24" viewBox="0 0 24 24" fill="none" xmlns="http://www.w3.org/2000/svg">
<path fill-rule="evenodd" clip-rule="evenodd" d="M12 20C16.4183 20 20 16.4183 20 12C20 7.58172 16.4183 4 12 4C7.58172 4 4 7.58172 4 12C4 16.4183 7.58172 20 12 20ZM12 22C17.5228 22 22 17.5228 22 12C22 6.47715 17.5228 2 12 2C6.47715 2 2 6.47715 2 12C2 17.5228 6.47715 22 12 22Z" fill="#0D0D0D"/>
<path fill-rule="evenodd" clip-rule="evenodd" d="M21 13H18.098C17.017 13 16.2101 12.005 16.4334 10.9472C16.6941 9.71204 15.5661 8.63307 14.3437 8.94842L14.223 8.97957C13.0972 9.27 12 8.41995 12 7.25729V4C12 3.44771 12.4477 3 13 3H14.3683C14.7794 3 15.1806 3.12671 15.5171 3.36289L17.8365 4.9905C17.9452 5.06682 18.0461 5.15379 18.1376 5.25011L19.5824 6.77093C19.8547 7.05755 20.0359 7.41844 20.1032 7.80802L21 13ZM13 16.9788V13.9541C13 12.5391 11.5709 11.5716 10.2572 12.0971L3 15L8.41421 20.4142C8.78928 20.7893 9.29799 21 9.82842 21H14.9577C14.981 21 15 20.981 15 20.9577V18.9788C15 17.8859 14.114 17 13.0212 17C13.0095 17 13 16.9905 13 16.9788Z" fill="#0D0D0D"/>
</svg>
