<svg width="25" height="25" viewBox="0 0 25 25" fill="none" xmlns="http://www.w3.org/2000/svg">
<path opacity="0.7" fill-rule="evenodd" clip-rule="evenodd" d="M12.5 22.5C18.0228 22.5 22.5 18.0228 22.5 12.5C22.5 6.97716 18.0228 2.5 12.5 2.5C6.97716 2.5 2.5 6.97716 2.5 12.5C2.5 18.0228 6.97716 22.5 12.5 22.5ZM12.5 17.5C15.2614 17.5 17.5 15.2614 17.5 12.5C17.5 9.73857 15.2614 7.5 12.5 7.5C9.73857 7.5 7.5 9.73857 7.5 12.5C7.5 15.2614 9.73857 17.5 12.5 17.5Z" fill="#00414A"/>
<path opacity="0.9" d="M18.5 12.5C18.5 15.8137 15.8137 18.5 12.5 18.5C9.18629 18.5 6.5 15.8137 6.5 12.5C6.5 9.18629 9.18629 6.5 12.5 6.5C15.8137 6.5 18.5 9.18629 18.5 12.5Z" fill="#2CDE85"/>
</svg>
