<svg width="48" height="48" viewBox="0 0 48 48" fill="none" xmlns="http://www.w3.org/2000/svg">
<path d="M23.5 18.9545C26.275 18.9545 28.5455 21.225 28.5455 24C28.5455 26.775 26.275 29.0455 23.5 29.0455C20.725 29.0455 18.4545 26.775 18.4545 24C18.4545 21.225 20.725 18.9545 23.5 18.9545ZM23.5 15.5909C18.8582 15.5909 15.0909 19.3582 15.0909 24C15.0909 28.6418 18.8582 32.4091 23.5 32.4091C28.1418 32.4091 31.9091 28.6418 31.9091 24C31.9091 19.3582 28.1418 15.5909 23.5 15.5909ZM6.68182 25.6818H10.0455C10.9705 25.6818 11.7273 24.925 11.7273 24C11.7273 23.075 10.9705 22.3182 10.0455 22.3182H6.68182C5.75682 22.3182 5 23.075 5 24C5 24.925 5.75682 25.6818 6.68182 25.6818ZM36.9545 25.6818H40.3182C41.2432 25.6818 42 24.925 42 24C42 23.075 41.2432 22.3182 40.3182 22.3182H36.9545C36.0295 22.3182 35.2727 23.075 35.2727 24C35.2727 24.925 36.0295 25.6818 36.9545 25.6818ZM21.8182 7.18182V10.5455C21.8182 11.4705 22.575 12.2273 23.5 12.2273C24.425 12.2273 25.1818 11.4705 25.1818 10.5455V7.18182C25.1818 6.25682 24.425 5.5 23.5 5.5C22.575 5.5 21.8182 6.25682 21.8182 7.18182ZM21.8182 37.4545V40.8182C21.8182 41.7432 22.575 42.5 23.5 42.5C24.425 42.5 25.1818 41.7432 25.1818 40.8182V37.4545C25.1818 36.5295 24.425 35.7727 23.5 35.7727C22.575 35.7727 21.8182 36.5295 21.8182 37.4545ZM13.3923 11.5209C12.7364 10.865 11.66 10.865 11.0209 11.5209C10.365 12.1768 10.365 13.2532 11.0209 13.8923L12.8036 15.675C13.4595 16.3309 14.5359 16.3309 15.175 15.675C15.8141 15.0191 15.8309 13.9427 15.175 13.3036L13.3923 11.5209ZM34.1964 32.325C33.5405 31.6691 32.4641 31.6691 31.825 32.325C31.1691 32.9809 31.1691 34.0573 31.825 34.6964L33.6077 36.4791C34.2636 37.135 35.34 37.135 35.9791 36.4791C36.635 35.8232 36.635 34.7468 35.9791 34.1077L34.1964 32.325ZM35.9791 13.8923C36.635 13.2364 36.635 12.16 35.9791 11.5209C35.3232 10.865 34.2468 10.865 33.6077 11.5209L31.825 13.3036C31.1691 13.9595 31.1691 15.0359 31.825 15.675C32.4809 16.3141 33.5573 16.3309 34.1964 15.675L35.9791 13.8923ZM15.175 34.6964C15.8309 34.0405 15.8309 32.9641 15.175 32.325C14.5191 31.6691 13.4427 31.6691 12.8036 32.325L11.0209 34.1077C10.365 34.7636 10.365 35.84 11.0209 36.4791C11.6768 37.1182 12.7532 37.135 13.3923 36.4791L15.175 34.6964Z" fill="white"/>
</svg>
