<svg width="48" height="48" viewBox="0 0 48 48" fill="none" xmlns="http://www.w3.org/2000/svg">
<path d="M28.9998 36H26.3332V31C26.3332 29.7115 25.2885 28.6668 23.9998 28.6668C22.7113 28.6668 21.6665 29.7115 21.6665 31V36H19V31C19 28.2386 21.2386 26 23.9998 26C26.7612 26 28.9998 28.2386 28.9998 31V36ZM33.9998 36H31.3332V31C31.3332 26.95 28.05 23.6666 23.9998 23.6666C19.9499 23.6666 16.6664 26.9499 16.6664 31V36H13.9999V31C13.9999 25.4773 18.477 21 23.9999 21C29.5226 21 33.9999 25.4771 33.9999 31L33.9998 36ZM38.9998 36H36.333V31C36.333 24.1885 30.8114 18.6669 23.9999 18.6669C17.1884 18.6669 11.6668 24.1885 11.6668 31V36H9.00021V31C9.00021 22.716 15.7159 16.0003 23.9999 16.0003C32.2845 16.0003 38.9997 22.716 38.9997 31L38.9998 36ZM43.9998 36H41.333V31C41.333 21.4271 33.573 13.6666 23.9996 13.6666C14.4268 13.6666 6.66676 21.4271 6.66676 31V36H4V31C4 19.9546 12.9541 11 24 11C35.0459 11 44 19.9541 44 31L43.9998 36Z" fill="white"/>
</svg>
