<svg width="48" height="48" viewBox="0 0 48 48" fill="none" xmlns="http://www.w3.org/2000/svg">
<path d="M19.9089 13.9044C19.6289 14.9 19.4889 15.9422 19.4889 17C19.4889 23.3467 24.6533 28.5111 31 28.5111C32.0578 28.5111 33.1 28.3711 34.0956 28.0911C32.4778 32.0733 28.5578 34.8889 24 34.8889C17.9956 34.8889 13.1111 30.0044 13.1111 24C13.1111 19.4422 15.9267 15.5222 19.9089 13.9044ZM24 10C16.2689 10 10 16.2689 10 24C10 31.7311 16.2689 38 24 38C31.7311 38 38 31.7311 38 24C38 23.2844 37.9378 22.5689 37.8444 21.8844C36.32 24.0156 33.8311 25.4 31 25.4C26.3644 25.4 22.6 21.6356 22.6 17C22.6 14.1844 23.9844 11.68 26.1156 10.1556C25.4311 10.0622 24.7156 10 24 10Z" fill="white"/>
</svg>
