<!-- by Finnhub --><svg width="56" height="56" xmlns="http://www.w3.org/2000/svg"><path fill="#0079BD" d="M0 0h56v56H0z"/><path d="M26.182 17.635l-1.73 8.029V12l5.197 6.683-3.467-1.048zM34.606 20.368l-7.358 4.043 10.577-9.027-1.745 8.205-1.474-3.22zM38.058 27.965l-8.08-2.429 14.021 1.289-7.35 4.39 1.409-3.25zM33.49 36.58l-2.555-7.822 6.912 11.908-7.912-3.35 3.554-.735zM24.467 38.13l4.57-6.895L24.015 44l-2.402-8.05 2.854 2.18zM17.175 31.71l8.445-.418L12 34.768l5.343-6.584-.168 3.526zM18.124 22.506l5.489 6.244-11.146-8.354 8.628.092-2.971 2.018z" fill="#fff"/></svg>
