<!-- by Finnhub --><svg width="56" height="56" xmlns="http://www.w3.org/2000/svg"><path fill="#8A0051" d="M0 0h56v56H0z"/><path d="M41.983 28.822a1.557 1.557 0 00-.033-.215 3.513 3.513 0 00-.13-.424 3.594 3.594 0 00-.208-.422 5.05 5.05 0 00-.283-.436 2.114 2.114 0 00-.197-.232 2.65 2.65 0 00-.247-.234c-.2-.16-.398-.324-.615-.458-.476-.295-.95-.602-1.46-.83-.616-.274-1.213-.599-1.848-.822l-4.285-1.505c0-.825.023-1.649 0-2.473a77.44 77.44 0 00-.179-3.665 32.992 32.992 0 00-.297-2.537c-.102-.656-.256-1.304-.4-1.951-.033-.15-.082-.293-.131-.436a5.838 5.838 0 00-.298-.722 3.931 3.931 0 00-.336-.541 2.708 2.708 0 00-.527-.53 1.962 1.962 0 00-.934-.37 1.706 1.706 0 00-.206-.017c-.118-.002-.236-.004-.353.004a3.006 3.006 0 00-.762.152c-.137.046-.27.102-.399.166a6.362 6.362 0 00-.84.532c-.239.181-.482.358-.7.564a90.667 90.667 0 00-2.632 2.604c-.458.473-.902.961-1.317 1.471-1.651 2.022-3.295 4.05-4.883 6.124-.705.92-1.339 1.893-1.992 2.85a9.68 9.68 0 00-.456.74c-.244.443-.473.894-.697 1.348a3.48 3.48 0 00-.148.367 4.032 4.032 0 00-.113.36 1.968 1.968 0 00-.073.677c.004.055.02.11.037.16.02.057.045.11.073.163.032.056.07.109.109.16.042.055.086.11.134.159.106.105.214.208.33.304.118.098.24.192.367.277.223.148.454.286.683.422.1.059.207.11.309.164.036.018-.073-.039-.108-.059-.005-.001-.016-.008-.013-.007.006.002.013.006.018.01l.17.089c1.41.745 2.827 1.48 4.232 2.238 1.411.76 2.823 1.524 4.217 2.317l3.135 1.782c-1.089.834-2.198 1.639-3.265 2.5a14.307 14.307 0 00-2.004 2.02 8.836 8.836 0 00-.589.837 6.196 6.196 0 00-.379.704 4.548 4.548 0 00-.214.568 3.1 3.1 0 00-.096.415c-.014.084-.017.17-.022.257-.001.03.004.059.004.088.002.078-.002.155.002.232a1.997 1.997 0 00.209.78c.029.056.058.113.096.163.072.1.145.2.231.287.086.088.18.168.28.241.099.074.205.139.314.199.11.06.223.112.338.161.115.049.231.1.353.127.438.098.879.187 1.324.248.217.03.439.043.657.025.758-.06 1.515-.138 2.266-.258.876-.139 1.746-.325 2.613-.517a75.61 75.61 0 003.056-.735c.716-.19 1.444-.36 2.129-.643.54-.222 1.085-.435 1.62-.668.12-.052.234-.12.347-.187.102-.06.203-.125.299-.195.084-.06.168-.125.243-.198a1.42 1.42 0 00.175-.2 1.06 1.06 0 00.175-.394.86.86 0 00.002-.369 1.156 1.156 0 00-.128-.335 1.664 1.664 0 00-.21-.294 2.677 2.677 0 00-.476-.425 4.092 4.092 0 00-.242-.16c-.558-.34-1.114-.687-1.676-1.022l-2.353-1.406c1.429-.98 2.871-1.943 4.288-2.944.605-.428 1.2-.87 1.775-1.34.492-.402.96-.833 1.419-1.272.218-.209.412-.44.61-.67.09-.104.173-.215.252-.328.072-.102.145-.205.202-.318.184-.37.366-.742.52-1.126.061-.156.087-.325.122-.49A2.522 2.522 0 0042 29.04a3.495 3.495 0 00-.017-.218zm-17.57-9.732c.798-.837 1.598-1.673 2.41-2.497.148-.15.312-.285.47-.425.055-.048.114-.094.172-.14.045-.034.09-.07.138-.101a.712.712 0 01.23-.095.606.606 0 01.135-.005c.023 0 .046.007.068.015a.434.434 0 01.133.075.653.653 0 01.128.147c.021.034.044.069.058.107.039.101.074.205.1.312.037.151.066.305.09.461.057.38.11.759.153 1.14.055.493.094.987.139 1.481l.242 2.63-2.896-.675-2.703-.45-.654-.05-.212-.006c.6-.642 1.194-1.288 1.8-1.924zm-1.816 3.657l.01-.016.016-.009.022-.002.035.005.101.03.262.101.357.16 2.76 1.194c.61.263 1.221.524 1.83.788l1.206.52.107.05c.065.963.144 1.926.194 2.89.04.754.056 1.509.074 2.263.002.096-.005.19-.012.285a1.89 1.89 0 01-.016.16 1.208 1.208 0 01-.034.157.783.783 0 01-.057.148.767.767 0 01-.089.127.642.642 0 01-.128.1.578.578 0 01-.174.062.866.866 0 01-.24.006 1.003 1.003 0 01-.13-.025.963.963 0 01-.133-.041 2.591 2.591 0 01-.275-.134 3.043 3.043 0 01-.291-.192 4.341 4.341 0 01-.299-.245 4.548 4.548 0 01-.303-.292 13.804 13.804 0 01-.608-.695c-.35-.432-.713-.857-1.02-1.32-.423-.64-.858-1.272-1.27-1.919-.245-.386-.498-.77-.702-1.182l-.93-1.863-.2-.594-.046-.177-.028-.17-.002-.123.013-.047zm10.274 16.518c.251.16.503.318.75.483.319.212.639.424.948.65.222.162.435.338.645.518.093.08.18.166.264.257.068.075.127.156.188.238a.026.026 0 01.003.018.134.134 0 01-.006.043.053.053 0 01-.015.023.107.107 0 01-.03.02.497.497 0 01-.113.023c-1.22.093-2.444.178-3.665.275l-4.772.38-.149.009.069-.075.3-.27c.62-.464 1.218-.958 1.857-1.396l2.702-1.853c.34.218.683.437 1.024.657zm3.676-9.505a.762.762 0 01-.138.264 3.111 3.111 0 01-.26.28c-.2.184-.397.373-.617.531-.759.544-1.51 1.101-2.277 1.632-.528.366-1.073.708-1.613 1.058l-3.135 2.038-1.332-.772-5.678-3.283c-1.282-.775-2.572-1.537-3.846-2.326-.24-.149-.465-.321-.695-.486-.073-.053-.14-.113-.21-.168-.022-.017-.047-.033-.067-.051a2.463 2.463 0 01-.142-.14.847.847 0 01-.133-.213.565.565 0 01-.036-.129.472.472 0 010-.139.831.831 0 01.107-.297 2.744 2.744 0 01.438-.579c.733-.763 1.478-1.516 2.215-2.277l1.988-2.051.094.331.242.583.016.035c.525.922 1.019 1.862 1.576 2.764.64 1.037 1.328 2.044 2.015 3.05.323.47.66.932 1.014 1.38.309.388.628.77.974 1.126.304.312.637.597.975.872.168.136.356.245.54.357a2.914 2.914 0 00.82.316 1.833 1.833 0 00.902-.02 1.442 1.442 0 00.481-.233c.082-.063.165-.128.24-.2.063-.062.122-.13.175-.2a2.8 2.8 0 00.188-.284 4.151 4.151 0 00.363-.796c.099-.305.193-.612.269-.925.1-.422.213-.845.258-1.278l.257-2.505c.587.277 1.188.528 1.762.831.56.296 1.098.638 1.642.964.064.039.123.084.18.131.081.068.159.14.233.216a.903.903 0 01.181.276c.02.05.032.102.042.155.005.026.003.053.002.08a.26.26 0 01-.01.082z" fill="#EAC102"/></svg>
