<!-- by Finnhub --><svg width="56" height="56" viewBox="0 0 56 56" xmlns="http://www.w3.org/2000/svg"><path fill="#F0F3FA" d="M0 0h56v56H0z"/><path d="M17.28 25.5s2.9-.3 5.77-.3c2.87 0 10.66.93 12.53.93 1.87 0 6.19-.5 7.42-1.13-.16.12-4.28 5.52-4.28 5.52s-3.25.4-5.72.4c-2.46 0-9-.89-13.02-.89S13 31 13 31l4.28-5.5Z" fill="url(#alrpbfx0i)"/><path d="M20 23.4s4.72-4.33 9.67-4.33c4.94 0 7.06.44 10.47.44 3.4 0 5.66-.37 6.86-1.51-1.04 2.23-2.62 4.73-2.62 4.73s-2.06 1.43-7.06 1.43-8.7-.68-12.17-.78c-3.46-.1-5.14.02-5.14.02Z" fill="url(#blrpbfx0i)"/><path d="M44.35 22.75c-.22.14-2.07 1.25-5.23.65-3.36-.65-7.07-2.27-10.93-2.23-3.86.04-7.97 2.07-8.19 2.23 0 0 1.69-.12 5.15-.02 3.46.1 7.16.78 12.17.78 4.7 0 6.8-1.27 7.03-1.41Z" fill="url(#clrpbfx0i)"/><path d="M36 32.6s-4.72 4.33-9.67 4.33c-4.94 0-7.06-.44-10.47-.44-3.4 0-5.66.37-6.86 1.51 1.04-2.23 2.62-4.73 2.62-4.73s2.06-1.43 7.06-1.43 8.7.68 12.17.78c3.46.1 5.14-.02 5.14-.02Z" fill="url(#dlrpbfx0i)"/><path d="M11.65 33.25c.22-.14 2.07-1.25 5.23-.65 3.36.65 7.07 2.27 10.93 2.23 3.86-.04 7.97-2.07 8.19-2.23 0 0-1.69.12-5.15.02-3.46-.1-7.16-.78-12.17-.78-4.7 0-6.8 1.26-7.03 1.41Z" fill="url(#elrpbfx0i)"/><defs><linearGradient id="alrpbfx0i" x1="13.76" y1="29.67" x2="43.72" y2="28.81" gradientUnits="userSpaceOnUse"><stop stop-color="#F05523"/><stop offset="1" stop-color="#F89C2F"/></linearGradient><linearGradient id="blrpbfx0i" x1="20" y1="22.5" x2="47.48" y2="21.57" gradientUnits="userSpaceOnUse"><stop stop-color="#0E93D3"/><stop offset="1" stop-color="#164899"/></linearGradient><linearGradient id="clrpbfx0i" x1="19.52" y1="23.5" x2="43.63" y2="23.96" gradientUnits="userSpaceOnUse"><stop stop-color="#0F94D3"/><stop offset=".6" stop-color="#164899"/></linearGradient><linearGradient id="dlrpbfx0i" x1="9" y1="37.5" x2="36.01" y2="35.64" gradientUnits="userSpaceOnUse"><stop stop-color="#029148"/><stop offset="1" stop-color="#B3C33D"/></linearGradient><linearGradient id="elrpbfx0i" x1="10.93" y1="34" x2="37.45" y2="33.54" gradientUnits="userSpaceOnUse"><stop offset=".32" stop-color="#008F48"/><stop offset=".89" stop-color="#B1C23E"/></linearGradient></defs></svg>
