<!-- by Finnhub --><svg xmlns="http://www.w3.org/2000/svg" width="56" height="56"><path fill="#632CA6" d="M0 0h56v56H0z"/><path d="M25.37 19.93c1.17-.8 2.69-.48 2.43-.24-.48.46.16.32.23 1.17.05.63-.15.97-.33 1.17a7.47 7.47 0 00-2.18.64l-.22-.16c-.83-.72-.8-1.99.07-2.58zm7.02 4.95a6.17 6.17 0 012.08-.58 4 4 0 011.29 0c.28.15.28.64.09 1.09-.29.65-.69 1.37-1.14 1.43-.74.1-1.44-.3-2.24-.9-.29-.22-.47-.74-.08-1.04zm1.35-6.35c1.1.51.96 1.48.99 2.05l-.01.35c-.15-.08-.4-.14-.77-.13-.11 0-.22.02-.33.04-.4-.22-.64-.64-.86-1.1a2.04 2.04 0 01-.05-.1l-.02-.06-.01-.02c-.12-.38-.04-.46.01-.58.05-.12.25-.22-.04-.32l-.1-.02c.2-.24.78-.3 1.2-.1zm-5.96 11.58a16.38 16.38 0 01-2.94-2.44c-.09-.07-.07-.37-.07-.37.48.38 2.48 1.8 4.59 2.45.74.23 1.89.32 2.88-.24a7.37 7.37 0 002.21-1.95l.1.17c0 .12-.25.68-.38.9.23.13.4.17.66.24l1.75-.27a5.32 5.32 0 00.6-4.2c-.28-.9-1.7-2.68-1.8-2.77-.36-.35.05-1.68-.66-3.13-.75-1.54-2.7-3.14-3.55-3.83.25.18 1.79.8 2.5 1.67.08-.09.1-.56.17-.67-.62-.81-.67-2.25-.67-2.64 0-.7-.36-1.5-.36-1.5s.62.49.78 1.33c.19 1 .59 1.78 1.12 2.45 1 1.25 1.92 1.9 2.38 1.43.55-.56-.56-3.04-1.98-4.43-1.65-1.62-2.08-1.41-3.05-1.07-.77.28-1.19 2.47-3.2 2.43-.34-.04-1.22-.06-1.66-.06l.42-.56s-.67.27-1.25.62l-.04-.07c.2-.41.4-.67.4-.67s-.54.33-1.03.71c.09-.48.43-.8.43-.8s-.69.13-1.55 1.09c-1 .26-1.23.44-2.02.79-1.28-.28-1.88-.73-2.45-1.56-.44-.63-1.22-.73-2.02-.4-1.16.48-2.63 1.14-2.63 1.14s.48-.02.98 0c-.68.26-1.34.61-1.34.61h.71c-.27.23-.42.33-.68.5-.62.46-1.13.98-1.13.98s.42-.19.8-.3c-.26.61-.79 1.06-.7 1.8.1.69.94 2.1 2.02 2.95.1.08 1.57 1.44 2.68.88 1.12-.56 1.56-1.05 1.74-1.82.21-.88.1-1.54-.37-3.45-.15-.63-.55-1.92-.74-2.54l.05-.03c.36.76 1.3 2.79 1.67 4.15.58 2.12.4 3.2.13 3.59-.8 1.19-2.88 1.34-3.82.68-.15 2.29.36 3.3.54 3.8-.09.58.29 1.66.29 1.66s.04-.49.21-.75c.05.58.34 1.26.34 1.26s-.02-.42.12-.79c.18.32.32.4.5.63.17.62.53 1.07.53 1.07s-.06-.33-.03-.67c.87.82 1.01 2.04 1.1 2.97.24 2.55-4.04 4.59-4.86 6.19-.63.95-1.01 2.45.05 3.33 2.58 2.13 1.59 2.72 2.88 3.66 1.76 1.29 3.97.71 4.73-.34 1.04-1.45.77-2.83.39-4.12-.3-1-1.14-2.67-2.16-3.32a4.47 4.47 0 00-2.92-.7l.08-.09a4.8 4.8 0 013.47.5 6.2 6.2 0 012.54 3.64c.58-.08.66-.12 1.19-.2l-1.19-9.24 2.52-.28zm.68 11.6l-.13-1.29L31 36.34l3.03.9 2.61-4.37 3.13 2.07 2.38-4.98.84 9.07-14.53 2.67zM43.03 28.1l-9.56 1.73c-.23.3-.82.84-1.1.98-1.2.6-2.02.43-2.73.25-.45-.12-.71-.18-1.09-.35l-2.33.32 1.42 11.8L44 39.88l-.97-11.78z" fill="#fff"/></svg>
