<!-- by Finnhub --><svg width="56" height="56" xmlns="http://www.w3.org/2000/svg"><path fill="#2F282F" d="M0 0h56v56H0z"/><path d="M34 13h9l-8.919 15.005L43 43h-9l-8.838-14.995L34 13z" fill="#fff"/><path d="M24.757 37.902c0 3.899-2.51 6.098-5.98 6.098C15.307 44 13 40.901 13 37.402c0-3.899 6.69-9.497 10.034-9.897-.406 4.399 1.723 6.698 1.723 10.397z" fill="#D8007B"/><path d="M23.299 16.196c-.164-2.683-2.01-4.092-4.436-3.948-2.426.144-3.909 2.372-3.762 4.779.163 2.682 5.074 6.257 7.43 6.393-.469-3.01.923-4.68.768-7.224z" fill="#75F713"/><ellipse cx="16.243" cy="24.606" rx="2.432" ry="2.399" fill="#843632"/><ellipse cx="21.209" cy="25.706" rx="1.318" ry="1.3" fill="#63FFFC"/></svg>
