<!-- by Finnhub --><svg width="56" height="56" fill="none" xmlns="http://www.w3.org/2000/svg"><path fill="url(#paint0_linear_3186)" d="M0 0h56v56H0z"/><path fill-rule="evenodd" clip-rule="evenodd" d="M51 28.493c0-.635-.27-.98-.901-.98H44v1.974h6.099c.623 0 .901-.3.901-.994zm1 0c0 .924-.775 1.507-1.503 1.507H43v-3h7.497c.728 0 1.503.572 1.503 1.493zm-22.8-.98H36V27h-7.497c-.729 0-1.503.572-1.503 1.493 0 .924.774 1.507 1.503 1.507H36v-.513h-6.8c-.624 0-1.2-.365-1.2-.994 0-.635.568-.98 1.2-.98zM5.824 29.486c-.57 0-.825-.257-.825-.833V27H4v1.653C4 29.528 4.733 30 5.424 30H13v-.514H5.825zM23 27v2.487h-6.175c-.57 0-.825-.257-.825-.834V27h-1v1.653c0 .875.733 1.347 1.424 1.347H24v-3h-1zm16 3h1v-3h-1v3z" fill="#fff"/><defs><linearGradient id="paint0_linear_3186" x1="10.418" y1="9.712" x2="68.147" y2="76.017" gradientUnits="userSpaceOnUse"><stop stop-color="#1A1E21"/><stop offset="1" stop-color="#06060A"/></linearGradient></defs></svg>
