<!-- by Finnhub --><svg width="56" height="56" xmlns="http://www.w3.org/2000/svg"><path fill="#D41935" d="M0 0h56v56H0z"/><path d="M39.029 35.361c-1.288 1.927-2.929 2.95-4.76 2.95-.802 0-1.646-.195-2.512-.58-.918-.407-1.725-1.15-2.274-2.095-.544-.945-.76-1.963-.607-2.881.19-.803.612-1.895 1.103-3.161 1.272-3.293 3.018-7.805 1.51-10.01-.634-.93-1.78-1.383-3.489-1.389-1.715.006-2.855.46-3.493 1.388-1.504 2.206.237 6.718 1.514 10.016.486 1.261.913 2.354 1.098 3.166.158.908-.058 1.926-.607 2.87-.544.946-1.351 1.69-2.27 2.096-.865.385-1.714.58-2.511.58-1.831 0-3.478-1.023-4.755-2.944l-.148-.264c.613.306 1.779.813 2.787.813.501 0 .976-.153 1.446-.465 2.585-1.72 1.704-3.789-.064-6.987-.749-1.356-1.52-2.754-1.863-4.2-.369-1.552-.707-3.815.644-5.525.628-.808 1.594-1.425 2.86-1.842 1.314-.438 3.008-.67 5.035-.702h.654c2.026.032 3.72.264 5.034.702 1.267.417 2.227 1.034 2.86 1.842 1.352 1.71 1.014 3.973.644 5.525-.343 1.446-1.113 2.844-1.862 4.2-1.768 3.198-2.655 5.267-.064 6.987.47.312.94.465 1.446.465 1.008 0 2.169-.507 2.786-.813l-.142.258zM28 12c-8.84 0-16 7.16-16 16 0 8.834 7.16 16 16 16s16-7.166 16-16c0-8.84-7.16-16-16-16z" fill="#fff"/></svg>
