<!-- by Finnhub --><svg width="56" height="56" xmlns="http://www.w3.org/2000/svg"><path fill="#F0F3FA" d="M0 0h56v56H0z"/><path d="M34 20h-1l-3.5 5.335L26 20h-1v16h1l3.5-5.31L33 36h1V20z" fill="#6DACDE"/><path d="M25 20H20.01L25 28.012 20.01 36H25V20z" fill="#938647"/><path d="M39 20h-5v16h5l-5-7.988L39 20z" fill="#6D9A45"/><path d="M45.832 20H39l-5 8.012L39 36V32h8.198C50.894 32 52 29.238 52 26.861v-1.375C52 22.359 50.8 20 45.832 20zM47 25.969c0 .947-.337 2.031-1.561 2.031H39v-4h5.992c1.577 0 2.008.605 2.008 1.683v.286z" fill="#BFD730"/><path d="M25 28.013L20 20l.006 9.679L11 20H6v16l5-.001V26l9 10 5-7.987z" fill="#FCB316"/></svg>
