<!-- by Finnhub --><svg width="56" height="56" xmlns="http://www.w3.org/2000/svg"><path fill="#98C33C" d="M0 0h56v56H0z"/><path d="M42.406 29.102c.114-.76.835-1.368 1.594-1.406V16.979C43.962 14.242 41.722 12 38.99 12H16.972C14.24 12 12 14.242 12 16.979v22.004C12 41.758 14.24 44 16.973 44H38.95c2.771 0 4.973-2.242 4.973-5.017v-6.916c-.228.114-.493.19-.721.19-.76 0-1.29-.608-1.139-1.407l.342-1.748zm-26.079 2.774l-.303 1.749c-.152.76-.873 1.406-1.633 1.406-.759 0-1.29-.608-1.138-1.406l.303-1.748c.152-.76.873-1.407 1.633-1.407.759 0 1.29.608 1.138 1.407zm4.745 0l-1.1 6.157c-.152.76-.873 1.406-1.633 1.406-.759 0-1.29-.608-1.138-1.406l1.062-6.157c.152-.76.873-1.406 1.633-1.406.797 0 1.29.608 1.176 1.407zm5.2-2.812l-2.049 11.82c-.152.76-.873 1.406-1.632 1.406-.76 0-1.29-.608-1.139-1.406l2.05-11.82c.152-.76.873-1.406 1.632-1.406.76 0 1.29.608 1.139 1.406zm5.733-5.625l-2.771 15.924c-.152.76-.873 1.407-1.633 1.407-.759 0-1.29-.647-1.176-1.407l2.77-15.924c.153-.76.874-1.406 1.633-1.406.797 0 1.29.608 1.177 1.406zm4.972-1.52l-2.05 11.82c-.151.76-.872 1.406-1.632 1.406-.759 0-1.29-.608-1.138-1.406l2.05-11.82c.113-.76.873-1.406 1.632-1.406.759 0 1.29.646 1.139 1.406zm4.252 2.85l-1.063 6.157c-.152.76-.873 1.407-1.632 1.407-.76 0-1.29-.608-1.139-1.407l1.063-6.156c.114-.76.873-1.407 1.632-1.407.76 0 1.253.608 1.139 1.407z" fill="#fff"/></svg>
