<!-- by Finnhub --><svg width="56" height="56" xmlns="http://www.w3.org/2000/svg"><path fill="#073590" d="M0 0h56v56H0z"/><path d="M34.492 18.533c1.91.535 3.778 1.07 5.688 1.359h1.37c.83 0 1.37-.289 2.16-.536H44c0 .289 0 .289-.29.536-1.08.823-2.16 1.359-3.24 1.606-.29 0-.83.288-1.079.288-1.37.535-2.99.535-4.318.535-2.699-.288-5.149-1.07-7.848-1.07-2.45-.289-4.858.823-6.228 2.676-.29 1.071-.83 2.142-.83 3.212 0 1.071 1.62 1.36 2.159 2.142l.83 1.606c.29 1.07.83 2.141 1.62 3.212.54.535 1.08 1.359 1.91 1.606 1.08.824 1.91 1.606 2.45 2.677.54 1.07 1.079 1.894 1.37 2.965.29.535.54 1.07.54 1.894v.288c.29.535.29 1.07.54 1.36v.287c0 .289.29.824 0 .824-.54-.535-.831-1.07-1.08-1.606-.291-1.07-1.08-2.141-1.91-3.212-.54-.535-1.08-1.359-1.62-1.894-2.159-2.43-5.398-4.036-7.847-6.177 0 0 0-.289-.29-.536-.292-.535-.54-.823-.831-1.359-.54-1.07-1.37-2.141-1.91-3.5 0-.535-.291-1.07-.291-1.606v-.288c0-.536-1.37-.824-.54-1.895.54-.535 2.16-1.07 2.7-2.141v-.535s0-.289-.291-.289-1.08.536-1.08-.288v-.823c.29-.536.29-1.071.29-1.607 0-.288.291-.288.54-.288.25 0 .83-.288 1.08-.288.83 0 1.91 0 2.45.535.29.536 0 1.071 0 1.606 0 .536-.54.824-.291 1.071h.54c1.08-.824 2.159-1.894 3.238-2.965.83-.824 2.16-1.07 3.24-.824 2.449.083 4.359.906 6.809 1.442z" fill="#F1C931"/><path d="M28.262 22.815c.29.536 0 .824-.29 1.36-1.37 1.894-1.91 4.282-2.7 6.465h-.29c-.29 0-.29-.289-.29-.536 0-2.43.83-4.57 1.91-6.712.29-.288.54-.824 1.079-.535.29-.289.29-.042.581-.042zm3.779.536c.29.823-.291 1.359-.54 2.141-1.37 2.677-2.99 5.354-3.779 8.318 0 0 0 .289-.29.289h-.29c-.291-1.071 0-2.43.29-3.5.83-2.43 1.62-4.819 2.99-7.248.29 0 .29-.289.29-.289.498.042 1.038.042 1.329.289zm3.778.288c.29.288.29.824 0 1.07-1.62 3.501-4.069 6.466-5.149 10.213l-.83 2.43c0 .288-.29.288-.29 0-.291-.288 0-.824 0-1.07.29-2.966 1.079-5.89 2.45-8.32.539-1.358 1.37-2.429 1.91-3.747.29-.288.539-.823 1.079-.823.29-.041.581-.041.83.247zm4.36.247c.29.535 0 .824 0 1.359-1.08 2.677-2.99 5.106-4.318 7.783-1.37 2.141-2.16 4.571-2.99 6.712-.29.824-.54 1.36-.83 2.142h-.291c-.29-.288-.29-.536-.29-.824.29-2.965 1.37-5.353 2.45-8.071 1.37-2.965 2.989-5.642 4.317-8.607.291-.288.54-.823 1.08-1.07.29.04.581.04.872.576z" fill="#F1C931"/></svg>
