<!-- by Finnhub --><svg width="56" height="56" xmlns="http://www.w3.org/2000/svg"><path fill="#005480" d="M0 0h56v56H0z"/><path d="M8.401 30.606a.44.44 0 00.777-.224.426.426 0 00-.094-.317 2.469 2.469 0 01-.563-1.577c0-.568.187-1.104.542-1.55a.428.428 0 00-.228-.683.445.445 0 00-.462.15c-.477.6-.728 1.32-.728 2.083 0 .769.269 1.52.756 2.118zm-.926-5.327a.444.444 0 00-.614.084 5.115 5.115 0 00-1.076 3.15c0 1.14.367 2.222 1.06 3.13a.44.44 0 00.783-.199.427.427 0 00-.084-.32 4.274 4.274 0 01-.882-2.61c0-.96.31-1.868.896-2.63a.428.428 0 00-.083-.605zM4.878 28.5c0-1.366.411-2.682 1.192-3.805a.427.427 0 00-.114-.6.444.444 0 00-.61.112A7.486 7.486 0 004 28.5 7.48 7.48 0 005.353 32.8a.435.435 0 00.453.178.442.442 0 00.34-.344.425.425 0 00-.07-.323A6.627 6.627 0 014.878 28.5zm42.106 2.173a.443.443 0 00.617-.066 3.36 3.36 0 00.756-2.118c0-.763-.252-1.483-.727-2.083a.436.436 0 00-.463-.15.441.441 0 00-.265.204.426.426 0 00.037.478c.353.442.544.989.542 1.551 0 .58-.195 1.126-.563 1.577a.43.43 0 00.066.608zm1.56 1.056a.445.445 0 00.614-.086 5.119 5.119 0 001.058-3.129c0-1.149-.372-2.239-1.075-3.15a.44.44 0 00-.783.202.425.425 0 00.085.32c.587.76.897 1.67.897 2.628 0 .95-.305 1.854-.883 2.611a.428.428 0 00.087.605zm1.388-7.033a6.636 6.636 0 011.192 3.804c0 1.37-.414 2.689-1.198 3.812a.43.43 0 00.27.667.443.443 0 00.452-.178A7.494 7.494 0 0052 28.5a7.49 7.49 0 00-1.346-4.293.439.439 0 00-.607-.108.431.431 0 00-.115.597" fill="#00ADEE"/><path d="M12.512 25.866c-1.053 0-2.397.371-2.397 1.647 0 1.932 3.102 1.295 3.102 2.095 0 .352-.328.447-.638.447a.818.818 0 01-.493-.152c-.135-.105-.212-.206-.212-.407H9.961c.106 1.343 1.381 1.644 2.54 1.644 1.857 0 2.726-.704 2.726-1.742 0-1.866-3.198-1.4-3.198-2.095 0-.247.222-.352.57-.352.154 0 .299.038.405.124.107.085.174.272.194.434h1.827c-.117-1.323-1.412-1.643-2.513-1.643zm28.637 0c-.725 0-1.061.505-1.312.885V26H38v5h2v-2.469c0-.599-.05-1.117.502-1.103.482 0 .5.294.5 1.028V31H43v-2.468c0-.6-.058-1.101.507-1.103.532-.002.493.293.493 1.027V31h2v-2.954c0-1.361-.588-2.18-1.863-2.18-.733 0-1.114.314-1.549.913-.241-.533-.601-.913-1.44-.913zM15.566 25.523v.99h1.632v-.99h-1.632zm0 1.477v4h1.632v-4h-1.632zM21.006 25.523v.998h1.478v-.998h-1.478zm0 1.477v4h1.478v-4h-1.478zM20.394 26.856c-.636 0-1.037.302-1.264.936h-.016V27H17.63v4h1.634v-1.375c0-.874.337-1.183 1.004-1.183.11 0 .228.03.337.046V26.88c-.07-.008-.141-.024-.211-.024zm9.312 0c-.856 0-1.947.302-1.947 1.338 0 1.57 2.52 1.053 2.52 1.702 0 .286-.267.363-.518.363a.664.664 0 01-.4-.124.447.447 0 01-.173-.37h-1.554c.086 1.09 1.122 1.376 2.064 1.376 1.507 0 2.213-.572 2.213-1.415 0-1.516-2.598-1.137-2.598-1.701 0-.201.18-.287.464-.287.125 0 .242.032.328.1a.42.42 0 01.158.294h1.484c-.095-1.074-1.146-1.275-2.041-1.275zm-6.72.144v2.44c0 1.16.581 1.7 1.476 1.7.675 0 1.13-.154 1.538-.711V31h1.46v-4H26v1.92c0 .627-.241.975-.712.975-.393 0-.67-.177-.67-.734v-2.16h-1.631z" fill="#fff"/><path d="M34.06 26l.638 1.256.676-1.256h2.203l-1.73 2.38 1.75 2.618h-2.242l-.716-1.429-.734 1.429h-2.223l1.817-2.61L31.827 26h2.233z" fill="#fff"/></svg>
