<!-- by Finnhub --><svg width="56" height="56" xmlns="http://www.w3.org/2000/svg"><path fill="#0049B0" d="M0 0h56v56H0z"/><path d="M22.712 24.016a.738.738 0 00-1.257.137l-6.374 12.743A.76.76 0 0015.764 38h8.876a.735.735 0 00.683-.42c1.91-3.967.75-9.975-2.611-13.564z" fill="url(#paint0_linear)"/><path d="M27.39 12.408a16.81 16.81 0 00-1.002 16.61l4.3 8.562a.762.762 0 00.684.42h8.876a.76.76 0 00.671-1.104L28.686 12.408a.72.72 0 00-1.296 0z" fill="#fff"/><defs><linearGradient id="paint0_linear" x1="26.207" y1="25.983" x2="19.481" y2="37.635" gradientUnits="userSpaceOnUse"><stop stop-color="#60A0FF"/><stop offset=".92" stop-color="#fff"/></linearGradient></defs></svg>
