<svg xmlns="http://www.w3.org/2000/svg" width="56" height="56" xmlns:v="https://vecta.io/nano"><path fill="url(#A)" d="M0 0h56v56H0z"/><path d="M11.434 23.4c0 .46.354.837.78.837.444 0 .798-.376.798-.836s-.354-.835-.798-.835c-.426 0-.78.375-.78.835zM13 25h-1.62v6H13v-6zm35.608 8L52 25h-1.784l-1.22 3.136L47.656 25h-1.884l2.316 5.06L46.835 33h1.773zm-3.069-7.986a1.557 1.557 0 0 0-.444-.06c-.442 0-1.141.188-1.428.846V25h-1.668v6h1.723v-2.7c0-1.162.61-1.584 1.285-1.584.166 0 .344.01.532.057v-1.76zm-7.969 2.218a1.072 1.072 0 0 1 1.097-.986c.799 0 1.087.54 1.11.986H37.57zm2.328 1.513c-.155.46-.5.763-1.108.763-.654 0-1.22-.468-1.253-1.126h3.835c.011-.035.033-.305.033-.552 0-1.877-1.053-2.993-2.76-2.993-1.43 0-2.749 1.197-2.749 3.076 0 1.96 1.352 3.11 2.872 3.11 1.396 0 2.271-.845 2.538-1.854l-1.408-.424zM36.106 25h-1.773l-1.175 3.64L31.883 25h-1.828l2.26 5.913h1.696L36.106 25zm-8.7 4.38c-.633 0-1.243-.481-1.243-1.456 0-.985.61-1.444 1.242-1.444.643 0 1.242.459 1.242 1.444s-.599 1.455-1.242 1.455zm0-4.543c-1.641 0-2.928 1.28-2.928 3.087s1.287 3.099 2.927 3.099c1.651 0 2.926-1.292 2.926-3.1s-1.274-3.086-2.926-3.086zm-5.851 1.643c.653 0 .986.423 1.108.869l1.507-.481c-.244-1.045-1.131-2.031-2.649-2.031-1.619 0-2.904 1.28-2.904 3.099 0 1.808 1.319 3.087 2.96 3.087a2.637 2.637 0 0 0 2.627-2.031l-1.486-.48c-.121.433-.487.867-1.141.867-.699 0-1.287-.516-1.287-1.443 0-.94.566-1.456 1.265-1.456zm-7.846 2.712c.044.645.598 1.83 2.327 1.83 1.474 0 2.194-.973 2.194-1.971 0-.857-.553-1.585-1.695-1.831l-.732-.152c-.244-.048-.432-.188-.432-.434 0-.306.277-.506.6-.506.509 0 .741.329.785.716l1.398-.27c-.056-.68-.61-1.737-2.206-1.737-1.23 0-2.118.868-2.118 1.936 0 .822.466 1.527 1.641 1.797l.631.152c.411.095.544.27.544.482 0 .258-.21.504-.643.504-.576 0-.842-.387-.864-.786l-1.43.27zm-7.845-1.887c0 .016.003.034.009.042s.009.018.01.025c.017.014.016.006.004-.016a.116.116 0 0 1-.012-.041c-.002-.036-.01-.045-.01-.01zm-.071-1.058c-.02.01-.014.012-.005.013.02-.01.015-.013.005-.013zm.009-.424c.014-.001.012-.015-.004-.026s-.017-.011-.02-.003.013.03.024.029zm.054-.018c.001-.003-.002-.012-.007-.02-.023-.009-.018.002-.006.014zm.395.382c.002-.008.002-.013-.004-.02-.003-.027-.004-.028-.012-.028-.017 0-.028.021-.024.043.004.013.007.017.028.023a.023.023 0 0 1 .012-.018zm-.341.979zm.264-.874c-.009-.006-.012-.011-.012-.018.01-.007.016-.008.018-.009-.016-.03-.018-.031-.024-.025-.006-.013-.01-.019-.01-.019s-.012-.01-.022-.023-.016-.023-.013-.023c.009-.013.014-.016.018-.014s.01-.007.007-.022c-.005-.02-.028-.02-.05-.001s-.03.032-.017.053l.01.02c0 .002.009.016.02.031l.02.027-.003.02a.075.075 0 0 0 0 .032c.01.022.055.042.07.032.007-.005 0-.044-.008-.051zm-.297.003a.03.03 0 0 0 .005.013zm.021-.429a.03.03 0 0 0-.01-.012c-.002.015.012.025.01.012zm.148.085c-.007.008-.001.031.004.024-.008-.014-.008-.017-.004-.024zm.016.37c.005.014.009.019.011.019l-.011-.02zm.05-.447l-.003-.006zm-.086.433zm-.093-.135c-.01-.008-.02-.015-.02-.019.011.002.017-.016.013-.022l.016-.02h-.01a.034.034 0 0 0-.018.005.148.148 0 0 1-.024.012.02.02 0 0 0 .01.022.032.032 0 0 0-.02.016c-.027-.019-.027-.02-.021-.026-.015-.007-.022-.01-.022-.014-.002-.019-.03.003-.034.027-.01.001-.025.06-.021.071.007.019.048.025.072.01.017-.011.032-.01.055.004s.07.018.08.01c.023-.03-.036-.062-.056-.076zm.734-.445l-.001-.005-.005-.006.002.005.004.006zm-.04.35l.002.007a.037.037 0 0 0-.002-.007zm-.068.006zm.715 1.185v-.004l-.002.006v.004l.002-.006zm-.009.018l-.003.006.004-.006zm-.014-.113v.006l.001-.004v-.002zm-.002.012l-.002-.003.002.003zm-.012-.048a.04.04 0 0 0 0 0zm-.006-.028l-.001.002a.05.05 0 0 0 0 .007l.001-.002v-.007zm-.009.018a.027.027 0 0 1-.01.013l-.006.005.003.003a.114.114 0 0 0 .018-.027zm-.021.248H7.2zm-.009-.157l.006.002c.001-.018-.001-.02-.001-.02v-.003l-.001-.014c-.002-.01 0-.019.003-.023-.004-.013-.005-.018-.005-.021.002-.009-.002-.017-.014-.028-.017-.017-.018-.015-.027.001s-.011.02-.012.01v-.019l.002-.014-.022.011.003.002c.012.016.012.016.007.019l-.004.024c.016.004.022.007.022.007s.003.026.002.034l-.009.015c.014.016.025.013.028.001a.04.04 0 0 1 .006-.014l.016.03zm-.065-.035a.187.187 0 0 1-.002.002zm-.015.119l-.003.005.002-.005zm.043-.034c.003-.026.003-.031-.001-.021s-.01.03-.019.063a.308.308 0 0 1-.013.038c-.006.014-.01.018-.01.01a.036.036 0 0 0-.005-.013c-.01-.016-.01-.017-.003-.035l.008-.017a.056.056 0 0 0 .004-.01.014.014 0 0 1-.016-.011c-.004.004-.009.015-.014.016a.022.022 0 0 0-.012.014.062.062 0 0 1-.006.013.045.045 0 0 0-.005.015.015.015 0 0 1-.008.01l-.004-.013a.015.015 0 0 1-.016.013.07.07 0 0 0-.015.027l-.013.023a.141.141 0 0 1-.032.048.217.217 0 0 1-.023.02.172.172 0 0 0-.027.023l-.009.01-.004.006c-.008.001-.025.046-.025.06-.008.021-.01.027-.014.047a.551.551 0 0 1-.007.038l-.002.016a.112.112 0 0 1-.016.04c.004.025.007.024.023.007a.06.06 0 0 1 .027-.017c.01-.004.014-.006.017-.013.007-.013.02-.023.053-.046.015-.005.018-.002.021-.003s.005.025 0 .036 0 .005.014-.016.015-.02.003.003-.01.025-.002.01c.004.008.004.016-.001.029s-.005.02.001.02c.022-.013.022-.013.023-.006a.1.1 0 0 1 .026-.023 1.28 1.28 0 0 1 .06-.12l.013-.03a.194.194 0 0 0 .01-.029.35.35 0 0 1 .006-.024.092.092 0 0 0 .004-.029l.001-.022v-.008-.017a.062.062 0 0 0 0-.024.04.04 0 0 1 0-.021.44.44 0 0 0 .007-.042c-.002-.018-.002-.024 0-.045zm-.001.357l-.004.003-.003-.018.003-.017a.133.133 0 0 1-.017.053l-.006.012c-.003.015-.003.018-.007.026l-.004.011a.17.17 0 0 0 .021-.038l.005-.008s.009-.015.012-.024zm-.042.068l-.002-.003a.338.338 0 0 1-.034.054.29.29 0 0 0-.03.046c.01.005.017-.005.027-.025.006-.014.016-.028.015-.024l.002-.003a.218.218 0 0 1 .011-.02c.01-.017.014-.027.01-.025zm-.097.048l-.01.005-.005.017c-.004.02-.004.027.004.015l.011-.016c.011-.024.011-.026 0-.02zm-.022-.063l-.004.004zm-.104-1.615l-.004-.001a.023.023 0 0 0 .005.006v-.005zm.101-.029l-.002-.001.002.005v-.004zm-1.308-.176zm-.063.023zm-.101.045c.005.003.015-.006.015-.016-.022.003-.023.012-.015.016zm-.017-.008zm.38.474zm-.138-.011a.036.036 0 0 0 .017 0c-.019-.003-.022-.003-.017 0zm-.204-.053l.022.012c.009-.031.008-.032-.016-.032-.013 0-.024.003-.025.006s.009.01.02.014zm-.073-.097c.005-.026 0-.03-.005-.023s0 .023.005.023zm-.015.036c0 .012.002.023.002.023.011 0 .02-.01.02-.027s-.002-.024-.013-.021c-.005.001-.008.01-.01.025zm-.095.01zm1.473.535a1 1 0 0 0 .02.045.297.297 0 0 1 .018.067c.005.025.012.045.012.045s.026.04.028.052c.007.03.018.074.03.073l.005-.049c.003-.019-.022-.047-.035-.053a.09.09 0 0 0-.02-.039c-.01-.014-.012-.019-.015-.058-.002-.03 0-.045.005-.026l.025.028a.138.138 0 0 0 .02.025.063.063 0 0 0 .014.031c.003 0 .008-.022.007-.028.005-.007.009-.013.011-.02s.003-.017-.003-.04a.19.19 0 0 0-.039-.077c-.023-.032-.027-.046-.022-.07s.018-.027.023-.01a.066.066 0 0 0 .008.018c-.009.007-.008.03.001.037.01-.023.008-.028.005-.032-.01-.015-.01-.027 0-.036.006-.025.007-.026.009-.021.006.01.02 0 .024-.018a.128.128 0 0 0 .005-.043l-.002-.009v-.021c0-.034-.004-.052-.014-.054h-.004l.002-.006c.004-.007-.001-.023-.016-.05a.164.164 0 0 0-.024-.037c-.005-.004-.002-.035.004-.04-.013-.018-.017-.018-.017-.013a.021.021 0 0 0-.019-.016c-.007-.003-.014-.02-.008-.02.011-.029.014-.033.017-.031.005.03.011.038.015.029.02.001.02.002.023.014s.006.02.013.021c.01.02.02.049.026.063.015-.007.015-.009.009-.028a.14.14 0 0 0-.022-.045c-.009-.013-.015-.026-.015-.026a.047.047 0 0 0 .004-.03.058.058 0 0 1 0-.021c.019.004.022-.008.019-.062a.181.181 0 0 0-.011-.068.203.203 0 0 1-.01-.03c-.003-.024-.033-.066-.035-.05l-.022-.019-.007-.003.003-.008a.203.203 0 0 0 .004-.021c.004-.044-.013-.052.01-.04.013-.005.029.006.031.013l.017.005c-.006-.009-.006-.012-.006-.025.023.009.027.012.028.004l.001-.011c.004-.007.01.015.008.028a.076.076 0 0 0 0 .02c-.006.016-.003.036.007.056a.824.824 0 0 0 .02.042l.016.033v-.029l-.001-.011c.002-.012.002-.015-.002-.023a.032.032 0 0 0-.005-.022l-.005-.01c-.011-.013-.012-.017-.015-.034.011-.017.016-.016.023-.008a1.828 1.828 0 0 0-.116-.166l-.004-.005v-.002l-.005-.005-.002-.002-.018-.022a.117.117 0 0 0-.021-.012c-.023-.01-.011-.007-.02-.02s-.028-.02-.025-.011c-.005-.008-.008-.012-.017-.015l-.016-.008-.008-.003c.008.019.008.02.002.015a.096.096 0 0 0-.029-.01c-.015.008-.022.003-.038-.014.001-.006-.008-.018-.013-.02a.204.204 0 0 0-.03-.024c-.009.006-.011.007-.022.003a.07.07 0 0 1-.023-.012.112.112 0 0 0-.03-.015.33.33 0 0 1-.035-.015c-.029.005-.037-.001-.029-.003l.013-.006.015-.006a.038.038 0 0 0-.006-.022.217.217 0 0 1-.013-.009.07.07 0 0 0-.021-.01c-.014-.002-.031-.01-.032-.016s-.022-.017-.031-.012c-.011.016-.017.015-.027.013-.03-.008-.078-.005-.084.004l-.004.005.008.006c.005.004-.001.005-.02.003l-.031-.001c-.005 0 .013.022.022.028-.018-.003-.03-.01-.037-.012-.019.003-.019.007-.006.017-.011.001-.013-.002-.017-.012a.082.082 0 0 0-.008-.016c-.011.021-.01.023-.002.031.007.03.013.037.029.04s.03.014.03.026c-.007-.012-.019-.022-.029-.019.003.022.003.028-.004.035s-.033.012-.04.001c.02.003.022.001.026-.013s.003-.017-.004-.024a.072.072 0 0 1-.012-.027.07.07 0 0 0-.01-.024c-.005-.024-.011-.033-.021-.035-.021-.003-.023.001-.023.007a.029.029 0 0 1-.006.018.01.01 0 0 1 .003.025c.037.035.032.04.002.023a.325.325 0 0 0-.05-.023.546.546 0 0 1-.033-.012c.02.018.024.026.018.033-.012-.007-.019-.008-.039-.005s-.026.001-.029-.004a.047.047 0 0 1-.022.002c-.018.003-.038.014-.038.02s-.016.01-.026.003c.009-.014.008-.022 0-.028s-.03-.007-.025 0a.02.02 0 0 0 .01.027c.008.009.001.02-.01.015-.005-.003-.014-.002-.021.003-.015.009-.016.01-.008.021a.103.103 0 0 1-.034-.002c.009.017.013.028.005.027a.072.072 0 0 1-.036-.024.04.04 0 0 1-.004-.017c-.03-.022-.016-.023.018-.013s.037.007.046 0a.28.28 0 0 0-.117-.074c-.017-.005-.02-.006-.013-.01-.011-.013-.018-.015-.02-.013a.036.036 0 0 1-.024-.001.023.023 0 0 0-.012.008.045.045 0 0 0-.024-.001c-.016.001-.024.003-.029.008-.025-.005-.029-.005-.026.002l-.016.005c.005.016-.008.021-.017.012.011.002.002.016-.018.032a.098.098 0 0 0-.028.034c-.004.01-.01.018-.013.018-.011.008-.017.012-.022.019-.019.007-.022.009-.022.014a.079.079 0 0 0-.03.02c-.018.011-.024.03-.015.046-.009.023-.008.023.001.02-.008.016-.005.019.014.025.01.003.018 0 .031-.01s.017-.015.017-.019a.032.032 0 0 1 .011.017.04.04 0 0 0 .015.036c.005.015.005.023.007.028.004.011.02.01.02 0 .029-.006.038-.018.036-.038s0-.019.01-.025a.084.084 0 0 0 .017-.016c-.006-.022-.012-.026-.015-.026-.005-.03.006-.047.025-.057s.027-.02.024-.027.015-.024.033-.022.024.012.013.021c-.042.035-.046.04-.043.05a.11.11 0 0 1 .003.022c0 .02.019.03.048.025l.035-.005c.012-.002.025.007.021.014s-.014.005-.03.005c-.034.001-.045.005-.045.014.013.012.015.017.014.025-.002.017-.006.02-.017.009-.016-.017-.028-.003-.027.03 0 .017 0 .021-.007.021-.009.014-.027.014-.033.006s-.014-.003-.033.006-.032.01-.035.007a.07.07 0 0 0-.028-.004c-.025 0-.038-.01-.033-.025a.022.022 0 0 1 .01-.013c.002-.017.002-.024.004-.028-.02.009-.026.011-.028.009s-.004.002-.003.02c.003.045.002.05-.009.05-.031.002-.034.003-.038.016-.007 0-.012.003-.021.017a.065.065 0 0 1-.026.024c-.007.003-.014.009-.016.014a.06.06 0 0 1-.018.02c-.012.007-.017.008-.023.002-.01.018-.014.02-.022.02-.022-.002-.03 0-.032.01.026.009.045.039.042.062a.15.15 0 0 1-.008.032c-.006.015-.007.016-.046.014a.248.248 0 0 1-.045-.004c-.026.011-.027.014-.029.04a.204.204 0 0 1-.011.048c-.007.015-.008.022-.005.028a.049.049 0 0 1 0 .023c.024.008.03.01.035.02s.011.012.022.007a.092.092 0 0 1 .03-.008c.012 0 .02-.003.022-.01.018-.01.033-.036.033-.05s.023-.04.042-.049c.011-.005.016-.011.018-.024.004-.021.021-.03.037-.02.007.005.015.003.033-.009a.13.13 0 0 1 .03-.016c.002 0 .014.012.025.028a.223.223 0 0 0 .051.049c.033.02.041.033.035.06.023-.019.024-.023.018-.028.004-.02.007-.02.015-.014.017.001-.016-.025-.024-.025a.19.19 0 0 1-.041-.038.092.092 0 0 0-.022-.026c-.004-.034.014-.044.018-.029.015.004.02.009.025.021s.014.02.021.023a.149.149 0 0 1 .033.02c.014.012.02.021.02.034s.006.026.02.042.018.027.015.027.016.032.025.032c.002-.016.005-.021.014-.025.019-.01.011-.026-.01-.021-.001-.014-.002-.02-.005-.022.009-.011.016-.013.019-.019.01-.02.045-.007.04.014.008.01.01.015.009.026.005.016.008.021.008.026s.007.013.015.017l.024.015c.01.006.014.005.02-.003s.009-.01.021 0 .035.013.038.004l.033-.01v.027a.292.292 0 0 1-.007.061c-.01.042-.024.054-.046.039-.012-.008-.016-.009-.029-.002s-.028.01-.053 0a.997.997 0 0 0-.048-.015c-.017-.005-.03-.01-.03-.014-.033-.015-.056 0-.056.018a.054.054 0 0 1-.006.023c-.006.01-.01.01-.03-.003a.114.114 0 0 0-.035-.012.02.02 0 0 1-.017-.012c-.006-.012-.042-.03-.049-.024s-.05-.021-.05-.026c.022-.026.022-.03.017-.039s-.005-.012 0-.022c-.009-.013-.016-.015-.027-.012a.953.953 0 0 1-.072.008c-.038.003-.088.01-.114.037-.006.006-.055.003-.06-.005s-.01-.007-.018.014a.076.076 0 0 1-.027.032c-.022.014-.046.05-.045.07s-.016.038-.045.056a.204.204 0 0 0-.056.07.06.06 0 0 1-.012.021.398.398 0 0 0-.027.042c-.014.026-.015.03-.01.04s.005.024-.001.063a.2.2 0 0 1-.026.07.078.078 0 0 1-.001.05c-.004.014-.002.018.007.022l.025.042a.115.115 0 0 1 .015.04c.002.028.045.06.068.083.013.012.016.013.066 0a.103.103 0 0 1 .047 0c.017.005.028.003.056-.01s.072-.032.102-.014c.008.007.014.015.014.02 0 .017.01.023.039.018.023-.003.027-.001.043.013.01.01.016.02.014.026a.181.181 0 0 0-.004.041.109.109 0 0 1-.007.038c-.007.01.004.03.038.065.029.033.053.075.06.12l.01.043c.004.018.002.025-.007.036a.153.153 0 0 0-.024.085c.004.031.03.065.05.091a.136.136 0 0 1 .015.048c.006.038.016.062.029.073s.043.068.04.075.007.029.02.034a.023.023 0 0 0 .023 0 .112.112 0 0 1 .04-.01c.046-.003.092-.02.121-.062a.714.714 0 0 1 .03-.035.063.063 0 0 0 .019-.041c.004-.024.004-.026.027-.037s.023-.013.025-.032a.163.163 0 0 0-.001-.043c-.003-.019-.003-.02.008-.03a.201.201 0 0 0 .027-.025.091.091 0 0 1 .03-.024.094.094 0 0 0 .03-.021c.011-.014.013-.02.017-.065.004-.037.003-.051-.002-.056s-.007-.018-.006-.034-.001-.034-.004-.041 0-.02.013-.045a.295.295 0 0 1 .032-.05 2.47 2.47 0 0 0 .045-.05.254.254 0 0 1 .043-.044.187.187 0 0 0 .064-.11.471.471 0 0 1 .012-.047.151.151 0 0 0 .001-.038c-.002-.03-.003-.031-.01-.026a1.943 1.943 0 0 1-.103.033l-.015-.017c-.009-.01-.012-.018-.009-.02s-.029-.045-.056-.066a.078.078 0 0 1-.03-.042.107.107 0 0 0-.022-.039c-.01-.01-.017-.023-.022-.045a.11.11 0 0 0-.021-.048.088.088 0 0 1-.017-.028.182.182 0 0 0-.015-.036 1.999 1.999 0 0 0-.045-.09c-.007-.01-.011-.02-.009-.02s.01.01.016.021c.015.027.026.032.024.011a.649.649 0 0 0 .029.039.235.235 0 0 1 .024.041c0 .004.007.012.013.018a.098.098 0 0 1 .03.06c.002.01.01.022.022.034s.02.02.02.025.01.02.02.034.02.032.02.04c.004.025.022.073.029.077a.04.04 0 0 1 .036-.017.043.043 0 0 0 .017-.006l.012-.004a.117.117 0 0 1 .04-.03.059.059 0 0 0 .024-.023.037.037 0 0 1 .024-.02c.01-.002.017-.007.016-.012.012-.01.015-.013.014-.016.013-.018.016-.024.014-.026-.005-.007-.002-.025.003-.025s.007-.01.01-.02l.005-.021a.563.563 0 0 0-.012-.015.06.06 0 0 0-.024-.018c-.015-.005-.022-.015-.028-.037l-.005-.018-.01.021c-.02.036-.057.035-.057 0 0-.02-.011-.026-.012-.008a.078.078 0 0 0-.028-.039.095.095 0 0 1-.02-.029c-.013-.024-.013-.024-.006-.032.014-.012.025-.007.039.02s.046.06.076.054c.009-.019.019-.014.026.003a.075.075 0 0 0 .01.019c.033.012.085.02.119.008.001-.002.01.006.02.018.021.028.04.045.045.04-.011.009-.01.011.005.029s.03.02.03-.003c.012.014.016.024.016.028.007.04.024.08.042.117a.258.258 0 0 1 .016.035l.017.034a.53.53 0 0 1 .023.047c.013.033.02.033.03.004a.192.192 0 0 0-.007-.106c-.006-.025-.007-.03-.002-.033a.17.17 0 0 0 .028-.068c.004-.01.008-.02.01-.02s.01-.012.006-.025a.017.017 0 0 1 0-.012l.015-.003a.063.063 0 0 1 .013-.003c0-.028.01-.018.023.007a.098.098 0 0 0 .02.029c.009.02.013.025.013.025s.017.03.017.044c.016.022.018.02.022.005l.004-.015.01.025h-.002zm-.137.165c-.013-.025-.017-.027-.017-.013a.17.17 0 0 0 .015.06c.021-.008.019-.018.002-.048zm-.233 1.36a.005.005 0 0 0 0 0zm-.167-1.432zm-.02.7l-.004-.004zm-.014.576zm-.161-.569c-.011.015-.013.022-.013.042-.002.034.007.045.029.038a.062.062 0 0 0 .02-.008c.024-.035.042-.092.06-.14a.132.132 0 0 1 .006-.015.033.033 0 0 0 .004-.017c.012-.006.012-.009.013-.027s-.005-.051-.009-.051l-.004.004a.042.042 0 0 1-.016.032.194.194 0 0 0-.018.022.072.072 0 0 1-.027.02c-.027.012-.038.03-.035.06.002.02 0 .025-.01.04zm-.678 1.055l-.002-.007zm-.165.032a.02.02 0 0 0 .001-.004v.004zm1.319-.243l-.028.006H6.54l-.012.006c-.018.002-.024.001-.021-.003a.159.159 0 0 1-.028.006l-.02.004-.002-.005c-.004.007-.006.008-.017.012a.046.046 0 0 0-.019.011c-.016.003-.018.003-.02.005a.255.255 0 0 1-.052.021c-.011.003-.022.003-.024-.001s-.018.003-.027.012-.009.006-.03.007-.025 0-.035.007a.039.039 0 0 0-.007.005h-.001a.037.037 0 0 1-.013.01.157.157 0 0 0-.055.022.097.097 0 0 0-.02.012.212.212 0 0 1-.034.019.103.103 0 0 0-.024.013.015.015 0 0 1-.006.004l-.01.008c-.01.012-.027.023-.033.021l.018-.021a.014.014 0 0 1 0-.012.07.07 0 0 0 .023-.022c0-.002-.008-.004-.022-.003a.237.237 0 0 1-.072-.002l-.004-.007c-.009-.008-.05.002-.053.014-.016.004-.018.004-.019.008l-.029.006a.106.106 0 0 1-.018.008.106.106 0 0 0-.041.019c-.007.007-.02.01-.02.005-.023-.014-.026-.014-.031-.01-.013.01-.023.015-.058.022a.213.213 0 0 1-.06.003.22.22 0 0 0-.081 0 .243.243 0 0 0-.09.001.096.096 0 0 1-.053.005c-.015-.002-.027-.006-.026-.008-.023.011-.024.012-.029.004-.02-.002-.026-.001-.029-.003a.03.03 0 0 1-.013.018c-.023.007-.027.009-.027.013.02.003.019.004.004.011-.01.004-.017.01-.018.012-.049-.003-.153-.001-.157.017 0 0 .033.02.037.018h.02a.054.054 0 0 0 .003.011l.01.01a1.785 1.785 0 0 0 1.379-.32zm-1.495-.18a.035.035 0 0 0-.013-.006c.01.012.018.013.013.007zm-.022.453a.037.037 0 0 1-.007-.012c-.002-.009-.03-.019-.047-.017-.012.016-.017.019-.027.018h-.008l.073.022h.017zm-.094-2.927c.014.014.017.017.022.017s.012-.004.022-.02a.086.086 0 0 0 .013-.027c0-.004.006-.01.015-.017.016-.01.02-.018.015-.022.008-.02.01-.023.023-.026a.066.066 0 0 0 .025-.015.106.106 0 0 1 .029-.004.085.085 0 0 0 .03-.02c.007-.007-.05-.013-.049-.013a.32.32 0 0 0 .071-.01c.012.006.056-.004.093-.022.023-.01.025-.013.02-.017a.065.065 0 0 0-.022-.005c.003-.024.005-.025.01-.021.009.017.036.02.038.014s-.01-.028-.02-.031-.017-.022-.008-.022c.003.012.02.024.024.02l-.016-.029c.022.009.044.005.046-.005l.02-.013h-.01c.01-.025.002-.036-.006-.036l.004-.007.004-.004c.027-.006.025-.01.014-.011-.012-.011-.015-.012-.02-.01l-.007.004.009-.012c.016-.012.02-.016.021-.02l.024-.014a.125.125 0 0 1 .042-.024.457.457 0 0 1 .019-.007l-.019-.005a.049.049 0 0 0-.033.002.049.049 0 0 1-.023.004c-.005-.002-.016 0-.024.005a.053.053 0 0 1-.015.004l.002-.002.01-.01c-.023-.003-.029-.004-.027-.007.025-.006.033-.009.034-.012a.283.283 0 0 0-.14-.012c-.011.001-.02.005-.022.008s-.018.005-.038.005-.034.003-.028.005c.002.023.001.023-.023.016s-.03-.007-.03.003c-.02.001-.023.002-.026.006-.01-.008-.077.01-.08.02a.137.137 0 0 0-.068.032c.013.012.006.016-.017.023-.04.013-.05.017-.052.02s.025.013.03.008c-.027.013-.028.013-.023.015a.02.02 0 0 1 .008.008c.002.004.014.003.036-.002.035-.007.06-.003.06.01.007.006.01.016.011.026.002.018.001.023-.004.029-.014.014-.013.019.001.014s.017-.001.022.004.007.023 0 .017c-.02-.003-.023-.004-.02-.008l-.018.02.025.006-.004-.008c.024-.003.023-.001.016.011s-.012.016-.016.016-.013.007-.02.014-.014.014-.012.02c-.006.012-.006.017-.003.025a.043.043 0 0 1 0 .021c.022-.005.022-.005.011.007s-.01.013-.004.04.013.035.028.03zm-.058 2.896l-.002-.005-.012-.002.015.007zm-.059-.222l.003.008zm.028.127l-.01-.007-.011-.013c-.006-.017-.009-.02-.014-.023-.007-.012-.031-.034-.037-.034-.014-.015-.015-.02-.015-.02.02-.007.022-.01.022-.013 0-.009.013-.016.023-.013l.021-.01a.083.083 0 0 1-.01-.002h-.01l-.009.003a.09.09 0 0 0-.034.01.05.05 0 0 1-.014.01c-.002.014-.001.016.002.025-.014.007-.014.005.008.036a.252.252 0 0 1 .012.017c.003.006-.008.008-.033.004s-.028-.006-.033-.013l-.034-.008a.102.102 0 0 1-.015-.007c-.01.004-.014.003-.03-.004a.104.104 0 0 1-.022-.012.04.04 0 0 0-.014-.006.044.044 0 0 1-.015-.008.45.45 0 0 1-.126-.048l.016.01a.046.046 0 0 1 .007.012.061.061 0 0 0 .007.005l.006.004a1.75 1.75 0 0 0 .222.126.061.061 0 0 0-.018-.01c-.018-.012-.016-.012-.008-.008a.22.22 0 0 0 .061.023c-.031-.017-.056-.035-.053-.039s.012.004.023.01a.135.135 0 0 0 .06.02l.029.003c.013 0 .02 0 .02-.004.016-.011.016-.015.014-.016h.012zm-.067.048a.027.027 0 0 0-.012.003l.014.006.01-.001zm-.303-.183l-.015-.006a.043.043 0 0 1 .008.007.54.54 0 0 1 .026.011c.022.008.005-.003-.02-.012zm.004-.431l.002.01zm.073.467a.016.016 0 0 0-.005-.004v.003a.029.029 0 0 0 .004.005v-.004zm.024-.3zm.021.003zm.066.332a.023.023 0 0 0 .003.008zm.067-.039zm-.052.016l.001-.002zm-.004.01l.01.004zm.05.03c.038.014.038.005.011-.026-.017-.018-.02-.02-.028-.02a.11.11 0 0 1 .003.02l-.012.008h-.008l.03.012zm.034-.087zm-.496-1.71c-.002.006.032.015.038.01a.058.058 0 0 1 .02-.003l.009-.019c-.01-.015-.044-.023-.041-.01s-.005.026-.015.022zm.004-.133l-.001-.007zm-.033.137c-.004-.009-.018-.01-.019-.002.019.008.021.007.019.002zm.008-.047c.029.012.042.003.032-.005a.129.129 0 0 1-.015-.017c-.032-.042-.04-.048-.06-.04a.058.058 0 0 0-.02.014.046.046 0 0 0 .016-.004c.013.005.014.008.019.009.019.013.022.018.021.023.011.01.011.014.007.02zm.12.052zm.018.178zm.26-.797a.046.046 0 0 1-.01-.009c.015.015.015.013.01.009zm.036-.065c-.003-.01-.017-.013-.015-.003.017.012.017.012.015.003zm.096 0c-.015-.011-.019-.014-.022-.011s.002-.008.017-.025 0-.013-.017.006a.183.183 0 0 0-.022.028.053.053 0 0 1-.01.012c-.009.014-.015.019-.015.019-.007.009.003.011.019.01.022 0 .026 0 .02.007-.013.015 0 .008.02-.012.01-.01.016-.016.012-.014.009-.023.009-.024-.002-.02zm.002.035c-.02.016-.02.018-.015.022l.015-.022zm-.27-.111a.014.014 0 0 0-.007.003zm.051-.066l.004.002zm.035-.129a.018.018 0 0 0-.011.006.02.02 0 0 0 .014-.001zm.025.008zm.005-.027c-.003-.014-.012-.024-.022-.026l.004-.013-.007.004a.066.066 0 0 0-.015.017.152.152 0 0 1-.019.023c.008.011.011.011.023.002s.015-.01.02-.006zm.023.004zm.053-.114l-.007.008c.02-.019.02-.019.007-.008zm.027.024h.007zm.001-.014l-.012.006c-.015.005-.028.024-.016.023s.016-.006.024-.02l.004-.009zm-.657.375l.009-.014a.012.012 0 0 0-.004-.006c-.002.003-.005.02-.005.02zm-.035-.072a.049.049 0 0 1-.013.011zm.415 2.211c.013.016.009.019.009.019.013.009.017.012.017.014a.033.033 0 0 0 .038.009c.015.001.02-.006.006-.008a.098.098 0 0 1-.04-.031c-.017-.016-.019-.017-.014-.016-.01-.027-.011-.034-.003-.032a.02.02 0 0 1 .013-.026c.01-.006.009-.02-.002-.023-.018-.003-.027-.032-.011-.034a.09.09 0 0 0 .008-.037.056.056 0 0 1-.009-.023c.028 0 .03 0 .03-.012a.048.048 0 0 0-.003-.02c.038 0 .052-.004.058-.016s.007-.025 0-.026a.036.036 0 0 0-.018-.028c-.001-.007.012-.001.024.002.02.006.023.005.031-.006a.078.078 0 0 0 .012-.031c.003-.022.01-.037.014-.033a1.12 1.12 0 0 1 .015-.017.064.064 0 0 0 .005-.041c-.003-.014-.002-.03.001-.035.008-.014.052-.036.069-.035s.03-.01.028-.02l.007-.025a.103.103 0 0 0 .006-.024l.001-.024a.294.294 0 0 0 0-.058c-.004-.026-.003-.038.003-.047.018-.028.04-.059.05-.092a.139.139 0 0 0-.007-.042c-.007-.021-.01-.027-.02-.028a.119.119 0 0 1-.04-.03c-.024-.024-.034-.03-.051-.032a.075.075 0 0 1-.03-.01c-.007-.004-.015-.006-.021-.003-.012-.019-.019-.025-.042-.038a1.948 1.948 0 0 0-.027-.017l-.009.018c.002-.017-.001-.028-.018-.034-.009-.004-.013-.002-.018.011-.009-.004-.006-.018 0-.028.009-.016.01-.019.001-.028a.108.108 0 0 1-.014-.03c-.004-.012-.013-.033-.02-.046-.01-.02-.015-.024-.04-.03s-.029-.008-.04-.036c-.007-.02-.014-.03-.02-.031 0-.024-.001-.027-.008-.031-.01-.025-.013-.026-.03-.019s-.02.005-.022-.001c-.024-.005-.029-.008-.031-.018a.006.006 0 0 1-.013-.02c-.013.011-.019.013-.022.017.012-.033.009-.035-.008-.022-.008.006-.017.011-.02.01a.013.013 0 0 0-.009.004l-.014.006a.117.117 0 0 1-.024.035c-.015.018-.015.018-.019.006-.005-.02-.013-.024-.029-.015a.075.075 0 0 1-.025-.026c-.001-.016 0-.021.015-.058s.017-.041.015-.052-.007-.012-.023-.013c-.03-.002-.03-.002-.022-.01a.157.157 0 0 0 .014-.03c.005-.012.01-.02.01-.018a.297.297 0 0 1 .024-.04c.013-.021.012-.025-.005-.022s-.028.01-.035.029-.023.035-.025.029c-.031.009-.038-.004-.034-.039a.173.173 0 0 1 .017-.068.216.216 0 0 1 .02-.04.061.061 0 0 0 .009-.02c.007-.021.025-.048.032-.048.024-.02.044-.021.062-.01.018-.022.02-.023.036-.022.01 0 .02.004.02.009.021-.005.026.02.017.036a.057.057 0 0 0-.006.026c0 .008 0 .017-.002.02s0 .022.004.022a.28.28 0 0 0 .032-.091.148.148 0 0 1 .006-.026c.005-.012.023-.038.027-.037s.01-.007.017-.016.016-.015.018-.015c.016-.014.022-.018.026-.018.009-.016.011-.019.012-.016.015-.021.017-.028.017-.031 0-.009.009-.036.016-.044-.007.03-.007.032 0 .022a.072.072 0 0 0 .01-.021c.013-.009.019-.014.024-.024s.011-.015.017-.015c.005-.009.011-.013.024-.016s.019-.005.018-.011c0-.015.019-.039.038-.047l.027-.015a.087.087 0 0 1 .013-.008l.016-.005c-.017.015-.023.033-.021.037a.09.09 0 0 1 .036-.02c.014-.003.039-.02.042-.028.011-.004.011-.01.013-.016-.02.018-.026.021-.035.019s-.02-.017-.014-.033a.028.028 0 0 0 .019-.031c-.031-.007-.052.005-.076.028a.255.255 0 0 1 .063-.056c.01-.007.019-.008.044-.006s.034.002.048-.01a.17.17 0 0 1 .034-.018c.015-.006.018-.009.024-.024s.006-.018-.003-.025c-.005-.019-.01-.022-.01-.024l-.008-.002a.026.026 0 0 0-.01-.019.02.02 0 0 1 .001-.016.127.127 0 0 0 .002-.043l-.002-.034-.016.019c-.02.021-.037.03-.039.02-.013-.002-.013-.004-.004-.024s.01-.02.002-.024c-.004-.015-.014-.025-.026-.023a.06.06 0 0 1-.02-.002.164.164 0 0 0-.027.032.09.09 0 0 1-.02.035c-.002.025-.008.045-.019.061a.102.102 0 0 1-.025.021l-.018.012-.007.022c-.01.031-.013.037-.025.045a.057.057 0 0 1-.012-.037c.02-.039.02-.04.005-.039-.014-.007-.016-.009-.019-.009-.013-.018-.02-.023-.03-.022-.006-.022-.007-.029-.01-.03s-.002-.013.02-.04.043-.044.051-.045c.009-.012.024-.023.033-.025s.053-.044.05-.049h.007a.014.014 0 0 1 .024-.005.06.06 0 0 0 .018-.01.172.172 0 0 1 .01-.006l-.001-.008c.005-.016.01-.017.012-.021l-.013-.018s.01-.003.024-.003c.02-.002.026-.004.028-.01.009.015.011.015.016.013.028.022.021.042-.003.055-.01.017-.012.019-.022.021-.022 0-.035.01-.04.02-.002.003.007.003.021.001s.024-.003.025.003c.002.018.009.031.016.026l.028.016c.008.005.01-.01.001-.021s-.005-.02.008-.006c.026-.008.028-.012.027-.023l-.011-.021c.017-.026.02-.023.025-.006l.021-.002.03-.025-.012-.002c-.009-.012-.013-.015-.019-.017-.022-.004-.027-.02-.008-.024a.01.01 0 0 0 .009-.016c-.007-.01-.009-.011-.02-.01 0-.011-.014-.017-.021-.011-.011-.013-.015-.019-.018-.019.005-.012-.007-.018-.021-.016-.019.013-.02.013-.018.008-.037.006-.046.013-.052.026-.005.022-.006.022-.01.015l.008-.022a.054.054 0 0 1 .011-.012c-.017-.003-.029.005-.044.023s-.013.015-.014.025.004.012.017.013c.002.016 0 .021-.008.028a.048.048 0 0 1-.014.01c-.012.018-.018.02-.018.012.011-.018.012-.02.009-.025-.026.017-.027.017-.021.004.006-.023.005-.048 0-.047.016-.018.022-.022.024-.02a.099.099 0 0 0 .034-.025c.003-.004-.04.006-.046.012a.027.027 0 0 0-.01.015c-.005.014-.009.02-.019.026a.046.046 0 0 0-.015.017c.008.017.008.019.004.022.006.004-.004.015-.015.019a.025.025 0 0 0-.013.014l.007-.019c-.026-.002-.028 0-.024-.001-.016.025-.054.028-.057.019s-.025 0-.028.007a.034.034 0 0 1 .024-.007l-.012.007a.03.03 0 0 0-.015.015.052.052 0 0 1-.01.013c.008-.015-.003-.017-.029-.01a.03.03 0 0 1-.006-.007c-.013-.005-.023-.005-.028-.007a.024.024 0 0 0-.02.002c-.024.011-.026.011-.024.002a.068.068 0 0 1-.024.009.16.16 0 0 0-.046.025c-.027.002-.017-.008-.042.001l-.011.002-.01.001a.039.039 0 0 1-.007.002l-.007.003-.012.01a.295.295 0 0 0-.021.015c-.016.017-.03.035-.045.054l.003-.003a.018.018 0 0 1-.013.015l-.018.023.007-.005a.486.486 0 0 0-.006.013.078.078 0 0 1-.017.013l-.038.055c-.009.017-.009.018-.003.014a.02.02 0 0 1 .016-.006.213.213 0 0 1-.028.035.372.372 0 0 0-.018.017l-.014.013a.23.23 0 0 1 .01-.008.16.16 0 0 0 .02-.016l.015-.012.005-.004a.384.384 0 0 0 .031-.029c0-.005.008-.015.015-.019a.064.064 0 0 0 .008-.008.111.111 0 0 1 .027-.024.17.17 0 0 0-.023.026l-.003.005a.08.08 0 0 1 .023-.015c.013-.017.015-.018.017-.013.009.007.003.02.003.025l.008.003c-.008.01-.018.035-.015.034s.015-.026.015-.03l.009-.011a.034.034 0 0 1-.004.01l-.006.01v.005l.006-.008-.014.019a.066.066 0 0 0-.007.027l.01-.013-.002.024c-.012.019-.013.023 0 .01-.01.016-.011.018-.007.015l-.005.019c-.003.022-.006.021-.01.015l-.004.002c-.004.007.004.041.009.038.002-.022.006-.034.01-.035l-.001.005v.007c.004.003.003.011-.003.025-.015 0-.016 0-.02.013a.25.25 0 0 1-.026.049c-.019.032-.039.065-.053.1l-.003.01c-.007.012-.01.03-.005.027a.107.107 0 0 0-.012.036.233.233 0 0 1-.007.028c.012.012.012.023.001.062a.27.27 0 0 0-.008.049c0 .013 0 .015-.007.021s-.008.005 0 .034c0 .006-.001.014-.003.02s-.003.05.001.045.007-.02.004-.022 0-.013.003-.025l.006-.026.003-.029a.313.313 0 0 0 .003-.031c0-.003.003-.014.007-.024.007-.019.007-.019.011-.013s.002.013-.002.027a.228.228 0 0 0-.006.05v.033.034c0 .035-.002.061-.011.076a.06.06 0 0 0-.007.016c-.001.01.005.036.01.041a.045.045 0 0 1 .008.012.127.127 0 0 0 .017.026c.013.017.015.018.026.01s.016-.004.02.024c.003.017.022.039.036.04a.068.068 0 0 0 .006.029.08.08 0 0 1 0 .032c.008.018.013.029.01.038.012.013.017.02.019.026.006.013.014.015.015.004s.018-.03.02-.024a.132.132 0 0 1 .003.03c-.001.027-.009.107-.02.111-.005.026-.006.033-.009.032a.15.15 0 0 0-.008.067c.016.014.016.029.008.039s-.003.047.013.069a.371.371 0 0 1 .027.057l.031.072a.153.153 0 0 1 .014.035c0 .01.023.04.049.062s.046.05.05.087c.009.045.018.09.02.137 0 .015.002.03.004.034-.001.012 0 .022.004.034a.19.19 0 0 1 .007.084.08.08 0 0 0 .004.041c.004.009.006.019.005.022a.072.072 0 0 0 .002.024c.003.01.004.023.005.028.013-.018.017-.005.021.024l.002.02c-.009.009-.015.009-.018.013.015.006.019.013.025.043l-.008-.008-.005.001c.011.03.011.031.013.025.005.018.006.02.01.02s.01.005.02.022c.007.011.011.021.009.02v.006c.017.004.02.004.02.007zm-.453-1.06a.026.026 0 0 0-.003-.01zm-.249-.475l-.005.009h.004a.042.042 0 0 0 .001-.009zm.561-.972l.005.004c.005.004.023-.002.029-.012a.11.11 0 0 1 .027-.021l.008-.005-.013.011-.012.012.006.001-.009.012c0 .003.008.002.02-.002s.021-.004.02-.002a.076.076 0 0 0-.033.012.645.645 0 0 1-.013.007l.003.005c.014.013.056-.002.069-.012.023.002.05-.01.044-.017a.113.113 0 0 0 .017-.008l-.005-.005c-.012-.004-.012-.01-.008-.021s.007-.018.013-.024a.074.074 0 0 0 .009-.01c.003-.005-.014.001-.019.007a.027.027 0 0 1-.01.007c-.015.027-.021.031-.018.017-.018.005-.02.005-.018.001-.019.005-.02.005-.017 0-.003-.009-.01-.015-.018-.012a.105.105 0 0 1-.017.005.067.067 0 0 0-.02.007l-.025.027-.015.016zm.067-.074l.008-.001.016-.009c.015-.011.018-.013.015-.009s.014-.005.021-.014-.016 0-.04.018l-.02.015zm.03-.006a.023.023 0 0 0-.008.002zm.033-.02c-.01.003-.014.006-.024.016l-.012.012.005-.001a.04.04 0 0 1 .01-.001.026.026 0 0 0 .01-.006.125.125 0 0 1 .047-.011.05.05 0 0 0 .028-.02c-.013-.012-.016-.013-.024-.004-.006.017-.006.017-.014.02-.013-.005-.02-.006-.026-.005zm.015-.023zm.018-.001a.05.05 0 0 0 .016-.009.035.035 0 0 0-.023.008zm.015-.017l.009-.009-.012.008zm.02.04zm.007.025c-.013.005-.015.006-.018.009.012.021.016.021.018.018a.023.023 0 0 1 .012-.008c.01-.002.02-.016.012-.019.01-.016.012-.018.01-.019s-.013.002-.026.007zm.003-.047c.028 0 .029 0 .024.008a.045.045 0 0 0 .028-.018c-.018.007-.024.008-.026.003-.018 0-.023.001-.026.007zm.005-.013zm.022-.03c.015.003.023.003.021.005l-.012-.014zm.05.036l-.025.011.004.002c.01.006.024-.003.021-.013zm.008-.015a.018.018 0 0 1 .008.011l-.003.007c-.001.005.008.004.047-.004a.356.356 0 0 0 .058-.015l.008-.005-.002-.005c-.002-.004-.014-.003-.043.005s-.038.01-.04.003l-.038-.007zm-.004-.023l.002.003h.01l-.009-.016zm-.006-.025zm.05.03l-.004.005.004-.001v-.005zm.002-.006zm-.005-.03c.008.015.017.013.044-.002-.01.017-.014.019-.012.021-.038.022-.026.023.02.012.056-.013.062-.014.054-.018a.034.034 0 0 0 .013-.017.047.047 0 0 0 .032-.016.31.31 0 0 0 .071-.046.323.323 0 0 1 .033-.016c.014-.01.022-.016.034-.02a.073.073 0 0 0 .025-.01c-.04-.018-.115.007-.154.02a.14.14 0 0 0-.034.015.022.022 0 0 1-.015.005.032.032 0 0 0-.018.005.117.117 0 0 1-.024.01c-.017.005-.023.01-.019.016s.017.007.023 0a.023.023 0 0 1 .009-.007c.027.001.04-.001.037.003a.094.094 0 0 1-.027.008c-.017.004-.024.006-.025.01h-.013-.007c-.007-.005-.02-.009-.025-.007-.014.005-.018.007-.02.011a.034.034 0 0 0-.017.016zm.429-.16c.021-.002.018-.004.012-.003zm.368.368a.101.101 0 0 0-.03-.03c-.004.008-.015.012-.027.014a.08.08 0 0 0-.028.007c-.014-.011-.018-.013-.025-.01-.015.006-.02.015-.006.015.013.018.012.028.006.031s.006.005.02.007c.028.003.082-.009.09-.034zm-.19.162zm-.007.093c.008-.015.01-.022.01-.027-.002-.014-.03-.013-.036 0-.019.01-.023.014-.024.022.005.018.003.021-.003.029-.003.02.004.021.01.019a.248.248 0 0 1 .022-.009c.012-.004.024-.023.021-.034zm.1.033c.01-.01.007-.022-.003-.022l-.02-.035c-.008-.021-.012-.028-.016-.03.013-.035.011-.042-.004-.039.002-.019.002-.019-.008-.02a.03.03 0 0 0-.016.006.128.128 0 0 0-.014.025c-.008.016-.008.02-.004.018 0 .017-.001.02.002.015.001.025.002.025.013.022.014.014.016.018.014.024-.022.009-.024.011-.02.019-.01.015-.015.02-.015.023.029.008.029.01.022.011s-.016.007-.022.014a.132.132 0 0 1 .027.001 1.466 1.466 0 0 0 .054-.009c.003-.012.006-.018.01-.023zm.105-.613c.006.02.029.026.038.02a.019.019 0 0 1 .016-.002c-.025.013-.026.014-.018.018.027.025.028.025.031.016l.017-.02c.02-.012.031-.001.028.006s.027.01.032 0c0-.004-.01-.007-.02-.013a.144.144 0 0 0-.027-.014c-.014-.012-.017-.013-.019-.011-.009-.01-.023-.013-.024-.007v.01c-.013-.009-.055-.011-.054-.003zm.104 0c.01.002.023.005.026.007s.045-.007.041-.013-.043-.012-.045-.008-.012.002-.025 0c-.029-.003-.027.008.003.014zm.34.033l.032-.002-.016-.001zm.056.227c.008.013.019.008.018.001zm.037-.04a.031.031 0 0 1 .015.01c.003.004.013.008.023.009l.017.001a1.038 1.038 0 0 0-.014-.012.063.063 0 0 1-.017-.02c-.002-.01.023-.046.03-.044.006-.01.022-.015.059-.019.011-.002.02-.005.019-.008s-.023-.009-.03-.004a.055.055 0 0 1-.021.001c-.026-.002-.057.009-.063.023-.014.011-.015.015-.014.019s-.007.013-.008.019c-.019.01-.006.023.004.025zm-.001-.171zm.019-.003c.003.006.023.008.024.002-.022-.006-.027-.005-.024-.002zm.037.005zm.271.071c.01.011.022.018.045.027s.022.007.017-.002-.006-.011-.015-.015c-.016-.021-.05-.034-.055-.025zm.07.048l.023.004a.17.17 0 0 0 .022.002l-.025-.019-.019.014zm.138.093a.026.026 0 0 0 .004.01l.002-.004a.009.009 0 0 0-.006-.006zm.178.056c.008.007.042.018.04.013s-.005-.008-.022-.017l-.021-.011-.006-.003c-.004.002 0 .01.01.018zm.032.029c.015.015.02.017.016.011s-.016-.014-.016-.011zm.021-.009l.015.01-.01-.01a.268.268 0 0 0-.004-.003zm.241.448l.002.003zm0 .107A.054.054 0 0 1 7 26.266c-.013-.02-.015-.02-.01-.005s.01.03.008.03-.002.016.003.025l.02-.016c.007.001-.001-.017-.01-.02zm.021.098a.084.084 0 0 0-.012-.034l-.01-.02.002.006c-.005-.001-.003.008.004.028a.093.093 0 0 1 .005.048c-.002.023-.003.028-.012.026s-.014.01-.015.034c-.001.011.002.022.004.018.012.036.017.035.014.012-.002-.016-.003-.018-.008-.024.02.007.017-.005.012-.014.011.015.017.015.014.002.009-.01.012-.013.012-.016a.285.285 0 0 1-.01-.066zm.01.465c-.008-.004-.017-.024-.016-.04a.1.1 0 0 0-.004-.025c-.014-.017-.016-.015-.015-.009l.004.021.002.015c.007.025.011.029.011.029l.018.019c.016.014.016.014.012.003zm.011.031l.005.005zm.012.005c.003.015.003.018.007.025 0-.025-.003-.033-.007-.033zm-.045.37zm.046-.338zm0 .008c-.004-.02-.008-.03-.014-.033.002.022.002.024.005.017.003.019.003.022.006.026zm-.029-.048a.037.037 0 0 0-.004-.016l.004.016zm-.003.057c.002-.012.001-.022.001-.022l-.005.02c-.003.027 0 .028.004.002zm-.058-.301l-.003.003a.061.061 0 0 0 0 .02.072.072 0 0 0 .007.027l.006.012v-.012a.234.234 0 0 0-.01-.05zm-.048-.529a.1.1 0 0 0 .012.033l.024.058.02.044a.19.19 0 0 1-.011-.029c-.005-.01-.006-.024-.003-.023a.44.44 0 0 1-.039-.085.03.03 0 0 1-.003.003zm.045 1.137zm-.026-.064zm-.014 0c.002-.026 0-.028-.004-.022s0 .022.004.022zm-.004.083c.03.006.056.003.058-.002-.014-.005-.019-.01-.019-.015-.024 0-.031 0-.034-.005s-.018-.006-.021.004.004.017.016.018zm-.06-.144h-.001zm0 .049l.003-.011-.003.011zm.01-.052l.003.02a.203.203 0 0 1 .004.033c0 .023.017.067.024.064s.007-.007.012-.026.007-.024 0-.044a.062.062 0 0 1-.004-.028.023.023 0 0 0-.001-.017.214.214 0 0 1-.009-.017l-.006-.008s-.008-.012-.014-.027-.023-.028-.026-.028c-.015.005 0 .022.007.041a.15.15 0 0 1 .01.037zm.115.144l-.003.01.004-.006-.001-.004zm.026-.111a.091.091 0 0 0 .015-.037c.013-.018.017-.028.013-.026l-.003-.02.001-.02.002-.004.001-.006c.007-.017.007-.017.002-.023a.157.157 0 0 1-.01-.014c-.013.021-.017.031-.017.031a.102.102 0 0 1-.021.036.04.04 0 0 0-.011.017c-.015.006-.017.007-.019.014s-.008.041-.005.043c0 .031 0 .033.005.032.021.003.025.005.025.009a.071.071 0 0 0 .022-.032zm-.01.105c-.016.02-.016.02-.012.017a.025.025 0 0 1 .01-.006zm0 .02l.002.008-.002-.008zm.054-.03a.081.081 0 0 0-.022.03l.024-.024zm.024-.164c-.004.007-.017.01-.02.003s-.015.017-.017.028a.05.05 0 0 1-.005.015.13.13 0 0 0-.01.046c0 .004 0 .012-.004.023a.088.088 0 0 0 .009-.015.161.161 0 0 1 .007-.023l.001.023.01-.027-.001-.015.01-.013a.031.031 0 0 0-.006-.002c-.005-.026-.002-.027.008-.027s.014-.002.019-.01zm0 .2l-.005.006.005-.006zm.003-.124zm-.017-.202c-.007.008-.008.016-.007.021.018.018.023.024.028.023-.003-.02-.003-.022 0-.019a.18.18 0 0 0-.011-.047l-.003.013zm.03.261a.029.029 0 0 0-.003.009l.005-.011-.002.002zm-.005-.066l.011.003zm.005-.043l.011-.038-.001.004a.531.531 0 0 0-.01.034zm.02-.01l.003-.001-.004.001zm.122.078l.001-.003zM7.422 27c0 1.06-.856 1.919-1.911 1.919A1.915 1.915 0 0 1 3.6 27c0-1.059.855-1.918 1.91-1.918s1.912.859 1.912 1.918zm-.697-.628h0zm-.051-.37v.018c.001.021-.005.05-.012.055a.033.033 0 0 1 .018-.014c.006.001.005-.025 0-.042l-.006-.017zm-.238.155zm.012-.526c-.002-.008-.012-.018-.009-.011zm-.035.515l-.01.004c-.01.005-.014.01-.01.022.008-.01.012-.015.016-.015zm.043.093zm-.147-.59c.008.022.012.022.012.022-.01-.032-.012-.033-.012-.022zm.159-.03v.004l.005.001a.018.018 0 0 0-.005-.005zm.014.503l.014.013a.066.066 0 0 0-.014-.013zm-1.675-.677l-.017.007h.006a.02.02 0 0 0 .01-.007zm-.344.773c.011 0 .02-.003.025-.009s.009-.02.001-.012c-.04.011-.046.021-.026.021zm-.137-.412l-.014.014a.502.502 0 0 0-.015.015l.006-.002a.022.022 0 0 0 .01-.006.113.113 0 0 1 .029-.017c.013-.005.017-.015.004-.01.006-.01-.007-.005-.031.008l-.019.01.015-.006.015-.006zm.032.29a.047.047 0 0 0 .009-.009l-.01.009zm-.016-.042c-.004.007-.008.027-.005.024a.041.041 0 0 0 .006-.017v-.007zm.036-.05l-.006.004a.02.02 0 0 0-.009.007.045.045 0 0 0-.004.03c.002.003 0 .012-.003.02a.134.134 0 0 0 .015-.033l.007-.028zm-.026.011l-.01.024a.316.316 0 0 0 .014-.025zm.02-.068l-.006.008a.157.157 0 0 0 .022-.021l-.016.013zm-.04-.083c-.005.008-.008.012-.02.021a.413.413 0 0 0-.014.01.054.054 0 0 0 .03-.009l.02-.015.024-.017c-.028.016-.036.016-.04.01zm.014.047a.036.036 0 0 0-.018.01c.025-.011.026-.012.018-.01zm.11-.082zm-.065.343a.3.3 0 0 0-.04.08c0 .01.015-.008.027-.034a.095.095 0 0 1 .026-.038c.02-.018.02-.018.021-.004s0 .013-.005.02a.059.059 0 0 0-.01.013l.008.019a.841.841 0 0 1 .014-.022.246.246 0 0 0 .015-.026c.008.019.017.005.014-.01h-.015c.005-.018-.041-.012-.055.002zm0-.033c.004.005.011.011.027.011h.013l.005-.017c-.006-.033-.015-.032-.044-.011a.675.675 0 0 0-.032.024c-.007.006.019.001.031-.007zm.037-.055zm-.019.157c-.013.005-.018.014-.008.014a.133.133 0 0 0 .049-.025c.006-.008 0-.007-.041.01zm.36-.246c.016-.013.016-.013.004-.006zm-.125.057c.011-.018.009-.021.003-.015zm.082-.062l.004-.006zm.046-.521h0zm-.236.27l-.003.002-.001.004.004-.005zm.076 2.156zm.116-2.402zm-.132.554c-.019.017-.016.017-.005.008zm-.01-.273l-.004-.003.005.003zm.07-.11a.006.006 0 0 0-.004.002h.006zm.087-.032l.021-.012c-.019-.003-.022.004-.025.007zm.063.017l.008-.006zm-.036.09a.055.055 0 0 1 .011-.005zm.96.023l.004.003zm.002-.132zm.197 1.625a.105.105 0 0 1 .021-.004c.003-.006.007-.018.013-.029.01-.019.011-.022.004-.025-.013-.005-.034-.003-.039.005a.107.107 0 0 0-.008.031c-.004.023-.003.025.01.022zm-.163-1.486c-.013.021-.016.023-.018.021.008.009.022-.004.021-.013zm-1.702.205l-.007.006zm1.479-.134zm1.388.413zm-1.22-.468a.01.01 0 0 0 .003.01zm.248 1.635c-.008.028-.01.045-.009.051a.04.04 0 0 0 .004.018c.005.008.006.005.008-.02l-.001-.032a.034.034 0 0 1-.002-.017zm.051-.311c0 .01.003.021.008.025a.084.084 0 0 1-.004-.026l-.004-.017v.018zm.008-.183l-.001-.01zm-.78.09H5.23l.008.01zm-.001.03zm.304-.16c-.018-.008-.019-.007-.01.011.005.012.025.012.025 0zm.722-1.248v.005a.02.02 0 0 0 .005.007v-.006l-.005-.006zM4.44 28.18h0zm-.033-.075a.033.033 0 0 0 .006.011v-.005a.009.009 0 0 0-.006-.006zm-.092-.58c.017.014.017.013.011.004s-.014-.015-.01-.005zm-.052-.583c-.005.006-.007.025-.003.026.013-.018.009-.035.003-.026zm-.148-.666l.003-.009a.032.032 0 0 0-.006.012zm-.002.61c-.001.021.005.02.005.007zm.345 1.318a.018.018 0 0 0 .01 0zm.504-2.55zm.08 3.065h0zm-.16-3.235l.001.005zm.491-.078a.028.028 0 0 0 .007-.005zm1.536 1.473a.02.02 0 0 0 0 0zm-1.666-1.282zM10.6 27c0 2.305-1.822 4-4.133 4H4v-1.6h2.467A2.389 2.389 0 0 0 8.85 27a2.39 2.39 0 0 0-2.383-2.4H4V23h2.467c2.311 0 4.133 1.695 4.133 4z" fill="#fff"/><defs><linearGradient id="A" x1="10.418" y1="9.712" x2="68.147" y2="76.017" gradientUnits="userSpaceOnUse"><stop stop-color="#1a1e21"/><stop offset="1" stop-color="#06060a"/></linearGradient></defs></svg>

