<!-- by Finnhub --><svg width="56" height="56" xmlns="http://www.w3.org/2000/svg"><path fill="#F0F3FA" d="M0 0h56v56H0z"/><path d="M27.825 15.2c-6.295 0-9.812 4.796-10.781 7.334a1.567 1.567 0 01-2.038.913 1.608 1.608 0 01-.899-2.07C15.355 18.108 19.771 12 27.825 12c8.804 0 12.592 6.3 14.014 9.252a1.611 1.611 0 01-.722 2.14 1.564 1.564 0 01-2.107-.733C37.75 20.04 34.771 15.2 27.825 15.2z" fill="#EBA130"/><path d="M33.5 37L37 25h5l-5 19h-5l-4-12-3.982 12H19l-5-19h5l3.5 12L26 25h4l3.5 12z" fill="#0066A9"/></svg>
