<!-- by Finnhub --><svg width="56" height="56" xmlns="http://www.w3.org/2000/svg"><path fill="#0076BE" d="M0 0h56v56H0z"/><path d="M47.92 28.216c.653 4.173-2.81 6.528-6.272 6.778-1.766 3.309-5.402 5.998-10.655 5.998-2.15.079-4.283-.41-6.188-1.42-.465.086-.937.13-1.41.13-1.835 0-3.086-.43-4.308-1.894 2.473-3.364 10.002-9.412 19.173-6.288 4.902 1.664 6.178-2.25 4.946-3.714-4.62-5.533-15.067-.555-15.438-.135 4.08-6.618 18.752-8.467 20.152.545zm-14.058-7.598c.03 0-3.329-1.254-8.028.885-.19-.08-.374-.17-.554-.27 4.516-3.154 8.478-4.498 11.871-3.999C34.965 15.29 32.572 15 29.08 15c-3.873 0-7.306 1.535-9.483 3.909a9.186 9.186 0 00-2.052-.22c-5.249 0-9.804 5.003-9.532 10.686.272 5.684 6.173 9.228 9.532 8.273a.686.686 0 01.247 0c.742-3.759 3.774-12.501 16.071-17.03z" fill="#fff"/></svg>
