<svg width="24" height="24" viewBox="0 0 24 24" fill="none" xmlns="http://www.w3.org/2000/svg">
<path d="M8.99999 19.225C8.66666 19.225 8.37899 19.1043 8.13699 18.863C7.89566 18.621 7.77499 18.3333 7.77499 18C7.77499 17.6667 7.89566 17.379 8.13699 17.137C8.37899 16.8957 8.66666 16.775 8.99999 16.775C9.33333 16.775 9.62099 16.8957 9.86299 17.137C10.1043 17.379 10.225 17.6667 10.225 18C10.225 18.3333 10.1043 18.621 9.86299 18.863C9.62099 19.1043 9.33333 19.225 8.99999 19.225ZM15 19.225C14.6667 19.225 14.379 19.1043 14.137 18.863C13.8957 18.621 13.775 18.3333 13.775 18C13.775 17.6667 13.8957 17.379 14.137 17.137C14.379 16.8957 14.6667 16.775 15 16.775C15.3333 16.775 15.621 16.8957 15.863 17.137C16.1043 17.379 16.225 17.6667 16.225 18C16.225 18.3333 16.1043 18.621 15.863 18.863C15.621 19.1043 15.3333 19.225 15 19.225ZM8.99999 13.225C8.66666 13.225 8.37899 13.1043 8.13699 12.863C7.89566 12.621 7.77499 12.3333 7.77499 12C7.77499 11.6667 7.89566 11.379 8.13699 11.137C8.37899 10.8957 8.66666 10.775 8.99999 10.775C9.33333 10.775 9.62099 10.8957 9.86299 11.137C10.1043 11.379 10.225 11.6667 10.225 12C10.225 12.3333 10.1043 12.621 9.86299 12.863C9.62099 13.1043 9.33333 13.225 8.99999 13.225ZM15 13.225C14.6667 13.225 14.379 13.1043 14.137 12.863C13.8957 12.621 13.775 12.3333 13.775 12C13.775 11.6667 13.8957 11.379 14.137 11.137C14.379 10.8957 14.6667 10.775 15 10.775C15.3333 10.775 15.621 10.8957 15.863 11.137C16.1043 11.379 16.225 11.6667 16.225 12C16.225 12.3333 16.1043 12.621 15.863 12.863C15.621 13.1043 15.3333 13.225 15 13.225ZM8.99999 7.225C8.66666 7.225 8.37899 7.104 8.13699 6.862C7.89566 6.62067 7.77499 6.33333 7.77499 6C7.77499 5.66667 7.89566 5.379 8.13699 5.137C8.37899 4.89567 8.66666 4.775 8.99999 4.775C9.33333 4.775 9.62099 4.89567 9.86299 5.137C10.1043 5.379 10.225 5.66667 10.225 6C10.225 6.33333 10.1043 6.62067 9.86299 6.862C9.62099 7.104 9.33333 7.225 8.99999 7.225ZM15 7.225C14.6667 7.225 14.379 7.104 14.137 6.862C13.8957 6.62067 13.775 6.33333 13.775 6C13.775 5.66667 13.8957 5.379 14.137 5.137C14.379 4.89567 14.6667 4.775 15 4.775C15.3333 4.775 15.621 4.89567 15.863 5.137C16.1043 5.379 16.225 5.66667 16.225 6C16.225 6.33333 16.1043 6.62067 15.863 6.862C15.621 7.104 15.3333 7.225 15 7.225Z" fill="#381E72"/>
</svg>
