<svg width="24" height="24" viewBox="0 0 24 24" fill="none" xmlns="http://www.w3.org/2000/svg">
<path d="M8.9999 19.225C8.66657 19.225 8.3789 19.1044 8.1369 18.863C7.89557 18.621 7.7749 18.3334 7.7749 18C7.7749 17.6667 7.89557 17.379 8.1369 17.137C8.3789 16.8957 8.66657 16.775 8.9999 16.775C9.33324 16.775 9.6209 16.8957 9.8629 17.137C10.1042 17.379 10.2249 17.6667 10.2249 18C10.2249 18.3334 10.1042 18.621 9.8629 18.863C9.6209 19.1044 9.33324 19.225 8.9999 19.225ZM14.9999 19.225C14.6666 19.225 14.3789 19.1044 14.1369 18.863C13.8956 18.621 13.7749 18.3334 13.7749 18C13.7749 17.6667 13.8956 17.379 14.1369 17.137C14.3789 16.8957 14.6666 16.775 14.9999 16.775C15.3332 16.775 15.6209 16.8957 15.8629 17.137C16.1042 17.379 16.2249 17.6667 16.2249 18C16.2249 18.3334 16.1042 18.621 15.8629 18.863C15.6209 19.1044 15.3332 19.225 14.9999 19.225ZM8.9999 13.225C8.66657 13.225 8.3789 13.1044 8.1369 12.863C7.89557 12.621 7.7749 12.3334 7.7749 12C7.7749 11.6667 7.89557 11.379 8.1369 11.137C8.3789 10.8957 8.66657 10.775 8.9999 10.775C9.33324 10.775 9.6209 10.8957 9.8629 11.137C10.1042 11.379 10.2249 11.6667 10.2249 12C10.2249 12.3334 10.1042 12.621 9.8629 12.863C9.6209 13.1044 9.33324 13.225 8.9999 13.225ZM14.9999 13.225C14.6666 13.225 14.3789 13.1044 14.1369 12.863C13.8956 12.621 13.7749 12.3334 13.7749 12C13.7749 11.6667 13.8956 11.379 14.1369 11.137C14.3789 10.8957 14.6666 10.775 14.9999 10.775C15.3332 10.775 15.6209 10.8957 15.8629 11.137C16.1042 11.379 16.2249 11.6667 16.2249 12C16.2249 12.3334 16.1042 12.621 15.8629 12.863C15.6209 13.1044 15.3332 13.225 14.9999 13.225ZM8.9999 7.22502C8.66657 7.22502 8.3789 7.10402 8.1369 6.86202C7.89557 6.62069 7.7749 6.33336 7.7749 6.00002C7.7749 5.66669 7.89557 5.37902 8.1369 5.13702C8.3789 4.89569 8.66657 4.77502 8.9999 4.77502C9.33324 4.77502 9.6209 4.89569 9.8629 5.13702C10.1042 5.37902 10.2249 5.66669 10.2249 6.00002C10.2249 6.33336 10.1042 6.62069 9.8629 6.86202C9.6209 7.10402 9.33324 7.22502 8.9999 7.22502ZM14.9999 7.22502C14.6666 7.22502 14.3789 7.10402 14.1369 6.86202C13.8956 6.62069 13.7749 6.33336 13.7749 6.00002C13.7749 5.66669 13.8956 5.37902 14.1369 5.13702C14.3789 4.89569 14.6666 4.77502 14.9999 4.77502C15.3332 4.77502 15.6209 4.89569 15.8629 5.13702C16.1042 5.37902 16.2249 5.66669 16.2249 6.00002C16.2249 6.33336 16.1042 6.62069 15.8629 6.86202C15.6209 7.10402 15.3332 7.22502 14.9999 7.22502Z" fill="white"/>
</svg>
