<svg width="150" height="40" viewBox="0 0 150 40" fill="none" xmlns="http://www.w3.org/2000/svg">
<path d="M0.5 10.2071L10.2071 0.5H149.5V29.7929L139.793 39.5H0.5V10.2071Z" stroke="#41CD52"/>
<path d="M58.0795 25.78C56.7062 26.06 55.4729 26.2 54.3795 26.2C53.2862 26.2 52.3995 26.0533 51.7195 25.76C51.0529 25.4533 50.5329 24.9867 50.1595 24.36C49.7995 23.72 49.5462 22.9933 49.3995 22.18C49.2662 21.3533 49.1995 20.3267 49.1995 19.1C49.1995 17.8733 49.2662 16.8467 49.3995 16.02C49.5462 15.18 49.7995 14.44 50.1595 13.8C50.5329 13.16 51.0529 12.6933 51.7195 12.4C52.3862 12.1067 53.2529 11.96 54.3195 11.96C55.3862 11.96 56.6395 12.1067 58.0795 12.4L58.0195 13.7C56.6729 13.46 55.4729 13.34 54.4195 13.34C52.9529 13.34 51.9795 13.78 51.4995 14.66C51.0329 15.5267 50.7995 17.0133 50.7995 19.12C50.7995 20.1733 50.8395 21.02 50.9195 21.66C51.0129 22.3 51.1862 22.88 51.4395 23.4C51.6929 23.9067 52.0595 24.2733 52.5395 24.5C53.0329 24.7133 53.7462 24.82 54.6795 24.82C55.6262 24.82 56.7395 24.7 58.0195 24.46L58.0795 25.78ZM67.3984 19.02V24.14C67.4384 24.6333 67.8251 24.9267 68.5584 25.02L68.4984 26.2C67.4451 26.2 66.6518 25.9333 66.1184 25.4C64.9184 25.9333 63.7184 26.2 62.5184 26.2C61.5984 26.2 60.8984 25.94 60.4184 25.42C59.9384 24.9 59.6984 24.1533 59.6984 23.18C59.6984 22.2067 59.9451 21.4933 60.4384 21.04C60.9318 20.5733 61.7051 20.2867 62.7584 20.18L65.8984 19.88V19.02C65.8984 18.34 65.7518 17.8533 65.4584 17.56C65.1651 17.2667 64.7651 17.12 64.2584 17.12C63.1918 17.12 62.0851 17.1867 60.9384 17.32L60.3184 17.38L60.2584 16.24C61.7251 15.9467 63.0251 15.8 64.1584 15.8C65.2918 15.8 66.1118 16.06 66.6184 16.58C67.1384 17.1 67.3984 17.9133 67.3984 19.02ZM61.2384 23.1C61.2384 24.3267 61.7451 24.94 62.7584 24.94C63.6651 24.94 64.5584 24.7867 65.4384 24.48L65.8984 24.32V21.02L62.9384 21.3C62.3384 21.3533 61.9051 21.5267 61.6384 21.82C61.3718 22.1133 61.2384 22.54 61.2384 23.1ZM71.858 26H70.358V16H71.838V16.7C72.918 16.1 73.9513 15.8 74.938 15.8C76.2713 15.8 77.1646 16.16 77.618 16.88C78.0846 17.6 78.318 18.88 78.318 20.72V26H76.838V20.76C76.838 19.3733 76.698 18.4267 76.418 17.92C76.1513 17.4 75.5713 17.14 74.678 17.14C74.2513 17.14 73.798 17.2067 73.318 17.34C72.8513 17.46 72.4913 17.58 72.238 17.7L71.858 17.88V26ZM84.8402 15.8C85.2802 15.8 86.0268 15.88 87.0802 16.04L87.5602 16.1L87.5002 17.32C86.4335 17.2 85.6468 17.14 85.1402 17.14C84.0068 17.14 83.2335 17.4133 82.8202 17.96C82.4202 18.4933 82.2202 19.4933 82.2202 20.96C82.2202 22.4133 82.4068 23.4267 82.7802 24C83.1668 24.5733 83.9602 24.86 85.1602 24.86L87.5202 24.68L87.5802 25.92C86.3402 26.1067 85.4135 26.2 84.8002 26.2C83.2402 26.2 82.1602 25.8 81.5602 25C80.9735 24.2 80.6802 22.8533 80.6802 20.96C80.6802 19.0533 81.0002 17.72 81.6402 16.96C82.2802 16.1867 83.3468 15.8 84.8402 15.8ZM96.4939 24.76L97.0739 24.7L97.1139 25.88C95.5939 26.0933 94.2939 26.2 93.2139 26.2C91.7739 26.2 90.7539 25.7867 90.1539 24.96C89.5539 24.12 89.2539 22.82 89.2539 21.06C89.2539 17.5533 90.6472 15.8 93.4339 15.8C94.7806 15.8 95.7872 16.18 96.4539 16.94C97.1206 17.6867 97.4539 18.8667 97.4539 20.48L97.3739 21.62H90.7739C90.7739 22.7267 90.9739 23.5467 91.3739 24.08C91.7739 24.6133 92.4672 24.88 93.4539 24.88C94.4539 24.88 95.4672 24.84 96.4939 24.76ZM95.9539 20.42C95.9539 19.1933 95.7539 18.3267 95.3539 17.82C94.9672 17.3133 94.3272 17.06 93.4339 17.06C92.5539 17.06 91.8872 17.3267 91.4339 17.86C90.9939 18.3933 90.7672 19.2467 90.7539 20.42H95.9539ZM99.9116 26V11.64H101.412V26H99.9116Z" fill="#41CD52"/>
</svg>
