<svg width="42" height="35" viewBox="0 0 42 35" fill="none" xmlns="http://www.w3.org/2000/svg">
<path d="M0.730957 34.9998L21.0001 0L41.2692 34.9998H0.730957ZM4.66161 32.7306H37.3385L21.0001 4.53835L4.66161 32.7306ZM21.1515 29.7268C21.5082 29.7268 21.8042 29.6061 22.0395 29.3647C22.2747 29.1234 22.3924 28.8244 22.3924 28.4677C22.3924 28.1109 22.2717 27.8149 22.0304 27.5797C21.789 27.3444 21.49 27.2268 21.1333 27.2268C20.7765 27.2268 20.4805 27.3475 20.2453 27.5888C20.01 27.8301 19.8924 28.1291 19.8924 28.4858C19.8924 28.8426 20.013 29.1386 20.2544 29.3738C20.4957 29.6091 20.7947 29.7268 21.1515 29.7268ZM20.0078 24.8307H22.277V13.9383H20.0078V24.8307Z" fill="#FFE353"/>
</svg>
