<svg width="28" height="28" viewBox="0 0 28 28" fill="none" xmlns="http://www.w3.org/2000/svg">
<path d="M7.29199 21.5C7.59733 21.5 7.86099 21.389 8.08299 21.167C8.30566 20.9443 8.41699 20.6663 8.41699 20.333C8.41699 19.9997 8.30566 19.722 8.08299 19.5C7.86099 19.278 7.58333 19.167 7.24999 19.167C6.94466 19.167 6.68066 19.278 6.45799 19.5C6.23599 19.722 6.12499 19.9997 6.12499 20.333C6.12499 20.6663 6.23599 20.9443 6.45799 21.167C6.68066 21.389 6.95866 21.5 7.29199 21.5ZM7.29199 15.167C7.59733 15.167 7.86099 15.0557 8.08299 14.833C8.30566 14.611 8.41699 14.3333 8.41699 14C8.41699 13.6667 8.30566 13.389 8.08299 13.167C7.86099 12.9443 7.58333 12.833 7.24999 12.833C6.94466 12.833 6.68066 12.9443 6.45799 13.167C6.23599 13.389 6.12499 13.6667 6.12499 14C6.12499 14.3333 6.23599 14.611 6.45799 14.833C6.68066 15.0557 6.95866 15.167 7.29199 15.167ZM7.29199 8.83299C7.59733 8.83299 7.86099 8.72199 8.08299 8.49999C8.30566 8.27799 8.41699 8.00033 8.41699 7.66699C8.41699 7.33366 8.30566 7.05566 8.08299 6.83299C7.86099 6.61099 7.58333 6.49999 7.24999 6.49999C6.94466 6.49999 6.68066 6.61099 6.45799 6.83299C6.23599 7.05566 6.12499 7.33366 6.12499 7.66699C6.12499 8.00033 6.23599 8.27799 6.45799 8.49999C6.68066 8.72199 6.95866 8.83299 7.29199 8.83299ZM12.542 21.042H21.583V19.625H12.542V21.042ZM12.542 14.708H21.583V13.292H12.542V14.708ZM12.542 8.37499H21.583V6.95799H12.542V8.37499ZM3.08299 27.333C2.41633 27.333 1.84699 27.097 1.37499 26.625C0.902992 26.153 0.666992 25.5837 0.666992 24.917V3.08299C0.666992 2.41633 0.902992 1.84699 1.37499 1.37499C1.84699 0.902992 2.41633 0.666992 3.08299 0.666992H24.917C25.5837 0.666992 26.153 0.902992 26.625 1.37499C27.097 1.84699 27.333 2.41633 27.333 3.08299V24.917C27.333 25.5837 27.097 26.153 26.625 26.625C26.153 27.097 25.5837 27.333 24.917 27.333H3.08299ZM3.08299 25.917H24.917C25.167 25.917 25.396 25.8127 25.604 25.604C25.8127 25.396 25.917 25.167 25.917 24.917V3.08299C25.917 2.83299 25.8127 2.60399 25.604 2.39599C25.396 2.18733 25.167 2.08299 24.917 2.08299H3.08299C2.83299 2.08299 2.60399 2.18733 2.39599 2.39599C2.18733 2.60399 2.08299 2.83299 2.08299 3.08299V24.917C2.08299 25.167 2.18733 25.396 2.39599 25.604C2.60399 25.8127 2.83299 25.917 3.08299 25.917Z" fill="#41CD52"/>
</svg>
