<svg width="18" height="14" viewBox="0 0 18 14" fill="none" xmlns="http://www.w3.org/2000/svg">
<path d="M7.75 10.2C8.06667 10.5 8.46667 10.6377 8.95 10.613C9.43333 10.5877 9.79167 10.4167 10.025 10.1L15.275 2.775L7.9 7.975C7.56667 8.20833 7.38333 8.55833 7.35 9.025C7.31667 9.49167 7.45 9.88333 7.75 10.2ZM9 0C9.91667 0 10.754 0.112666 11.512 0.338C12.2707 0.562666 13.025 0.9 13.775 1.35L12.85 1.975C12.2667 1.65833 11.6583 1.41667 11.025 1.25C10.3917 1.08333 9.71667 1 9 1C6.78333 1 4.896 1.779 3.338 3.337C1.77933 4.89567 1 6.78333 1 9C1 9.7 1.09567 10.3917 1.287 11.075C1.479 11.7583 1.75 12.4 2.1 13H15.9C16.2833 12.3667 16.5627 11.7083 16.738 11.025C16.9127 10.3417 17 9.63333 17 8.9C17 8.3 16.921 7.66667 16.763 7C16.6043 6.33333 16.3583 5.71667 16.025 5.15L16.65 4.225C17.15 5.05833 17.5 5.84567 17.7 6.587C17.9 7.329 18 8.1 18 8.9C18 9.75 17.904 10.55 17.712 11.3C17.5207 12.05 17.2167 12.8 16.8 13.55C16.7167 13.6833 16.596 13.7917 16.438 13.875C16.2793 13.9583 16.1 14 15.9 14H2.1C1.91667 14 1.746 13.9543 1.588 13.863C1.42933 13.771 1.3 13.6417 1.2 13.475C0.866666 12.8917 0.583333 12.2333 0.35 11.5C0.116667 10.7667 0 9.93333 0 9C0 7.76667 0.233333 6.604 0.7 5.512C1.16667 4.42067 1.80433 3.46667 2.613 2.65C3.421 1.83333 4.375 1.18767 5.475 0.713C6.575 0.237666 7.75 0 9 0Z" fill="#09102B"/>
</svg>
