<svg width="14" height="16" viewBox="0 0 14 16" fill="none" xmlns="http://www.w3.org/2000/svg">
<path d="M2.625 16.0001C2.175 16.0001 1.79167 15.8418 1.475 15.5251C1.15833 15.2084 1 14.8251 1 14.3751V2.0001H0V1.0001H4V0.225098H10V1.0001H14V2.0001H13V14.3751C13 14.8418 12.846 15.2294 12.538 15.5381C12.2293 15.8461 11.8417 16.0001 11.375 16.0001H2.625ZM12 2.0001H2V14.3751C2 14.5584 2.05833 14.7084 2.175 14.8251C2.29167 14.9418 2.44167 15.0001 2.625 15.0001H11.375C11.5417 15.0001 11.6873 14.9374 11.812 14.8121C11.9373 14.6874 12 14.5418 12 14.3751V2.0001ZM4.8 13.0001H5.8V4.0001H4.8V13.0001ZM8.2 13.0001H9.2V4.0001H8.2V13.0001ZM2 2.0001V15.0001V14.3751V2.0001Z" fill="#09102B"/>
</svg>
