<svg width="16" height="16" viewBox="0 0 16 16" fill="none" xmlns="http://www.w3.org/2000/svg">
<path d="M10.075 15.5002V14.4502C11.4584 13.9669 12.575 13.1335 13.425 11.9502C14.275 10.7669 14.7 9.44186 14.7 7.9752C14.7 6.50853 14.275 5.18353 13.425 4.0002C12.575 2.81686 11.4584 1.98353 10.075 1.5002V0.450195C11.725 0.983529 13.075 1.93753 14.125 3.3122C15.175 4.68753 15.7 6.24186 15.7 7.9752C15.7 9.70853 15.175 11.2625 14.125 12.6372C13.075 14.0125 11.725 14.9669 10.075 15.5002ZM0.300049 10.0002V6.0002H3.72505L7.30005 2.4252V13.5752L3.72505 10.0002H0.300049ZM10.075 11.3002V4.6502C10.6417 5.01686 11.071 5.5002 11.363 6.1002C11.6544 6.7002 11.8 7.33353 11.8 8.0002C11.8 8.66686 11.65 9.29186 11.35 9.8752C11.05 10.4585 10.625 10.9335 10.075 11.3002ZM6.30005 4.8502L4.15005 7.0002H1.30005V9.0002H4.15005L6.30005 11.1502V4.8502Z" fill="white"/>
</svg>
