<svg width="52" height="60" viewBox="0 0 52 60" fill="none" xmlns="http://www.w3.org/2000/svg">
<g id="Group">
<g id="Group_2">
<g id="Group_3">
<path id="Vector" fill-rule="evenodd" clip-rule="evenodd" d="M22.3755 50.0556C27.7559 50.2743 33.4668 45.7477 40.2424 31.77C20.4344 38.0807 5.03081 33.9875 6.58335 31.2862C7.65373 29.4245 16.026 26.6521 38.8723 30.3829C38.8723 30.3829 31.7607 29.8081 24.0227 29.3372C15.0759 28.7929 8.45274 29.5524 7.94788 31.6758C7.74516 34.3256 29.8781 34.9384 40.2567 31.7319C37.6177 40.7802 31.6396 52.3846 21.6116 51.7728C15.2562 51.2771 9.69157 42.8165 5.86157 35.2045C12.077 44.8231 16.8182 49.7588 22.3748 50.0559L22.3755 50.0556Z" fill="#121111" stroke="#E59112" stroke-width="0.388776"/>
<path id="Vector_2" fill-rule="evenodd" clip-rule="evenodd" d="M39.2739 35.6191C39.2739 35.6191 41.8326 30.9476 45.8967 31.3843C51.9063 32.0296 41.5239 45.994 33.6111 45.8864C34.8977 45.5075 36.4258 44.9872 38.9132 43.1366C41.9503 40.8771 48.9485 34.1614 44.1485 33.0587C42.3596 32.6477 39.2736 35.6193 39.2736 35.6193L39.2739 35.6191Z" fill="#121111" stroke="#E59112" stroke-width="0.388776"/>
<path id="Vector_3" fill-rule="evenodd" clip-rule="evenodd" d="M13.1254 47.9206C13.1254 47.9206 -12.3206 51.1419 10.5119 56.5114C40.8068 63.6358 50.969 53.5844 50.9993 52.219C51.1297 46.5903 33.4201 47.4391 33.4201 47.4391C38.5852 48.1326 38.8619 47.5692 44.8272 48.9388C50.7926 50.3085 42.58 58.2817 30.0215 57.6879C7.80167 56.6379 -7.4167 52.2985 13.1241 47.9204L13.1254 47.9206Z" fill="#121111" stroke="#E59112" stroke-width="0.33411"/>
<g id="Group_4">
<path id="Vector_4" fill-rule="evenodd" clip-rule="evenodd" d="M20.7386 1C19.4442 3.74271 19.0316 10.9723 23.8489 14.4479C28.6663 17.9235 20.628 32.8237 20.2652 32.8106C19.9025 32.7976 25.4646 19.6573 23.2323 16.5263C20.9999 13.3953 20.7384 1 20.7384 1H20.7386Z" fill="#121111" stroke="#E59112" stroke-width="0.238044"/>
<path id="Vector_5" fill-rule="evenodd" clip-rule="evenodd" d="M17.7713 4.62716C16.4766 7.00757 16.0639 13.282 20.8825 16.2985C25.701 19.3149 16.261 32.8239 15.8983 32.8127C15.5355 32.8014 22.4989 20.8196 20.2659 18.1023C18.0329 15.3849 17.7713 4.62695 17.7713 4.62695V4.62716Z" fill="#121111" stroke="#E59112" stroke-width="0.22179"/>
<path id="Vector_6" fill-rule="evenodd" clip-rule="evenodd" d="M26.7773 5.63574C25.4824 7.917 23.6703 14.096 28.4891 16.9867C33.3081 19.8774 23.8672 32.8231 23.5045 32.8123C23.1417 32.8015 30.1055 21.3194 27.8723 18.7155C25.6393 16.1114 26.7771 5.63595 26.7772 5.63595L26.7773 5.63574Z" fill="#121111" stroke="#E59112" stroke-width="0.217125"/>
</g>
</g>
</g>
</g>
</svg>
