<svg width="202" height="234" viewBox="0 0 202 234" fill="none" xmlns="http://www.w3.org/2000/svg">
<g id="Group">
<g id="Group_2">
<g id="Group_3">
<path id="Vector" fill-rule="evenodd" clip-rule="evenodd" d="M86.5024 197.223C108.024 198.097 130.868 179.991 157.97 124.08C78.738 149.323 17.1237 132.95 23.3339 122.145C27.6154 114.698 61.1047 103.609 152.49 118.532C152.49 118.532 124.043 116.233 93.0914 114.349C57.3039 112.172 30.8115 115.21 28.792 123.704C27.9811 134.303 116.513 136.754 158.027 123.928C147.471 160.121 123.559 206.539 83.4468 204.092C58.0254 202.109 35.7668 168.266 20.4468 137.818C45.3083 176.293 64.2731 196.036 86.4996 197.224L86.5024 197.223Z" fill="white" fill-opacity="0.3" stroke="#E59112" stroke-opacity="0.4" stroke-width="0.388776"/>
<path id="Vector_2" fill-rule="evenodd" clip-rule="evenodd" d="M154.096 139.476C154.096 139.476 164.33 120.791 180.587 122.537C204.625 125.118 163.095 180.976 131.444 180.546C136.591 179.03 142.703 176.949 152.653 169.546C164.801 160.508 192.794 133.646 173.594 129.235C166.438 127.591 154.094 139.477 154.094 139.477L154.096 139.476Z" fill="white" fill-opacity="0.3" stroke="#E59112" stroke-opacity="0.4" stroke-width="0.388776"/>
<path id="Vector_3" fill-rule="evenodd" clip-rule="evenodd" d="M49.5015 188.68C49.5015 188.68 -52.2825 201.566 39.0474 223.044C160.227 251.541 200.876 211.336 200.997 205.874C201.519 183.359 130.68 186.755 130.68 186.755C151.341 189.529 152.448 187.275 176.309 192.753C200.17 198.232 167.32 230.125 117.086 227.75C28.2067 223.55 -32.6668 206.192 49.4964 188.68L49.5015 188.68Z" fill="white" fill-opacity="0.3" stroke="#E59112" stroke-opacity="0.4" stroke-width="0.33411"/>
<g id="Group_4">
<path id="Vector_4" fill-rule="evenodd" clip-rule="evenodd" d="M79.9539 1C74.7762 11.9708 73.1257 40.8891 92.3951 54.7915C111.665 68.694 79.5114 128.295 78.0603 128.242C76.6095 128.19 98.858 75.629 89.9286 63.1051C80.9992 50.5811 79.9531 1 79.9531 1H79.9539Z" fill="white" fill-opacity="0.3" stroke="#E59112" stroke-opacity="0.4" stroke-width="0.238044"/>
<path id="Vector_5" fill-rule="evenodd" clip-rule="evenodd" d="M68.0849 15.5086C62.9059 25.0303 61.255 50.1281 80.5295 62.1939C99.8035 74.2597 62.0436 128.296 60.5925 128.251C59.1414 128.206 86.995 80.2785 78.063 69.4091C69.131 58.5397 68.0849 15.5078 68.0849 15.5078V15.5086Z" fill="white" fill-opacity="0.3" stroke="#E59112" stroke-opacity="0.4" stroke-width="0.22179"/>
<path id="Vector_6" fill-rule="evenodd" clip-rule="evenodd" d="M104.109 19.541C98.9293 28.666 91.6805 53.3822 110.956 64.945C130.232 76.5078 92.4684 128.291 91.0173 128.247C89.5661 128.204 117.422 82.2755 108.489 71.8601C99.5567 61.4438 104.108 19.5418 104.108 19.5418L104.109 19.541Z" fill="white" fill-opacity="0.3" stroke="#E59112" stroke-opacity="0.4" stroke-width="0.217125"/>
</g>
</g>
</g>
</g>
</svg>
